<svg width="293" height="64" viewBox="0 0 293 64" fill="none" xmlns="http://www.w3.org/2000/svg">
<rect width="293" height="64" rx="30" fill="#FCFCF4"/>
<path d="M56.888 38V26.8H61.08C62.0293 26.8 62.8453 26.9547 63.528 27.264C64.2107 27.5627 64.7333 28 65.096 28.576C65.4693 29.1413 65.656 29.8293 65.656 30.64C65.656 31.4293 65.4693 32.112 65.096 32.688C64.7333 33.2533 64.2107 33.6907 63.528 34C62.8453 34.3093 62.0293 34.464 61.08 34.464H57.544L58.072 33.904V38H56.888ZM58.072 34L57.544 33.424H61.048C62.168 33.424 63.016 33.184 63.592 32.704C64.1787 32.2133 64.472 31.5253 64.472 30.64C64.472 29.744 64.1787 29.0507 63.592 28.56C63.016 28.0693 62.168 27.824 61.048 27.824H57.544L58.072 27.264V34ZM72.9414 38V36.144L72.8934 35.84V32.736C72.8934 32.0213 72.6907 31.472 72.2854 31.088C71.8907 30.704 71.2987 30.512 70.5094 30.512C69.9654 30.512 69.448 30.6027 68.9574 30.784C68.4667 30.9653 68.0507 31.2053 67.7094 31.504L67.1974 30.656C67.624 30.2933 68.136 30.016 68.7334 29.824C69.3307 29.6213 69.96 29.52 70.6214 29.52C71.7094 29.52 72.5467 29.792 73.1334 30.336C73.7307 30.8693 74.0294 31.6853 74.0294 32.784V38H72.9414ZM70.0454 38.08C69.416 38.08 68.8667 37.9787 68.3974 37.776C67.9387 37.5627 67.5867 37.2747 67.3414 36.912C67.096 36.5387 66.9734 36.112 66.9734 35.632C66.9734 35.1947 67.0747 34.8 67.2774 34.448C67.4907 34.0853 67.832 33.7973 68.3014 33.584C68.7814 33.36 69.4214 33.248 70.2214 33.248H73.1174V34.096H70.2534C69.4427 34.096 68.8774 34.24 68.5574 34.528C68.248 34.816 68.0934 35.1733 68.0934 35.6C68.0934 36.08 68.28 36.464 68.6534 36.752C69.0267 37.04 69.5494 37.184 70.2214 37.184C70.8614 37.184 71.4107 37.04 71.8694 36.752C72.3387 36.4533 72.68 36.0267 72.8934 35.472L73.1494 36.256C72.936 36.8107 72.5627 37.2533 72.0294 37.584C71.5067 37.9147 70.8454 38.08 70.0454 38.08ZM80.5735 38.08C79.7415 38.08 78.9948 37.8987 78.3335 37.536C77.6828 37.1627 77.1708 36.656 76.7975 36.016C76.4242 35.3653 76.2375 34.624 76.2375 33.792C76.2375 32.9493 76.4242 32.208 76.7975 31.568C77.1708 30.928 77.6828 30.4267 78.3335 30.064C78.9948 29.7013 79.7415 29.52 80.5735 29.52C81.2882 29.52 81.9335 29.6587 82.5095 29.936C83.0855 30.2133 83.5388 30.6293 83.8695 31.184L83.0215 31.76C82.7335 31.3333 82.3762 31.0187 81.9495 30.816C81.5228 30.6133 81.0588 30.512 80.5575 30.512C79.9602 30.512 79.4215 30.6507 78.9415 30.928C78.4615 31.1947 78.0828 31.5733 77.8055 32.064C77.5282 32.5547 77.3895 33.1307 77.3895 33.792C77.3895 34.4533 77.5282 35.0293 77.8055 35.52C78.0828 36.0107 78.4615 36.3947 78.9415 36.672C79.4215 36.9387 79.9602 37.072 80.5575 37.072C81.0588 37.072 81.5228 36.9707 81.9495 36.768C82.3762 36.5653 82.7335 36.256 83.0215 35.84L83.8695 36.416C83.5388 36.96 83.0855 37.376 82.5095 37.664C81.9335 37.9413 81.2882 38.08 80.5735 38.08ZM89.4485 38.08C88.6165 38.08 87.8698 37.8987 87.2085 37.536C86.5578 37.1627 86.0458 36.656 85.6725 36.016C85.2992 35.3653 85.1125 34.624 85.1125 33.792C85.1125 32.9493 85.2992 32.208 85.6725 31.568C86.0458 30.928 86.5578 30.4267 87.2085 30.064C87.8698 29.7013 88.6165 29.52 89.4485 29.52C90.1632 29.52 90.8085 29.6587 91.3845 29.936C91.9605 30.2133 92.4138 30.6293 92.7445 31.184L91.8965 31.76C91.6085 31.3333 91.2512 31.0187 90.8245 30.816C90.3978 30.6133 89.9338 30.512 89.4325 30.512C88.8352 30.512 88.2965 30.6507 87.8165 30.928C87.3365 31.1947 86.9578 31.5733 86.6805 32.064C86.4032 32.5547 86.2645 33.1307 86.2645 33.792C86.2645 34.4533 86.4032 35.0293 86.6805 35.52C86.9578 36.0107 87.3365 36.3947 87.8165 36.672C88.2965 36.9387 88.8352 37.072 89.4325 37.072C89.9338 37.072 90.3978 36.9707 90.8245 36.768C91.2512 36.5653 91.6085 36.256 91.8965 35.84L92.7445 36.416C92.4138 36.96 91.9605 37.376 91.3845 37.664C90.8085 37.9413 90.1632 38.08 89.4485 38.08ZM100.256 34.448C99.7655 34.6613 99.2695 34.832 98.7681 34.96C98.2775 35.0773 97.7868 35.136 97.2961 35.136C96.3041 35.136 95.5201 34.912 94.9441 34.464C94.3681 34.0053 94.0801 33.3013 94.0801 32.352V29.6H95.2001V32.288C95.2001 32.928 95.4081 33.408 95.8241 33.728C96.2401 34.048 96.8001 34.208 97.5041 34.208C97.9308 34.208 98.3788 34.1547 98.8481 34.048C99.3175 33.9307 99.7921 33.7653 100.272 33.552L100.256 34.448ZM100.16 38V29.6H101.296V38H100.16ZM104.522 38V29.6H105.658V36.272L111.274 29.6H112.282V38H111.146V31.312L105.546 38H104.522ZM117.138 38V30.288L117.426 30.592H113.954V29.6H121.458V30.592H117.986L118.274 30.288V38H117.138ZM128.316 38V36.144L128.268 35.84V32.736C128.268 32.0213 128.066 31.472 127.66 31.088C127.266 30.704 126.674 30.512 125.884 30.512C125.34 30.512 124.823 30.6027 124.332 30.784C123.842 30.9653 123.426 31.2053 123.084 31.504L122.572 30.656C122.999 30.2933 123.511 30.016 124.108 29.824C124.706 29.6213 125.335 29.52 125.996 29.52C127.084 29.52 127.922 29.792 128.508 30.336C129.106 30.8693 129.404 31.6853 129.404 32.784V38H128.316ZM125.42 38.08C124.791 38.08 124.242 37.9787 123.772 37.776C123.314 37.5627 122.962 37.2747 122.716 36.912C122.471 36.5387 122.348 36.112 122.348 35.632C122.348 35.1947 122.45 34.8 122.652 34.448C122.866 34.0853 123.207 33.7973 123.676 33.584C124.156 33.36 124.796 33.248 125.596 33.248H128.492V34.096H125.628C124.818 34.096 124.252 34.24 123.932 34.528C123.623 34.816 123.468 35.1733 123.468 35.6C123.468 36.08 123.655 36.464 124.028 36.752C124.402 37.04 124.924 37.184 125.596 37.184C126.236 37.184 126.786 37.04 127.244 36.752C127.714 36.4533 128.055 36.0267 128.268 35.472L128.524 36.256C128.311 36.8107 127.938 37.2533 127.404 37.584C126.882 37.9147 126.22 38.08 125.42 38.08ZM134.029 38V30.288L134.317 30.592H130.845V29.6H138.349V30.592H134.877L135.165 30.288V38H134.029ZM143.607 32.56C144.663 32.5707 145.463 32.8053 146.007 33.264C146.562 33.7227 146.839 34.384 146.839 35.248C146.839 36.144 146.54 36.832 145.943 37.312C145.356 37.792 144.503 38.0267 143.383 38.016L139.991 38V29.6H141.127V32.528L143.607 32.56ZM143.319 37.152C144.098 37.1627 144.684 37.008 145.079 36.688C145.484 36.3573 145.687 35.8773 145.687 35.248C145.687 34.6187 145.49 34.16 145.095 33.872C144.7 33.5733 144.108 33.4187 143.319 33.408L141.127 33.376V37.12L143.319 37.152ZM156.714 38.08C155.882 38.08 155.135 37.8987 154.474 37.536C153.823 37.1627 153.311 36.656 152.938 36.016C152.565 35.3653 152.378 34.624 152.378 33.792C152.378 32.9493 152.565 32.208 152.938 31.568C153.311 30.928 153.823 30.4267 154.474 30.064C155.135 29.7013 155.882 29.52 156.714 29.52C157.429 29.52 158.074 29.6587 158.65 29.936C159.226 30.2133 159.679 30.6293 160.01 31.184L159.162 31.76C158.874 31.3333 158.517 31.0187 158.09 30.816C157.663 30.6133 157.199 30.512 156.698 30.512C156.101 30.512 155.562 30.6507 155.082 30.928C154.602 31.1947 154.223 31.5733 153.946 32.064C153.669 32.5547 153.53 33.1307 153.53 33.792C153.53 34.4533 153.669 35.0293 153.946 35.52C154.223 36.0107 154.602 36.3947 155.082 36.672C155.562 36.9387 156.101 37.072 156.698 37.072C157.199 37.072 157.663 36.9707 158.09 36.768C158.517 36.5653 158.874 36.256 159.162 35.84L160.01 36.416C159.679 36.96 159.226 37.376 158.65 37.664C158.074 37.9413 157.429 38.08 156.714 38.08ZM163.654 38V30.288L163.942 30.592H160.47V29.6H167.974V30.592H164.502L164.79 30.288V38H163.654ZM172.681 38.08C171.871 38.08 171.14 37.8987 170.489 37.536C169.849 37.1627 169.343 36.656 168.969 36.016C168.596 35.3653 168.409 34.624 168.409 33.792C168.409 32.9493 168.596 32.208 168.969 31.568C169.343 30.928 169.849 30.4267 170.489 30.064C171.129 29.7013 171.86 29.52 172.681 29.52C173.513 29.52 174.249 29.7013 174.889 30.064C175.54 30.4267 176.047 30.928 176.409 31.568C176.783 32.208 176.969 32.9493 176.969 33.792C176.969 34.624 176.783 35.3653 176.409 36.016C176.047 36.656 175.54 37.1627 174.889 37.536C174.239 37.8987 173.503 38.08 172.681 38.08ZM172.681 37.072C173.289 37.072 173.828 36.9387 174.297 36.672C174.767 36.3947 175.135 36.0107 175.401 35.52C175.679 35.0187 175.817 34.4427 175.817 33.792C175.817 33.1307 175.679 32.5547 175.401 32.064C175.135 31.5733 174.767 31.1947 174.297 30.928C173.828 30.6507 173.295 30.512 172.697 30.512C172.1 30.512 171.567 30.6507 171.097 30.928C170.628 31.1947 170.255 31.5733 169.977 32.064C169.7 32.5547 169.561 33.1307 169.561 33.792C169.561 34.4427 169.7 35.0187 169.977 35.52C170.255 36.0107 170.628 36.3947 171.097 36.672C171.567 36.9387 172.095 37.072 172.681 37.072ZM179.397 38V29.6H180.533V36.272L186.149 29.6H187.157V38H186.021V31.312L180.421 38H179.397ZM190.413 38V29.6H191.565L195.373 36.048H194.893L198.765 29.6H199.821V38H198.781V30.896L198.989 30.992L195.373 36.976H194.861L191.213 30.928L191.453 30.88V38H190.413ZM206.51 38.08C205.699 38.08 204.968 37.8987 204.318 37.536C203.678 37.1627 203.171 36.656 202.798 36.016C202.424 35.3653 202.238 34.624 202.238 33.792C202.238 32.9493 202.424 32.208 202.798 31.568C203.171 30.928 203.678 30.4267 204.318 30.064C204.958 29.7013 205.688 29.52 206.51 29.52C207.342 29.52 208.078 29.7013 208.718 30.064C209.368 30.4267 209.875 30.928 210.238 31.568C210.611 32.208 210.798 32.9493 210.798 33.792C210.798 34.624 210.611 35.3653 210.238 36.016C209.875 36.656 209.368 37.1627 208.718 37.536C208.067 37.8987 207.331 38.08 206.51 38.08ZM206.51 37.072C207.118 37.072 207.656 36.9387 208.126 36.672C208.595 36.3947 208.963 36.0107 209.23 35.52C209.507 35.0187 209.646 34.4427 209.646 33.792C209.646 33.1307 209.507 32.5547 209.23 32.064C208.963 31.5733 208.595 31.1947 208.126 30.928C207.656 30.6507 207.123 30.512 206.526 30.512C205.928 30.512 205.395 30.6507 204.926 30.928C204.456 31.1947 204.083 31.5733 203.806 32.064C203.528 32.5547 203.39 33.1307 203.39 33.792C203.39 34.4427 203.528 35.0187 203.806 35.52C204.083 36.0107 204.456 36.3947 204.926 36.672C205.395 36.9387 205.923 37.072 206.51 37.072ZM216.745 38.08C215.913 38.08 215.167 37.8987 214.505 37.536C213.855 37.1627 213.343 36.656 212.969 36.016C212.596 35.3653 212.409 34.624 212.409 33.792C212.409 32.9493 212.596 32.208 212.969 31.568C213.343 30.928 213.855 30.4267 214.505 30.064C215.167 29.7013 215.913 29.52 216.745 29.52C217.46 29.52 218.105 29.6587 218.681 29.936C219.257 30.2133 219.711 30.6293 220.041 31.184L219.193 31.76C218.905 31.3333 218.548 31.0187 218.121 30.816C217.695 30.6133 217.231 30.512 216.729 30.512C216.132 30.512 215.593 30.6507 215.113 30.928C214.633 31.1947 214.255 31.5733 213.977 32.064C213.7 32.5547 213.561 33.1307 213.561 33.792C213.561 34.4533 213.7 35.0293 213.977 35.52C214.255 36.0107 214.633 36.3947 215.113 36.672C215.593 36.9387 216.132 37.072 216.729 37.072C217.231 37.072 217.695 36.9707 218.121 36.768C218.548 36.5653 218.905 36.256 219.193 35.84L220.041 36.416C219.711 36.96 219.257 37.376 218.681 37.664C218.105 37.9413 217.46 38.08 216.745 38.08ZM223.685 38V30.288L223.973 30.592H220.501V29.6H228.005V30.592H224.533L224.821 30.288V38H223.685ZM233.263 32.56C234.319 32.5707 235.119 32.8053 235.663 33.264C236.218 33.7227 236.495 34.384 236.495 35.248C236.495 36.144 236.197 36.832 235.599 37.312C235.013 37.792 234.159 38.0267 233.039 38.016L229.647 38V29.6H230.783V32.528L233.263 32.56ZM232.975 37.152C233.754 37.1627 234.341 37.008 234.735 36.688C235.141 36.3573 235.343 35.8773 235.343 35.248C235.343 34.6187 235.146 34.16 234.751 33.872C234.357 33.5733 233.765 33.4187 232.975 33.408L230.783 33.376V37.12L232.975 37.152Z" fill="black"/>
</svg>
