<svg width="293" height="64" viewBox="0 0 293 64" fill="none" xmlns="http://www.w3.org/2000/svg">
<rect width="293" height="64" rx="30" fill="#747652"/>
<rect width="293" height="64" rx="30" fill="black" fill-opacity="0.2"/>
<path d="M72.0749 38.096C71.2322 38.096 70.4482 37.9573 69.7229 37.68C69.0082 37.392 68.3842 36.992 67.8509 36.48C67.3282 35.9573 66.9176 35.3547 66.6189 34.672C66.3309 33.9787 66.1869 33.2213 66.1869 32.4C66.1869 31.5787 66.3309 30.8267 66.6189 30.144C66.9176 29.4507 67.3282 28.848 67.8509 28.336C68.3842 27.8133 69.0082 27.4133 69.7229 27.136C70.4376 26.848 71.2216 26.704 72.0749 26.704C72.9176 26.704 73.6962 26.848 74.4109 27.136C75.1256 27.4133 75.7442 27.808 76.2669 28.32C76.8002 28.832 77.2109 29.4347 77.4989 30.128C77.7976 30.8213 77.9469 31.5787 77.9469 32.4C77.9469 33.2213 77.7976 33.9787 77.4989 34.672C77.2109 35.3653 76.8002 35.968 76.2669 36.48C75.7442 36.992 75.1256 37.392 74.4109 37.68C73.6962 37.9573 72.9176 38.096 72.0749 38.096ZM72.0749 37.04C72.7469 37.04 73.3656 36.928 73.9309 36.704C74.5069 36.4693 75.0029 36.144 75.4189 35.728C75.8456 35.3013 76.1762 34.8107 76.4109 34.256C76.6456 33.6907 76.7629 33.072 76.7629 32.4C76.7629 31.728 76.6456 31.1147 76.4109 30.56C76.1762 29.9947 75.8456 29.504 75.4189 29.088C75.0029 28.6613 74.5069 28.336 73.9309 28.112C73.3656 27.8773 72.7469 27.76 72.0749 27.76C71.4029 27.76 70.7789 27.8773 70.2029 28.112C69.6269 28.336 69.1256 28.6613 68.6989 29.088C68.2829 29.504 67.9522 29.9947 67.7069 30.56C67.4722 31.1147 67.3549 31.728 67.3549 32.4C67.3549 33.0613 67.4722 33.6747 67.7069 34.24C67.9522 34.8053 68.2829 35.3013 68.6989 35.728C69.1256 36.144 69.6269 36.4693 70.2029 36.704C70.7789 36.928 71.4029 37.04 72.0749 37.04ZM84.0203 38.08C83.1883 38.08 82.4416 37.8987 81.7803 37.536C81.1296 37.1627 80.6176 36.656 80.2443 36.016C79.8709 35.3653 79.6843 34.624 79.6843 33.792C79.6843 32.9493 79.8709 32.208 80.2443 31.568C80.6176 30.928 81.1296 30.4267 81.7803 30.064C82.4416 29.7013 83.1883 29.52 84.0203 29.52C84.7349 29.52 85.3803 29.6587 85.9563 29.936C86.5323 30.2133 86.9856 30.6293 87.3163 31.184L86.4683 31.76C86.1803 31.3333 85.8229 31.0187 85.3963 30.816C84.9696 30.6133 84.5056 30.512 84.0043 30.512C83.4069 30.512 82.8683 30.6507 82.3883 30.928C81.9083 31.1947 81.5296 31.5733 81.2523 32.064C80.9749 32.5547 80.8363 33.1307 80.8363 33.792C80.8363 34.4533 80.9749 35.0293 81.2523 35.52C81.5296 36.0107 81.9083 36.3947 82.3883 36.672C82.8683 36.9387 83.4069 37.072 84.0043 37.072C84.5056 37.072 84.9696 36.9707 85.3963 36.768C85.8229 36.5653 86.1803 36.256 86.4683 35.84L87.3163 36.416C86.9856 36.96 86.5323 37.376 85.9563 37.664C85.3803 37.9413 84.7349 38.08 84.0203 38.08ZM90.9597 38V30.288L91.2477 30.592H87.7757V29.6H95.2797V30.592H91.8077L92.0957 30.288V38H90.9597ZM102.138 38V36.144L102.09 35.84V32.736C102.09 32.0213 101.887 31.472 101.482 31.088C101.087 30.704 100.495 30.512 99.7062 30.512C99.1622 30.512 98.6448 30.6027 98.1542 30.784C97.6635 30.9653 97.2475 31.2053 96.9062 31.504L96.3942 30.656C96.8208 30.2933 97.3328 30.016 97.9302 29.824C98.5275 29.6213 99.1568 29.52 99.8182 29.52C100.906 29.52 101.743 29.792 102.33 30.336C102.927 30.8693 103.226 31.6853 103.226 32.784V38H102.138ZM99.2422 38.08C98.6128 38.08 98.0635 37.9787 97.5942 37.776C97.1355 37.5627 96.7835 37.2747 96.5382 36.912C96.2928 36.5387 96.1702 36.112 96.1702 35.632C96.1702 35.1947 96.2715 34.8 96.4742 34.448C96.6875 34.0853 97.0288 33.7973 97.4982 33.584C97.9782 33.36 98.6182 33.248 99.4182 33.248H102.314V34.096H99.4502C98.6395 34.096 98.0742 34.24 97.7542 34.528C97.4448 34.816 97.2902 35.1733 97.2902 35.6C97.2902 36.08 97.4768 36.464 97.8502 36.752C98.2235 37.04 98.7462 37.184 99.4182 37.184C100.058 37.184 100.607 37.04 101.066 36.752C101.535 36.4533 101.877 36.0267 102.09 35.472L102.346 36.256C102.133 36.8107 101.759 37.2533 101.226 37.584C100.703 37.9147 100.042 38.08 99.2422 38.08ZM106.25 38V29.6H109.962C110.912 29.6 111.658 29.7813 112.202 30.144C112.757 30.5067 113.034 31.04 113.034 31.744C113.034 32.4267 112.773 32.9547 112.25 33.328C111.728 33.6907 111.04 33.872 110.186 33.872L110.41 33.536C111.413 33.536 112.149 33.7227 112.618 34.096C113.088 34.4693 113.322 35.008 113.322 35.712C113.322 36.4373 113.056 37.0027 112.522 37.408C112 37.8027 111.184 38 110.074 38H106.25ZM107.354 37.104H110.026C110.741 37.104 111.28 36.992 111.642 36.768C112.016 36.5333 112.202 36.16 112.202 35.648C112.202 35.136 112.037 34.7627 111.706 34.528C111.376 34.2933 110.853 34.176 110.138 34.176H107.354V37.104ZM107.354 33.328H109.882C110.533 33.328 111.029 33.2053 111.37 32.96C111.722 32.7147 111.898 32.3573 111.898 31.888C111.898 31.4187 111.722 31.0667 111.37 30.832C111.029 30.5973 110.533 30.48 109.882 30.48H107.354V33.328ZM115.985 38V29.6H117.121V36.272L122.737 29.6H123.745V38H122.609V31.312L117.009 38H115.985ZM128.6 38V30.288L128.888 30.592H125.416V29.6H132.92V30.592H129.448L129.736 30.288V38H128.6ZM138.179 32.56C139.235 32.5707 140.035 32.8053 140.579 33.264C141.133 33.7227 141.411 34.384 141.411 35.248C141.411 36.144 141.112 36.832 140.515 37.312C139.928 37.792 139.075 38.0267 137.955 38.016L134.563 38V29.6H135.699V32.528L138.179 32.56ZM137.891 37.152C138.669 37.1627 139.256 37.008 139.651 36.688C140.056 36.3573 140.259 35.8773 140.259 35.248C140.259 34.6187 140.061 34.16 139.667 33.872C139.272 33.5733 138.68 33.4187 137.891 33.408L135.699 33.376V37.12L137.891 37.152ZM150.022 38.096C149.414 38.096 148.811 38.0107 148.214 37.84C147.617 37.6693 147.089 37.408 146.63 37.056L146.998 36.208C147.403 36.5067 147.873 36.736 148.406 36.896C148.939 37.0453 149.467 37.12 149.99 37.12C150.513 37.1093 150.966 37.0347 151.35 36.896C151.734 36.7573 152.033 36.5653 152.246 36.32C152.459 36.0747 152.566 35.7973 152.566 35.488C152.566 35.04 152.363 34.6933 151.958 34.448C151.553 34.192 150.998 34.064 150.294 34.064H148.854V33.232H150.214C150.63 33.232 150.998 33.1787 151.318 33.072C151.638 32.9653 151.883 32.8107 152.054 32.608C152.235 32.4053 152.326 32.1653 152.326 31.888C152.326 31.5893 152.219 31.3333 152.006 31.12C151.803 30.9067 151.521 30.7467 151.158 30.64C150.795 30.5333 150.385 30.48 149.926 30.48C149.51 30.4907 149.078 30.5547 148.63 30.672C148.182 30.7787 147.739 30.944 147.302 31.168L146.982 30.288C147.473 30.032 147.958 29.84 148.438 29.712C148.929 29.5733 149.419 29.504 149.91 29.504C150.582 29.4827 151.185 29.5627 151.718 29.744C152.262 29.9253 152.694 30.1867 153.014 30.528C153.334 30.8587 153.494 31.2587 153.494 31.728C153.494 32.144 153.366 32.5067 153.11 32.816C152.854 33.1253 152.513 33.3653 152.086 33.536C151.659 33.7067 151.174 33.792 150.63 33.792L150.678 33.488C151.638 33.488 152.385 33.6747 152.918 34.048C153.462 34.4213 153.734 34.928 153.734 35.568C153.734 36.0693 153.569 36.512 153.238 36.896C152.907 37.2693 152.459 37.5627 151.894 37.776C151.339 37.9893 150.715 38.096 150.022 38.096ZM161.529 38V36.144L161.481 35.84V32.736C161.481 32.0213 161.278 31.472 160.873 31.088C160.478 30.704 159.886 30.512 159.097 30.512C158.553 30.512 158.035 30.6027 157.545 30.784C157.054 30.9653 156.638 31.2053 156.297 31.504L155.785 30.656C156.211 30.2933 156.723 30.016 157.321 29.824C157.918 29.6213 158.547 29.52 159.209 29.52C160.297 29.52 161.134 29.792 161.721 30.336C162.318 30.8693 162.617 31.6853 162.617 32.784V38H161.529ZM158.633 38.08C158.003 38.08 157.454 37.9787 156.985 37.776C156.526 37.5627 156.174 37.2747 155.929 36.912C155.683 36.5387 155.561 36.112 155.561 35.632C155.561 35.1947 155.662 34.8 155.865 34.448C156.078 34.0853 156.419 33.7973 156.889 33.584C157.369 33.36 158.009 33.248 158.809 33.248H161.705V34.096H158.841C158.03 34.096 157.465 34.24 157.145 34.528C156.835 34.816 156.681 35.1733 156.681 35.6C156.681 36.08 156.867 36.464 157.241 36.752C157.614 37.04 158.137 37.184 158.809 37.184C159.449 37.184 159.998 37.04 160.457 36.752C160.926 36.4533 161.267 36.0267 161.481 35.472L161.737 36.256C161.523 36.8107 161.15 37.2533 160.617 37.584C160.094 37.9147 159.433 38.08 158.633 38.08ZM171.065 38V34.976L171.273 35.216H168.425C167.348 35.216 166.505 34.9813 165.897 34.512C165.289 34.0427 164.985 33.36 164.985 32.464C164.985 31.504 165.31 30.7893 165.961 30.32C166.612 29.84 167.481 29.6 168.569 29.6H172.105V38H171.065ZM164.921 38L167.225 34.768H168.409L166.153 38H164.921ZM171.065 34.64V30.256L171.273 30.592H168.601C167.822 30.592 167.214 30.7413 166.777 31.04C166.35 31.3387 166.137 31.824 166.137 32.496C166.137 33.744 166.932 34.368 168.521 34.368H171.273L171.065 34.64ZM175.344 38V29.6H179.056C180.005 29.6 180.752 29.7813 181.296 30.144C181.851 30.5067 182.128 31.04 182.128 31.744C182.128 32.4267 181.867 32.9547 181.344 33.328C180.821 33.6907 180.133 33.872 179.28 33.872L179.504 33.536C180.507 33.536 181.243 33.7227 181.712 34.096C182.181 34.4693 182.416 35.008 182.416 35.712C182.416 36.4373 182.149 37.0027 181.616 37.408C181.093 37.8027 180.277 38 179.168 38H175.344ZM176.448 37.104H179.12C179.835 37.104 180.373 36.992 180.736 36.768C181.109 36.5333 181.296 36.16 181.296 35.648C181.296 35.136 181.131 34.7627 180.8 34.528C180.469 34.2933 179.947 34.176 179.232 34.176H176.448V37.104ZM176.448 33.328H178.976C179.627 33.328 180.123 33.2053 180.464 32.96C180.816 32.7147 180.992 32.3573 180.992 31.888C180.992 31.4187 180.816 31.0667 180.464 30.832C180.123 30.5973 179.627 30.48 178.976 30.48H176.448V33.328ZM191.238 38L187.782 33.84L188.726 33.28L192.582 38H191.238ZM185.078 38V29.6H186.214V38H185.078ZM185.862 34.256V33.28H188.566V34.256H185.862ZM188.822 33.92L187.766 33.76L191.11 29.6H192.342L188.822 33.92ZM194.035 41.184C193.64 41.184 193.262 41.12 192.899 40.992C192.547 40.864 192.243 40.672 191.987 40.416L192.515 39.568C192.728 39.7707 192.958 39.9253 193.203 40.032C193.459 40.1493 193.742 40.208 194.051 40.208C194.424 40.208 194.744 40.1013 195.011 39.888C195.288 39.6853 195.55 39.3227 195.795 38.8L196.339 37.568L196.467 37.392L199.923 29.6H201.043L196.835 39.008C196.6 39.552 196.339 39.984 196.051 40.304C195.774 40.624 195.47 40.848 195.139 40.976C194.808 41.1147 194.44 41.184 194.035 41.184ZM196.275 38.24L192.403 29.6H193.587L197.011 37.312L196.275 38.24Z" fill="white"/>
<path d="M227.725 39.2248L216.851 27.6213" stroke="white" stroke-width="0.729799" stroke-linecap="round" stroke-linejoin="round"/>
<path d="M227.725 28.9014V39.2251L217.403 39.2236" stroke="white" stroke-width="0.729799" stroke-linecap="round" stroke-linejoin="round"/>
</svg>
