<svg width="504" height="64" viewBox="0 0 504 64" fill="none" xmlns="http://www.w3.org/2000/svg">
<rect width="504" height="64" rx="30" fill="#747652"/>
<rect width="504" height="64" rx="30" fill="black" fill-opacity="0.2"/>
<path d="M213.8 38.096C212.957 38.096 212.173 37.9573 211.448 37.68C210.733 37.392 210.109 36.992 209.576 36.48C209.053 35.9573 208.643 35.3547 208.344 34.672C208.056 33.9787 207.912 33.2213 207.912 32.4C207.912 31.5787 208.056 30.8267 208.344 30.144C208.643 29.4507 209.053 28.848 209.576 28.336C210.109 27.8133 210.733 27.4133 211.448 27.136C212.163 26.848 212.947 26.704 213.8 26.704C214.643 26.704 215.421 26.848 216.136 27.136C216.851 27.4133 217.469 27.808 217.992 28.32C218.525 28.832 218.936 29.4347 219.224 30.128C219.523 30.8213 219.672 31.5787 219.672 32.4C219.672 33.2213 219.523 33.9787 219.224 34.672C218.936 35.3653 218.525 35.968 217.992 36.48C217.469 36.992 216.851 37.392 216.136 37.68C215.421 37.9573 214.643 38.096 213.8 38.096ZM213.8 37.04C214.472 37.04 215.091 36.928 215.656 36.704C216.232 36.4693 216.728 36.144 217.144 35.728C217.571 35.3013 217.901 34.8107 218.136 34.256C218.371 33.6907 218.488 33.072 218.488 32.4C218.488 31.728 218.371 31.1147 218.136 30.56C217.901 29.9947 217.571 29.504 217.144 29.088C216.728 28.6613 216.232 28.336 215.656 28.112C215.091 27.8773 214.472 27.76 213.8 27.76C213.128 27.76 212.504 27.8773 211.928 28.112C211.352 28.336 210.851 28.6613 210.424 29.088C210.008 29.504 209.677 29.9947 209.432 30.56C209.197 31.1147 209.08 31.728 209.08 32.4C209.08 33.0613 209.197 33.6747 209.432 34.24C209.677 34.8053 210.008 35.3013 210.424 35.728C210.851 36.144 211.352 36.4693 211.928 36.704C212.504 36.928 213.128 37.04 213.8 37.04ZM223.591 38V30.288L223.879 30.592H220.407V29.6H227.911V30.592H224.439L224.727 30.288V38H223.591ZM229.554 38V29.6H237.106V38H235.97V30.288L236.258 30.592H230.402L230.69 30.288V38H229.554ZM244.671 38.08C243.945 38.08 243.289 37.9147 242.703 37.584C242.116 37.2427 241.647 36.7573 241.295 36.128C240.953 35.488 240.783 34.7093 240.783 33.792C240.783 32.8747 240.953 32.1013 241.295 31.472C241.636 30.832 242.1 30.3467 242.687 30.016C243.273 29.6853 243.935 29.52 244.671 29.52C245.471 29.52 246.185 29.7013 246.815 30.064C247.455 30.416 247.956 30.9173 248.319 31.568C248.681 32.208 248.863 32.9493 248.863 33.792C248.863 34.6453 248.681 35.392 248.319 36.032C247.956 36.672 247.455 37.1733 246.815 37.536C246.185 37.8987 245.471 38.08 244.671 38.08ZM240.335 41.104V29.6H241.423V32.128L241.311 33.808L241.471 35.504V41.104H240.335ZM244.591 37.072C245.188 37.072 245.721 36.9387 246.191 36.672C246.66 36.3947 247.033 36.0107 247.311 35.52C247.588 35.0187 247.727 34.4427 247.727 33.792C247.727 33.1413 247.588 32.5707 247.311 32.08C247.033 31.5893 246.66 31.2053 246.191 30.928C245.721 30.6507 245.188 30.512 244.591 30.512C243.993 30.512 243.455 30.6507 242.975 30.928C242.505 31.2053 242.132 31.5893 241.855 32.08C241.588 32.5707 241.455 33.1413 241.455 33.792C241.455 34.4427 241.588 35.0187 241.855 35.52C242.132 36.0107 242.505 36.3947 242.975 36.672C243.455 36.9387 243.993 37.072 244.591 37.072ZM256.473 38V36.144L256.425 35.84V32.736C256.425 32.0213 256.222 31.472 255.817 31.088C255.422 30.704 254.83 30.512 254.041 30.512C253.497 30.512 252.979 30.6027 252.489 30.784C251.998 30.9653 251.582 31.2053 251.241 31.504L250.729 30.656C251.155 30.2933 251.667 30.016 252.265 29.824C252.862 29.6213 253.491 29.52 254.153 29.52C255.241 29.52 256.078 29.792 256.665 30.336C257.262 30.8693 257.561 31.6853 257.561 32.784V38H256.473ZM253.577 38.08C252.947 38.08 252.398 37.9787 251.929 37.776C251.47 37.5627 251.118 37.2747 250.873 36.912C250.627 36.5387 250.505 36.112 250.505 35.632C250.505 35.1947 250.606 34.8 250.809 34.448C251.022 34.0853 251.363 33.7973 251.833 33.584C252.313 33.36 252.953 33.248 253.753 33.248H256.649V34.096H253.785C252.974 34.096 252.409 34.24 252.089 34.528C251.779 34.816 251.625 35.1733 251.625 35.6C251.625 36.08 251.811 36.464 252.185 36.752C252.558 37.04 253.081 37.184 253.753 37.184C254.393 37.184 254.942 37.04 255.401 36.752C255.87 36.4533 256.211 36.0267 256.425 35.472L256.681 36.256C256.467 36.8107 256.094 37.2533 255.561 37.584C255.038 37.9147 254.377 38.08 253.577 38.08ZM260.585 38V29.6H264.297C265.246 29.6 265.993 29.7813 266.537 30.144C267.091 30.5067 267.369 31.04 267.369 31.744C267.369 32.4267 267.107 32.9547 266.585 33.328C266.062 33.6907 265.374 33.872 264.521 33.872L264.745 33.536C265.747 33.536 266.483 33.7227 266.953 34.096C267.422 34.4693 267.657 35.008 267.657 35.712C267.657 36.4373 267.39 37.0027 266.857 37.408C266.334 37.8027 265.518 38 264.409 38H260.585ZM261.689 37.104H264.361C265.075 37.104 265.614 36.992 265.977 36.768C266.35 36.5333 266.537 36.16 266.537 35.648C266.537 35.136 266.371 34.7627 266.041 34.528C265.71 34.2933 265.187 34.176 264.473 34.176H261.689V37.104ZM261.689 33.328H264.217C264.867 33.328 265.363 33.2053 265.705 32.96C266.057 32.7147 266.233 32.3573 266.233 31.888C266.233 31.4187 266.057 31.0667 265.705 30.832C265.363 30.5973 264.867 30.48 264.217 30.48H261.689V33.328ZM270.319 38V29.6H271.455V36.272L277.071 29.6H278.079V38H276.943V31.312L271.343 38H270.319ZM282.935 38V30.288L283.223 30.592H279.751V29.6H287.255V30.592H283.783L284.071 30.288V38H282.935ZM292.513 32.56C293.569 32.5707 294.369 32.8053 294.913 33.264C295.468 33.7227 295.745 34.384 295.745 35.248C295.745 36.144 295.447 36.832 294.849 37.312C294.263 37.792 293.409 38.0267 292.289 38.016L288.897 38V29.6H290.033V32.528L292.513 32.56ZM292.225 37.152C293.004 37.1627 293.591 37.008 293.985 36.688C294.391 36.3573 294.593 35.8773 294.593 35.248C294.593 34.6187 294.396 34.16 294.001 33.872C293.607 33.5733 293.015 33.4187 292.225 33.408L290.033 33.376V37.12L292.225 37.152Z" fill="white"/>
</svg>
