<svg width="234" height="41" viewBox="0 0 234 41" fill="none" xmlns="http://www.w3.org/2000/svg">
<rect y="0.5" width="234" height="40" rx="20" fill="white"/>
<path d="M65.3 26.596C64.4573 26.596 63.6733 26.4573 62.948 26.18C62.2333 25.892 61.6093 25.492 61.076 24.98C60.5533 24.4573 60.1427 23.8547 59.844 23.172C59.556 22.4787 59.412 21.7213 59.412 20.9C59.412 20.0787 59.556 19.3267 59.844 18.644C60.1427 17.9507 60.5533 17.348 61.076 16.836C61.6093 16.3133 62.2333 15.9133 62.948 15.636C63.6627 15.348 64.4467 15.204 65.3 15.204C66.1427 15.204 66.9213 15.348 67.636 15.636C68.3507 15.9133 68.9693 16.308 69.492 16.82C70.0253 17.332 70.436 17.9347 70.724 18.628C71.0227 19.3213 71.172 20.0787 71.172 20.9C71.172 21.7213 71.0227 22.4787 70.724 23.172C70.436 23.8653 70.0253 24.468 69.492 24.98C68.9693 25.492 68.3507 25.892 67.636 26.18C66.9213 26.4573 66.1427 26.596 65.3 26.596ZM65.3 25.54C65.972 25.54 66.5907 25.428 67.156 25.204C67.732 24.9693 68.228 24.644 68.644 24.228C69.0707 23.8013 69.4013 23.3107 69.636 22.756C69.8707 22.1907 69.988 21.572 69.988 20.9C69.988 20.228 69.8707 19.6147 69.636 19.06C69.4013 18.4947 69.0707 18.004 68.644 17.588C68.228 17.1613 67.732 16.836 67.156 16.612C66.5907 16.3773 65.972 16.26 65.3 16.26C64.628 16.26 64.004 16.3773 63.428 16.612C62.852 16.836 62.3507 17.1613 61.924 17.588C61.508 18.004 61.1773 18.4947 60.932 19.06C60.6973 19.6147 60.58 20.228 60.58 20.9C60.58 21.5613 60.6973 22.1747 60.932 22.74C61.1773 23.3053 61.508 23.8013 61.924 24.228C62.3507 24.644 62.852 24.9693 63.428 25.204C64.004 25.428 64.628 25.54 65.3 25.54ZM79.2354 25.956V19.092H75.1874L75.0914 20.964C75.07 21.5293 75.0327 22.084 74.9794 22.628C74.9367 23.172 74.8567 23.6733 74.7394 24.132C74.6327 24.58 74.478 24.948 74.2754 25.236C74.0727 25.5133 73.8114 25.6733 73.4914 25.716L72.3554 25.508C72.686 25.5187 72.958 25.4013 73.1714 25.156C73.3847 24.9 73.55 24.5533 73.6674 24.116C73.7847 23.6787 73.87 23.1827 73.9234 22.628C73.9767 22.0627 74.0194 21.4867 74.0514 20.9L74.1634 18.1H80.3714V25.956H79.2354ZM72.0034 28.532V25.508H81.6834V28.532H80.6114V26.5H73.0754V28.532H72.0034ZM83.8973 26.5V18.1H85.0333V21.812H90.3293V18.1H91.4653V26.5H90.3293V22.788H85.0333V26.5H83.8973ZM98.1501 26.58C97.3395 26.58 96.6088 26.3987 95.9581 26.036C95.3181 25.6627 94.8115 25.156 94.4381 24.516C94.0648 23.8653 93.8781 23.124 93.8781 22.292C93.8781 21.4493 94.0648 20.708 94.4381 20.068C94.8115 19.428 95.3181 18.9267 95.9581 18.564C96.5981 18.2013 97.3288 18.02 98.1501 18.02C98.9821 18.02 99.7181 18.2013 100.358 18.564C101.009 18.9267 101.515 19.428 101.878 20.068C102.251 20.708 102.438 21.4493 102.438 22.292C102.438 23.124 102.251 23.8653 101.878 24.516C101.515 25.156 101.009 25.6627 100.358 26.036C99.7075 26.3987 98.9715 26.58 98.1501 26.58ZM98.1501 25.572C98.7581 25.572 99.2968 25.4387 99.7661 25.172C100.235 24.8947 100.603 24.5107 100.87 24.02C101.147 23.5187 101.286 22.9427 101.286 22.292C101.286 21.6307 101.147 21.0547 100.87 20.564C100.603 20.0733 100.235 19.6947 99.7661 19.428C99.2968 19.1507 98.7635 19.012 98.1661 19.012C97.5688 19.012 97.0355 19.1507 96.5661 19.428C96.0968 19.6947 95.7235 20.0733 95.4461 20.564C95.1688 21.0547 95.0301 21.6307 95.0301 22.292C95.0301 22.9427 95.1688 23.5187 95.4461 24.02C95.7235 24.5107 96.0968 24.8947 96.5661 25.172C97.0355 25.4387 97.5635 25.572 98.1501 25.572ZM105.972 22.66V21.796H110.852V22.66H105.972ZM107.092 18.02C107.945 18.02 108.708 18.2067 109.38 18.58C110.052 18.9427 110.58 19.4493 110.964 20.1C111.358 20.74 111.556 21.4707 111.556 22.292C111.556 23.1133 111.358 23.8493 110.964 24.5C110.58 25.1507 110.052 25.6627 109.38 26.036C108.708 26.4093 107.945 26.596 107.092 26.596C106.398 26.596 105.753 26.4893 105.156 26.276C104.569 26.052 104.073 25.732 103.668 25.316L104.34 24.644C104.702 24.9853 105.113 25.2413 105.572 25.412C106.03 25.572 106.521 25.652 107.044 25.652C107.705 25.652 108.292 25.508 108.804 25.22C109.326 24.9213 109.737 24.5213 110.036 24.02C110.334 23.508 110.484 22.932 110.484 22.292C110.484 21.652 110.334 21.0813 110.036 20.58C109.737 20.068 109.326 19.668 108.804 19.38C108.292 19.092 107.705 18.948 107.044 18.948C106.521 18.948 106.03 19.0333 105.572 19.204C105.113 19.364 104.702 19.6147 104.34 19.956L103.668 19.3C104.073 18.8733 104.569 18.5533 105.156 18.34C105.753 18.1267 106.398 18.02 107.092 18.02ZM115.232 26.5V18.788L115.52 19.092H112.048V18.1H119.552V19.092H116.08L116.368 18.788V26.5H115.232ZM126.41 26.5V24.644L126.362 24.34V21.236C126.362 20.5213 126.159 19.972 125.754 19.588C125.359 19.204 124.767 19.012 123.978 19.012C123.434 19.012 122.917 19.1027 122.426 19.284C121.935 19.4653 121.519 19.7053 121.178 20.004L120.666 19.156C121.093 18.7933 121.605 18.516 122.202 18.324C122.799 18.1213 123.429 18.02 124.09 18.02C125.178 18.02 126.015 18.292 126.602 18.836C127.199 19.3693 127.498 20.1853 127.498 21.284V26.5H126.41ZM123.514 26.58C122.885 26.58 122.335 26.4787 121.866 26.276C121.407 26.0627 121.055 25.7747 120.81 25.412C120.565 25.0387 120.442 24.612 120.442 24.132C120.442 23.6947 120.543 23.3 120.746 22.948C120.959 22.5853 121.301 22.2973 121.77 22.084C122.25 21.86 122.89 21.748 123.69 21.748H126.586V22.596H123.722C122.911 22.596 122.346 22.74 122.026 23.028C121.717 23.316 121.562 23.6733 121.562 24.1C121.562 24.58 121.749 24.964 122.122 25.252C122.495 25.54 123.018 25.684 123.69 25.684C124.33 25.684 124.879 25.54 125.338 25.252C125.807 24.9533 126.149 24.5267 126.362 23.972L126.618 24.756C126.405 25.3107 126.031 25.7533 125.498 26.084C124.975 26.4147 124.314 26.58 123.514 26.58ZM140.49 26.5L137.61 22.34L138.554 21.78L141.85 26.5H140.49ZM135.722 22.756V21.78H138.378V22.756H135.722ZM138.666 22.42L137.578 22.26L140.378 18.1H141.61L138.666 22.42ZM130.538 26.5H129.178L132.474 21.78L133.402 22.34L130.538 26.5ZM136.074 26.5H134.938V18.1H136.074V26.5ZM135.29 22.756H132.65V21.78H135.29V22.756ZM132.378 22.42L129.418 18.1H130.65L133.434 22.26L132.378 22.42ZM143.741 26.5V18.1H144.877V21.812H150.173V18.1H151.309V26.5H150.173V22.788H144.877V26.5H143.741ZM162.73 26.5V18.1H163.866V26.5H162.73ZM158.074 21.06C159.13 21.0707 159.935 21.3053 160.49 21.764C161.045 22.2227 161.322 22.884 161.322 23.748C161.322 24.644 161.023 25.332 160.426 25.812C159.829 26.292 158.975 26.5267 157.866 26.516L154.538 26.5V18.1H155.674V21.028L158.074 21.06ZM157.786 25.652C158.575 25.6627 159.167 25.508 159.562 25.188C159.967 24.8573 160.17 24.3773 160.17 23.748C160.17 23.1187 159.973 22.66 159.578 22.372C159.183 22.0733 158.586 21.9187 157.786 21.908L155.674 21.876V25.62L157.786 25.652ZM170.7 26.58C169.826 26.58 169.058 26.3987 168.396 26.036C167.735 25.6627 167.218 25.156 166.844 24.516C166.471 23.8653 166.284 23.124 166.284 22.292C166.284 21.46 166.46 20.724 166.812 20.084C167.175 19.444 167.666 18.9427 168.284 18.58C168.914 18.2067 169.618 18.02 170.396 18.02C171.186 18.02 171.884 18.2013 172.492 18.564C173.111 18.916 173.596 19.4173 173.948 20.068C174.3 20.708 174.476 21.4493 174.476 22.292C174.476 22.3453 174.471 22.404 174.46 22.468C174.46 22.5213 174.46 22.58 174.46 22.644H167.148V21.796H173.852L173.404 22.132C173.404 21.524 173.271 20.9853 173.004 20.516C172.748 20.036 172.396 19.6627 171.948 19.396C171.5 19.1293 170.983 18.996 170.396 18.996C169.82 18.996 169.303 19.1293 168.844 19.396C168.386 19.6627 168.028 20.036 167.772 20.516C167.516 20.996 167.388 21.5453 167.388 22.164V22.34C167.388 22.98 167.527 23.5453 167.804 24.036C168.092 24.516 168.487 24.8947 168.988 25.172C169.5 25.4387 170.082 25.572 170.732 25.572C171.244 25.572 171.719 25.4813 172.156 25.3C172.604 25.1187 172.988 24.8413 173.308 24.468L173.948 25.204C173.575 25.652 173.106 25.9933 172.54 26.228C171.986 26.4627 171.372 26.58 170.7 26.58Z" fill="black"/>
</svg>
