<svg width="234" height="41" viewBox="0 0 234 41" fill="none" xmlns="http://www.w3.org/2000/svg">
<rect y="0.5" width="234" height="40" rx="20" fill="white"/>
<path d="M70.828 25.94V16.324H65.468L65.372 19.044C65.34 19.8867 65.2867 20.6973 65.212 21.476C65.148 22.244 65.0413 22.9373 64.892 23.556C64.7533 24.164 64.5613 24.66 64.316 25.044C64.0813 25.428 63.772 25.652 63.388 25.716L62.092 25.476C62.5187 25.4973 62.8707 25.3427 63.148 25.012C63.436 24.6813 63.6547 24.2173 63.804 23.62C63.964 23.0227 64.0813 22.324 64.156 21.524C64.2307 20.724 64.284 19.86 64.316 18.932L64.444 15.3H71.996V25.94H70.828ZM61.676 29.012L61.692 25.476H73.676V29.012H72.572V26.5H62.796L62.78 29.012H61.676ZM75.8191 26.5V18.1H79.5311C80.4805 18.1 81.2271 18.2813 81.7711 18.644C82.3258 19.0067 82.6031 19.54 82.6031 20.244C82.6031 20.9267 82.3418 21.4547 81.8191 21.828C81.2965 22.1907 80.6085 22.372 79.7551 22.372L79.9791 22.036C80.9818 22.036 81.7178 22.2227 82.1871 22.596C82.6565 22.9693 82.8911 23.508 82.8911 24.212C82.8911 24.9373 82.6245 25.5027 82.0911 25.908C81.5685 26.3027 80.7525 26.5 79.6431 26.5H75.8191ZM76.9231 25.604H79.5951C80.3098 25.604 80.8485 25.492 81.2111 25.268C81.5845 25.0333 81.7711 24.66 81.7711 24.148C81.7711 23.636 81.6058 23.2627 81.2751 23.028C80.9445 22.7933 80.4218 22.676 79.7071 22.676H76.9231V25.604ZM76.9231 21.828H79.4511C80.1018 21.828 80.5978 21.7053 80.9391 21.46C81.2911 21.2147 81.4671 20.8573 81.4671 20.388C81.4671 19.9187 81.2911 19.5667 80.9391 19.332C80.5978 19.0973 80.1018 18.98 79.4511 18.98H76.9231V21.828ZM85.6975 29.684C85.3028 29.684 84.9242 29.62 84.5615 29.492C84.2095 29.364 83.9055 29.172 83.6495 28.916L84.1775 28.068C84.3908 28.2707 84.6202 28.4253 84.8655 28.532C85.1215 28.6493 85.4042 28.708 85.7135 28.708C86.0868 28.708 86.4068 28.6013 86.6735 28.388C86.9508 28.1853 87.2122 27.8227 87.4575 27.3L88.0015 26.068L88.1295 25.892L91.5855 18.1H92.7055L88.4975 27.508C88.2628 28.052 88.0015 28.484 87.7135 28.804C87.4362 29.124 87.1322 29.348 86.8015 29.476C86.4708 29.6147 86.1028 29.684 85.6975 29.684ZM87.9375 26.74L84.0655 18.1H85.2495L88.6735 25.812L87.9375 26.74ZM92.615 26.5L96.167 21.892L96.151 22.452L92.775 18.1H94.055L96.823 21.7L96.343 21.684L99.111 18.1H100.359L96.951 22.5L96.967 21.892L100.551 26.5H99.255L96.327 22.66L96.775 22.724L93.895 26.5H92.615ZM103.097 22.66V21.796H107.977V22.66H103.097ZM104.217 18.02C105.07 18.02 105.833 18.2067 106.505 18.58C107.177 18.9427 107.705 19.4493 108.089 20.1C108.483 20.74 108.681 21.4707 108.681 22.292C108.681 23.1133 108.483 23.8493 108.089 24.5C107.705 25.1507 107.177 25.6627 106.505 26.036C105.833 26.4093 105.07 26.596 104.217 26.596C103.523 26.596 102.878 26.4893 102.281 26.276C101.694 26.052 101.198 25.732 100.793 25.316L101.465 24.644C101.827 24.9853 102.238 25.2413 102.697 25.412C103.155 25.572 103.646 25.652 104.169 25.652C104.83 25.652 105.417 25.508 105.929 25.22C106.451 24.9213 106.862 24.5213 107.161 24.02C107.459 23.508 107.609 22.932 107.609 22.292C107.609 21.652 107.459 21.0813 107.161 20.58C106.862 20.068 106.451 19.668 105.929 19.38C105.417 19.092 104.83 18.948 104.169 18.948C103.646 18.948 103.155 19.0333 102.697 19.204C102.238 19.364 101.827 19.6147 101.465 19.956L100.793 19.3C101.198 18.8733 101.694 18.5533 102.281 18.34C102.878 18.1267 103.523 18.02 104.217 18.02ZM112.357 26.5V18.788L112.645 19.092H109.173V18.1H116.677V19.092H113.205L113.493 18.788V26.5H112.357ZM123.535 26.5V24.644L123.487 24.34V21.236C123.487 20.5213 123.284 19.972 122.879 19.588C122.484 19.204 121.892 19.012 121.103 19.012C120.559 19.012 120.042 19.1027 119.551 19.284C119.06 19.4653 118.644 19.7053 118.303 20.004L117.791 19.156C118.218 18.7933 118.73 18.516 119.327 18.324C119.924 18.1213 120.554 18.02 121.215 18.02C122.303 18.02 123.14 18.292 123.727 18.836C124.324 19.3693 124.623 20.1853 124.623 21.284V26.5H123.535ZM120.639 26.58C120.01 26.58 119.46 26.4787 118.991 26.276C118.532 26.0627 118.18 25.7747 117.935 25.412C117.69 25.0387 117.567 24.612 117.567 24.132C117.567 23.6947 117.668 23.3 117.871 22.948C118.084 22.5853 118.426 22.2973 118.895 22.084C119.375 21.86 120.015 21.748 120.815 21.748H123.711V22.596H120.847C120.036 22.596 119.471 22.74 119.151 23.028C118.842 23.316 118.687 23.6733 118.687 24.1C118.687 24.58 118.874 24.964 119.247 25.252C119.62 25.54 120.143 25.684 120.815 25.684C121.455 25.684 122.004 25.54 122.463 25.252C122.932 24.9533 123.274 24.5267 123.487 23.972L123.743 24.756C123.53 25.3107 123.156 25.7533 122.623 26.084C122.1 26.4147 121.439 26.58 120.639 26.58ZM137.615 26.5L134.735 22.34L135.679 21.78L138.975 26.5H137.615ZM132.847 22.756V21.78H135.503V22.756H132.847ZM135.791 22.42L134.703 22.26L137.503 18.1H138.735L135.791 22.42ZM127.663 26.5H126.303L129.599 21.78L130.527 22.34L127.663 26.5ZM133.199 26.5H132.063V18.1H133.199V26.5ZM132.415 22.756H129.775V21.78H132.415V22.756ZM129.503 22.42L126.543 18.1H127.775L130.559 22.26L129.503 22.42ZM140.866 26.5V18.1H142.002V21.812H147.298V18.1H148.434V26.5H147.298V22.788H142.002V26.5H140.866ZM159.855 26.5V18.1H160.991V26.5H159.855ZM155.199 21.06C156.255 21.0707 157.06 21.3053 157.615 21.764C158.17 22.2227 158.447 22.884 158.447 23.748C158.447 24.644 158.148 25.332 157.551 25.812C156.954 26.292 156.1 26.5267 154.991 26.516L151.663 26.5V18.1H152.799V21.028L155.199 21.06ZM154.911 25.652C155.7 25.6627 156.292 25.508 156.687 25.188C157.092 24.8573 157.295 24.3773 157.295 23.748C157.295 23.1187 157.098 22.66 156.703 22.372C156.308 22.0733 155.711 21.9187 154.911 21.908L152.799 21.876V25.62L154.911 25.652ZM167.825 26.58C166.951 26.58 166.183 26.3987 165.521 26.036C164.86 25.6627 164.343 25.156 163.969 24.516C163.596 23.8653 163.409 23.124 163.409 22.292C163.409 21.46 163.585 20.724 163.937 20.084C164.3 19.444 164.791 18.9427 165.409 18.58C166.039 18.2067 166.743 18.02 167.521 18.02C168.311 18.02 169.009 18.2013 169.617 18.564C170.236 18.916 170.721 19.4173 171.073 20.068C171.425 20.708 171.601 21.4493 171.601 22.292C171.601 22.3453 171.596 22.404 171.585 22.468C171.585 22.5213 171.585 22.58 171.585 22.644H164.273V21.796H170.977L170.529 22.132C170.529 21.524 170.396 20.9853 170.129 20.516C169.873 20.036 169.521 19.6627 169.073 19.396C168.625 19.1293 168.108 18.996 167.521 18.996C166.945 18.996 166.428 19.1293 165.969 19.396C165.511 19.6627 165.153 20.036 164.897 20.516C164.641 20.996 164.513 21.5453 164.513 22.164V22.34C164.513 22.98 164.652 23.5453 164.929 24.036C165.217 24.516 165.612 24.8947 166.113 25.172C166.625 25.4387 167.207 25.572 167.857 25.572C168.369 25.572 168.844 25.4813 169.281 25.3C169.729 25.1187 170.113 24.8413 170.433 24.468L171.073 25.204C170.7 25.652 170.231 25.9933 169.665 26.228C169.111 26.4627 168.497 26.58 167.825 26.58Z" fill="black"/>
</svg>
