<svg width="177" height="182" viewBox="0 0 177 182" fill="none" xmlns="http://www.w3.org/2000/svg">
<rect y="0.293945" width="177" height="181.538" rx="24.9615" fill="#747652"/>
<rect y="0.293945" width="177" height="181.538" rx="24.9615" fill="black" fill-opacity="0.2"/>
<path d="M33.8707 78.4382V52.0382L35.5907 53.9182H27.5507V50.4382H37.8307V78.4382H33.8707ZM48.7954 78.4382L60.6754 52.1182L61.7154 53.9182H45.0754L47.0754 51.9582V58.9182H43.2354V50.4382H64.3554V53.1582L53.0354 78.4382H48.7954ZM73.9095 73.1982V55.6782H77.2695V73.1982H73.9095ZM66.6295 66.0382V62.8782H84.5495V66.0382H66.6295Z" fill="white"/>
<path d="M27.3107 118.672L27.3907 117.696C27.4654 117.707 27.5347 117.723 27.5987 117.744C27.6734 117.755 27.7374 117.76 27.7907 117.76C28.132 117.76 28.404 117.632 28.6067 117.376C28.82 117.12 28.98 116.779 29.0867 116.352C29.1934 115.926 29.268 115.446 29.3107 114.912C29.3534 114.368 29.3907 113.824 29.4227 113.28L29.5667 110.288H35.7267V118.688H34.5907V110.944L34.8787 111.28H30.3027L30.5747 110.928L30.4467 113.36C30.4147 114.086 30.356 114.779 30.2707 115.44C30.196 116.102 30.0734 116.683 29.9027 117.184C29.7427 117.686 29.5187 118.08 29.2307 118.368C28.9427 118.646 28.5747 118.784 28.1267 118.784C27.9987 118.784 27.8654 118.774 27.7267 118.752C27.5987 118.731 27.46 118.704 27.3107 118.672ZM42.5561 118.768C41.6814 118.768 40.9134 118.587 40.2521 118.224C39.5908 117.851 39.0734 117.344 38.7001 116.704C38.3268 116.054 38.1401 115.312 38.1401 114.48C38.1401 113.648 38.3161 112.912 38.6681 112.272C39.0308 111.632 39.5214 111.131 40.1401 110.768C40.7694 110.395 41.4734 110.208 42.2521 110.208C43.0414 110.208 43.7401 110.39 44.3481 110.752C44.9668 111.104 45.4521 111.606 45.8041 112.256C46.1561 112.896 46.3321 113.638 46.3321 114.48C46.3321 114.534 46.3268 114.592 46.3161 114.656C46.3161 114.71 46.3161 114.768 46.3161 114.832H39.0041V113.984H45.7081L45.2601 114.32C45.2601 113.712 45.1268 113.174 44.8601 112.704C44.6041 112.224 44.2521 111.851 43.8041 111.584C43.3561 111.318 42.8388 111.184 42.2521 111.184C41.6761 111.184 41.1588 111.318 40.7001 111.584C40.2414 111.851 39.8841 112.224 39.6281 112.704C39.3721 113.184 39.2441 113.734 39.2441 114.352V114.528C39.2441 115.168 39.3828 115.734 39.6601 116.224C39.9481 116.704 40.3428 117.083 40.8441 117.36C41.3561 117.627 41.9374 117.76 42.5881 117.76C43.1001 117.76 43.5748 117.67 44.0121 117.488C44.4601 117.307 44.8441 117.03 45.1641 116.656L45.8041 117.392C45.4308 117.84 44.9614 118.182 44.3961 118.416C43.8414 118.651 43.2281 118.768 42.5561 118.768ZM50.0717 118.688V110.976L50.3597 111.28H46.8877V110.288H54.3917V111.28H50.9197L51.2077 110.976V118.688H50.0717ZM63.7417 118.768C62.9097 118.768 62.163 118.587 61.5017 118.224C60.851 117.851 60.339 117.344 59.9657 116.704C59.5924 116.054 59.4057 115.312 59.4057 114.48C59.4057 113.638 59.5924 112.896 59.9657 112.256C60.339 111.616 60.851 111.115 61.5017 110.752C62.163 110.39 62.9097 110.208 63.7417 110.208C64.4564 110.208 65.1017 110.347 65.6777 110.624C66.2537 110.902 66.707 111.318 67.0377 111.872L66.1897 112.448C65.9017 112.022 65.5444 111.707 65.1177 111.504C64.691 111.302 64.227 111.2 63.7257 111.2C63.1284 111.2 62.5897 111.339 62.1097 111.616C61.6297 111.883 61.251 112.262 60.9737 112.752C60.6964 113.243 60.5577 113.819 60.5577 114.48C60.5577 115.142 60.6964 115.718 60.9737 116.208C61.251 116.699 61.6297 117.083 62.1097 117.36C62.5897 117.627 63.1284 117.76 63.7257 117.76C64.227 117.76 64.691 117.659 65.1177 117.456C65.5444 117.254 65.9017 116.944 66.1897 116.528L67.0377 117.104C66.707 117.648 66.2537 118.064 65.6777 118.352C65.1017 118.63 64.4564 118.768 63.7417 118.768ZM70.6811 118.688V110.976L70.9691 111.28H67.4971V110.288H75.0011V111.28H71.5291L71.8171 110.976V118.688H70.6811ZM80.9796 118.768C80.2543 118.768 79.5983 118.603 79.0116 118.272C78.4249 117.931 77.9556 117.446 77.6036 116.816C77.2623 116.176 77.0916 115.398 77.0916 114.48C77.0916 113.563 77.2623 112.79 77.6036 112.16C77.9449 111.52 78.4089 111.035 78.9956 110.704C79.5823 110.374 80.2436 110.208 80.9796 110.208C81.7796 110.208 82.4943 110.39 83.1236 110.752C83.7636 111.104 84.2649 111.606 84.6276 112.256C84.9903 112.896 85.1716 113.638 85.1716 114.48C85.1716 115.334 84.9903 116.08 84.6276 116.72C84.2649 117.36 83.7636 117.862 83.1236 118.224C82.4943 118.587 81.7796 118.768 80.9796 118.768ZM76.6436 121.792V110.288H77.7316V112.816L77.6196 114.496L77.7796 116.192V121.792H76.6436ZM80.8996 117.76C81.4969 117.76 82.0303 117.627 82.4996 117.36C82.9689 117.083 83.3423 116.699 83.6196 116.208C83.8969 115.707 84.0356 115.131 84.0356 114.48C84.0356 113.83 83.8969 113.259 83.6196 112.768C83.3423 112.278 82.9689 111.894 82.4996 111.616C82.0303 111.339 81.4969 111.2 80.8996 111.2C80.3023 111.2 79.7636 111.339 79.2836 111.616C78.8143 111.894 78.4409 112.278 78.1636 112.768C77.8969 113.259 77.7636 113.83 77.7636 114.48C77.7636 115.131 77.8969 115.707 78.1636 116.208C78.4409 116.699 78.8143 117.083 79.2836 117.36C79.7636 117.627 80.3023 117.76 80.8996 117.76ZM91.0683 118.768C90.2577 118.768 89.527 118.587 88.8763 118.224C88.2363 117.851 87.7297 117.344 87.3563 116.704C86.983 116.054 86.7963 115.312 86.7963 114.48C86.7963 113.638 86.983 112.896 87.3563 112.256C87.7297 111.616 88.2363 111.115 88.8763 110.752C89.5163 110.39 90.247 110.208 91.0683 110.208C91.9003 110.208 92.6363 110.39 93.2763 110.752C93.927 111.115 94.4337 111.616 94.7963 112.256C95.1697 112.896 95.3563 113.638 95.3563 114.48C95.3563 115.312 95.1697 116.054 94.7963 116.704C94.4337 117.344 93.927 117.851 93.2763 118.224C92.6257 118.587 91.8897 118.768 91.0683 118.768ZM91.0683 117.76C91.6763 117.76 92.215 117.627 92.6843 117.36C93.1537 117.083 93.5217 116.699 93.7883 116.208C94.0657 115.707 94.2043 115.131 94.2043 114.48C94.2043 113.819 94.0657 113.243 93.7883 112.752C93.5217 112.262 93.1537 111.883 92.6843 111.616C92.215 111.339 91.6817 111.2 91.0843 111.2C90.487 111.2 89.9537 111.339 89.4843 111.616C89.015 111.883 88.6417 112.262 88.3643 112.752C88.087 113.243 87.9483 113.819 87.9483 114.48C87.9483 115.131 88.087 115.707 88.3643 116.208C88.6417 116.699 89.015 117.083 89.4843 117.36C89.9537 117.627 90.4817 117.76 91.0683 117.76ZM97.7842 118.688V110.288H98.9202V116.96L104.536 110.288H105.544V118.688H104.408V112L98.8082 118.688H97.7842ZM108.8 118.688V110.288H109.952L113.76 116.736H113.28L117.152 110.288H118.208V118.688H117.168V111.584L117.376 111.68L113.76 117.664H113.248L109.6 111.616L109.84 111.568V118.688H108.8ZM35.0067 138.688L31.5507 134.528L32.4947 133.968L36.3507 138.688H35.0067ZM28.8467 138.688V130.288H29.9827V138.688H28.8467ZM29.6307 134.944V133.968H32.3347V134.944H29.6307ZM32.5907 134.608L31.5347 134.448L34.8787 130.288H36.1107L32.5907 134.608ZM41.3027 138.768C40.492 138.768 39.7614 138.587 39.1107 138.224C38.4707 137.851 37.964 137.344 37.5907 136.704C37.2174 136.054 37.0307 135.312 37.0307 134.48C37.0307 133.638 37.2174 132.896 37.5907 132.256C37.964 131.616 38.4707 131.115 39.1107 130.752C39.7507 130.39 40.4814 130.208 41.3027 130.208C42.1347 130.208 42.8707 130.39 43.5107 130.752C44.1614 131.115 44.668 131.616 45.0307 132.256C45.404 132.896 45.5907 133.638 45.5907 134.48C45.5907 135.312 45.404 136.054 45.0307 136.704C44.668 137.344 44.1614 137.851 43.5107 138.224C42.86 138.587 42.124 138.768 41.3027 138.768ZM41.3027 137.76C41.9107 137.76 42.4494 137.627 42.9187 137.36C43.388 137.083 43.756 136.699 44.0227 136.208C44.3 135.707 44.4387 135.131 44.4387 134.48C44.4387 133.819 44.3 133.243 44.0227 132.752C43.756 132.262 43.388 131.883 42.9187 131.616C42.4494 131.339 41.916 131.2 41.3187 131.2C40.7214 131.2 40.188 131.339 39.7187 131.616C39.2494 131.883 38.876 132.262 38.5987 132.752C38.3214 133.243 38.1827 133.819 38.1827 134.48C38.1827 135.131 38.3214 135.707 38.5987 136.208C38.876 136.699 39.2494 137.083 39.7187 137.36C40.188 137.627 40.716 137.76 41.3027 137.76ZM49.3061 138.688V130.976L49.5941 131.28H46.1221V130.288H53.6261V131.28H50.1541L50.4421 130.976V138.688H49.3061ZM57.0561 138.688V130.976L57.3441 131.28H53.8721V130.288H61.3761V131.28H57.9041L58.1921 130.976V138.688H57.0561ZM66.228 138.768C65.3533 138.768 64.5853 138.587 63.924 138.224C63.2626 137.851 62.7453 137.344 62.372 136.704C61.9986 136.054 61.812 135.312 61.812 134.48C61.812 133.648 61.988 132.912 62.34 132.272C62.7026 131.632 63.1933 131.131 63.812 130.768C64.4413 130.395 65.1453 130.208 65.924 130.208C66.7133 130.208 67.412 130.39 68.02 130.752C68.6386 131.104 69.124 131.606 69.476 132.256C69.828 132.896 70.004 133.638 70.004 134.48C70.004 134.534 69.9986 134.592 69.988 134.656C69.988 134.71 69.988 134.768 69.988 134.832H62.676V133.984H69.38L68.932 134.32C68.932 133.712 68.7986 133.174 68.532 132.704C68.276 132.224 67.924 131.851 67.476 131.584C67.028 131.318 66.5106 131.184 65.924 131.184C65.348 131.184 64.8306 131.318 64.372 131.584C63.9133 131.851 63.556 132.224 63.3 132.704C63.044 133.184 62.916 133.734 62.916 134.352V134.528C62.916 135.168 63.0546 135.734 63.332 136.224C63.62 136.704 64.0146 137.083 64.516 137.36C65.028 137.627 65.6093 137.76 66.26 137.76C66.772 137.76 67.2466 137.67 67.684 137.488C68.132 137.307 68.516 137.03 68.836 136.656L69.476 137.392C69.1026 137.84 68.6333 138.182 68.068 138.416C67.5133 138.651 66.9 138.768 66.228 138.768ZM78.1067 138.144V131.28H74.0587L73.9627 133.152C73.9414 133.718 73.904 134.272 73.8507 134.816C73.808 135.36 73.728 135.862 73.6107 136.32C73.504 136.768 73.3494 137.136 73.1467 137.424C72.944 137.702 72.6827 137.862 72.3627 137.904L71.2267 137.696C71.5574 137.707 71.8294 137.59 72.0427 137.344C72.256 137.088 72.4214 136.742 72.5387 136.304C72.656 135.867 72.7414 135.371 72.7947 134.816C72.848 134.251 72.8907 133.675 72.9227 133.088L73.0347 130.288H79.2427V138.144H78.1067ZM70.8747 140.72V137.696H80.5547V140.72H79.4827V138.688H71.9467V140.72H70.8747ZM92.7366 138.688L89.8566 134.528L90.8006 133.968L94.0966 138.688H92.7366ZM87.9686 134.944V133.968H90.6246V134.944H87.9686ZM90.9126 134.608L89.8246 134.448L92.6246 130.288H93.8566L90.9126 134.608ZM82.7846 138.688H81.4246L84.7206 133.968L85.6486 134.528L82.7846 138.688ZM88.3206 138.688H87.1846V130.288H88.3206V138.688ZM87.5366 134.944H84.8966V133.968H87.5366V134.944ZM84.6246 134.608L81.6646 130.288H82.8966L85.6806 134.448L84.6246 134.608ZM95.9873 138.688V130.288H97.1233V136.96L102.739 130.288H103.747V138.688H102.611V132L97.0113 138.688H95.9873Z" fill="white"/>
</svg>
