<svg width="224" height="36" viewBox="0 0 224 36" fill="none" xmlns="http://www.w3.org/2000/svg">
<path d="M19.3444 29.2143V27.0008H14.0741V7.23735L19.7133 3.33737L19.6606 0.860352L5.06201 10.7157V29.2143H19.3444Z" fill="#232A11"/>
<path d="M19.3444 29.2143V27.0008H14.0741V7.23735L19.7133 3.33737L19.6606 0.860352L5.06201 10.7157V29.2143H19.3444Z" fill="black" fill-opacity="0.2"/>
<path d="M20.8723 0.860352L22.0318 1.9144V29.4251H20.8723V0.860352Z" fill="#232A11"/>
<path d="M20.8723 0.860352L22.0318 1.9144V29.4251H20.8723V0.860352Z" fill="black" fill-opacity="0.2"/>
<path d="M23.4021 2.65186L24.5616 3.63978V29.4247H23.4021V2.65186Z" fill="#232A11"/>
<path d="M23.4021 2.65186L24.5616 3.63978V29.4247H23.4021V2.65186Z" fill="black" fill-opacity="0.2"/>
<path d="M25.9321 4.76196L27.0916 5.6721V29.4267H25.9321V4.76196Z" fill="#232A11"/>
<path d="M25.9321 4.76196L27.0916 5.6721V29.4267H25.9321V4.76196Z" fill="black" fill-opacity="0.2"/>
<path d="M28.4614 6.44775L29.6209 7.29566V29.426H28.4614V6.44775Z" fill="#232A11"/>
<path d="M28.4614 6.44775L29.6209 7.29566V29.426H28.4614V6.44775Z" fill="black" fill-opacity="0.2"/>
<path d="M30.9915 8.23926L32.1509 9.02104V29.4256H30.9915V8.23926Z" fill="#232A11"/>
<path d="M30.9915 8.23926L32.1509 9.02104V29.4256H30.9915V8.23926Z" fill="black" fill-opacity="0.2"/>
<path d="M33.521 10.3472L34.6804 11.0512V29.4254H33.521V10.3472Z" fill="#232A11"/>
<path d="M33.521 10.3472L34.6804 11.0512V29.4254H33.521V10.3472Z" fill="black" fill-opacity="0.2"/>
<path d="M48.7791 28.5688V7.48886H55.8955C58.1878 7.48886 60.1214 7.8975 61.6962 8.71479C63.2909 9.51214 64.4969 10.6982 65.3142 12.273C66.1514 13.8278 66.57 15.7415 66.57 18.0139C66.57 20.2864 66.1514 22.21 65.3142 23.7847C64.4969 25.3595 63.2909 26.5555 61.6962 27.3728C60.1214 28.1702 58.1878 28.5688 55.8955 28.5688H48.7791ZM51.231 26.4758H55.7161C58.4869 26.4758 60.55 25.7681 61.9055 24.3529C63.2809 22.9376 63.9686 20.8246 63.9686 18.0139C63.9686 15.2032 63.2809 13.1002 61.9055 11.7049C60.5301 10.2896 58.4669 9.58191 55.7161 9.58191H51.231V26.4758ZM79.8216 28.838C78.3665 28.838 77.0409 28.5888 75.8448 28.0904C74.6488 27.5722 73.6322 26.8446 72.795 25.9077C71.9577 24.9708 71.3099 23.8346 70.8514 22.499C70.4129 21.1634 70.1936 19.6684 70.1936 18.0139C70.1936 16.3395 70.4129 14.8444 70.8514 13.5288C71.3099 12.1932 71.9577 11.067 72.795 10.15C73.6322 9.21313 74.6388 8.49552 75.8149 7.99717C77.011 7.47889 78.3465 7.21975 79.8216 7.21975C81.3167 7.21975 82.6522 7.46893 83.8283 7.96727C85.0243 8.46562 86.041 9.18323 86.8782 10.1201C87.7353 11.057 88.3832 12.1932 88.8217 13.5288C89.2802 14.8444 89.5094 16.3295 89.5094 17.984C89.5094 19.6584 89.2802 21.1634 88.8217 22.499C88.3632 23.8346 87.7154 24.9708 86.8782 25.9077C86.041 26.8446 85.0243 27.5722 83.8283 28.0904C82.6522 28.5888 81.3167 28.838 79.8216 28.838ZM79.8216 26.6552C81.3366 26.6552 82.6123 26.3163 83.6489 25.6386C84.7054 24.9608 85.5127 23.9741 86.0709 22.6784C86.629 21.3827 86.9081 19.8279 86.9081 18.0139C86.9081 16.18 86.629 14.6252 86.0709 13.3494C85.5127 12.0736 84.7054 11.0969 83.6489 10.4191C82.6123 9.74138 81.3366 9.4025 79.8216 9.4025C78.3465 9.4025 77.0807 9.74138 76.0242 10.4191C74.9877 11.0969 74.1903 12.0836 73.6322 13.3793C73.074 14.6551 72.795 16.1999 72.795 18.0139C72.795 19.8279 73.074 21.3827 73.6322 22.6784C74.1903 23.9542 74.9877 24.9409 76.0242 25.6386C77.0807 26.3163 78.3465 26.6552 79.8216 26.6552ZM93.9527 28.5688V7.48886H96.0159L104.567 23.5455H103.67L112.162 7.48886H114.225V28.5688H111.953V10.7779H112.671L104.926 25.3097H103.312L95.4777 10.748H96.1953V28.5688H93.9527ZM119.472 28.5688V7.48886H127.904C130.057 7.48886 131.731 7.96727 132.927 8.92409C134.123 9.88092 134.721 11.2364 134.721 12.9906C134.721 14.3062 134.333 15.4026 133.555 16.2797C132.798 17.1568 131.761 17.7348 130.446 18.0139V17.5953C131.442 17.7149 132.299 18.0039 133.017 18.4624C133.735 18.901 134.283 19.489 134.662 20.2266C135.04 20.9442 135.23 21.7914 135.23 22.7681C135.23 24.0239 134.951 25.0904 134.392 25.9675C133.854 26.8246 133.067 27.4725 132.03 27.911C130.994 28.3496 129.738 28.5688 128.263 28.5688H119.472ZM121.864 26.5954H128.024C128.662 26.5954 129.23 26.5456 129.728 26.4459C130.246 26.3462 130.695 26.1967 131.074 25.9974C131.452 25.7781 131.771 25.519 132.03 25.22C132.289 24.921 132.479 24.5622 132.598 24.1435C132.738 23.7249 132.808 23.2565 132.808 22.7382C132.808 22.2 132.738 21.7316 132.598 21.3329C132.479 20.9143 132.289 20.5555 132.03 20.2565C131.771 19.9375 131.452 19.6784 131.074 19.479C130.695 19.2797 130.246 19.1302 129.728 19.0305C129.23 18.9309 128.662 18.881 128.024 18.881H121.864V26.5954ZM121.864 16.9076H127.545C129.1 16.9076 130.276 16.5886 131.074 15.9508C131.891 15.3129 132.299 14.3959 132.299 13.1999C132.299 11.964 131.891 11.0371 131.074 10.4191C130.276 9.78125 129.1 9.4623 127.545 9.4623H121.864V16.9076ZM147.991 28.838C145.24 28.838 143.137 28.1104 141.682 26.6552C140.246 25.1801 139.529 23.0372 139.529 20.2266V7.48886H141.981V20.107C141.981 22.2997 142.489 23.9442 143.506 25.0406C144.522 26.117 146.017 26.6552 147.991 26.6552C149.964 26.6552 151.449 26.117 152.446 25.0406C153.443 23.9442 153.941 22.2997 153.941 20.107V7.48886H156.393V20.2266C156.393 23.0372 155.675 25.1801 154.24 26.6552C152.825 28.1104 150.742 28.838 147.991 28.838ZM161.432 28.5688V7.48886H169.775C172.027 7.48886 173.761 8.01711 174.977 9.0736C176.193 10.1301 176.801 11.6351 176.801 13.5886C176.801 14.8245 176.522 15.9009 175.964 16.8179C175.426 17.7149 174.628 18.4026 173.572 18.881C172.515 19.3395 171.25 19.5687 169.775 19.5687L170.074 19.18H170.672C171.449 19.18 172.127 19.3794 172.705 19.778C173.283 20.1767 173.811 20.8146 174.29 21.6917L177.997 28.5688H175.306L171.658 21.8113C171.359 21.2531 171.02 20.8146 170.642 20.4957C170.283 20.1767 169.864 19.9574 169.386 19.8378C168.927 19.7182 168.369 19.6584 167.711 19.6584H163.884V28.5688H161.432ZM163.884 17.7149H169.416C171.05 17.7149 172.286 17.376 173.123 16.6983C173.961 16.0006 174.379 14.964 174.379 13.5886C174.379 12.253 173.961 11.2464 173.123 10.5686C172.286 9.87095 171.05 9.52211 169.416 9.52211H163.884V17.7149ZM190.916 28.838C188.664 28.838 186.76 28.4094 185.205 27.5522C183.67 26.6951 182.504 25.4592 181.707 23.8445C180.909 22.2299 180.511 20.2963 180.511 18.0438C180.511 15.8112 180.909 13.8876 181.707 12.273C182.504 10.6583 183.65 9.41247 185.145 8.53538C186.64 7.6583 188.444 7.21975 190.557 7.21975C191.554 7.21975 192.491 7.31942 193.368 7.51876C194.265 7.7181 195.092 8.01711 195.85 8.41578C196.627 8.79452 197.305 9.27293 197.883 9.85101L196.926 11.8245C195.969 10.9872 194.983 10.3793 193.966 10.0005C192.949 9.62178 191.803 9.4324 190.528 9.4324C188.116 9.4324 186.272 10.1799 184.996 11.675C183.74 13.17 183.112 15.2929 183.112 18.0438C183.112 20.8345 183.76 22.9675 185.056 24.4426C186.371 25.9177 188.345 26.6552 190.976 26.6552C191.933 26.6552 192.87 26.5655 193.787 26.3861C194.704 26.1868 195.571 25.9177 196.388 25.5788L195.85 26.9841V19.5388H190.498V17.5953H197.973V27.3429C197.435 27.622 196.767 27.8811 195.969 28.1203C195.172 28.3396 194.335 28.509 193.458 28.6286C192.581 28.7682 191.734 28.838 190.916 28.838Z" fill="#232A11"/>
<path d="M48.7791 28.5688V7.48886H55.8955C58.1878 7.48886 60.1214 7.8975 61.6962 8.71479C63.2909 9.51214 64.4969 10.6982 65.3142 12.273C66.1514 13.8278 66.57 15.7415 66.57 18.0139C66.57 20.2864 66.1514 22.21 65.3142 23.7847C64.4969 25.3595 63.2909 26.5555 61.6962 27.3728C60.1214 28.1702 58.1878 28.5688 55.8955 28.5688H48.7791ZM51.231 26.4758H55.7161C58.4869 26.4758 60.55 25.7681 61.9055 24.3529C63.2809 22.9376 63.9686 20.8246 63.9686 18.0139C63.9686 15.2032 63.2809 13.1002 61.9055 11.7049C60.5301 10.2896 58.4669 9.58191 55.7161 9.58191H51.231V26.4758ZM79.8216 28.838C78.3665 28.838 77.0409 28.5888 75.8448 28.0904C74.6488 27.5722 73.6322 26.8446 72.795 25.9077C71.9577 24.9708 71.3099 23.8346 70.8514 22.499C70.4129 21.1634 70.1936 19.6684 70.1936 18.0139C70.1936 16.3395 70.4129 14.8444 70.8514 13.5288C71.3099 12.1932 71.9577 11.067 72.795 10.15C73.6322 9.21313 74.6388 8.49552 75.8149 7.99717C77.011 7.47889 78.3465 7.21975 79.8216 7.21975C81.3167 7.21975 82.6522 7.46893 83.8283 7.96727C85.0243 8.46562 86.041 9.18323 86.8782 10.1201C87.7353 11.057 88.3832 12.1932 88.8217 13.5288C89.2802 14.8444 89.5094 16.3295 89.5094 17.984C89.5094 19.6584 89.2802 21.1634 88.8217 22.499C88.3632 23.8346 87.7154 24.9708 86.8782 25.9077C86.041 26.8446 85.0243 27.5722 83.8283 28.0904C82.6522 28.5888 81.3167 28.838 79.8216 28.838ZM79.8216 26.6552C81.3366 26.6552 82.6123 26.3163 83.6489 25.6386C84.7054 24.9608 85.5127 23.9741 86.0709 22.6784C86.629 21.3827 86.9081 19.8279 86.9081 18.0139C86.9081 16.18 86.629 14.6252 86.0709 13.3494C85.5127 12.0736 84.7054 11.0969 83.6489 10.4191C82.6123 9.74138 81.3366 9.4025 79.8216 9.4025C78.3465 9.4025 77.0807 9.74138 76.0242 10.4191C74.9877 11.0969 74.1903 12.0836 73.6322 13.3793C73.074 14.6551 72.795 16.1999 72.795 18.0139C72.795 19.8279 73.074 21.3827 73.6322 22.6784C74.1903 23.9542 74.9877 24.9409 76.0242 25.6386C77.0807 26.3163 78.3465 26.6552 79.8216 26.6552ZM93.9527 28.5688V7.48886H96.0159L104.567 23.5455H103.67L112.162 7.48886H114.225V28.5688H111.953V10.7779H112.671L104.926 25.3097H103.312L95.4777 10.748H96.1953V28.5688H93.9527ZM119.472 28.5688V7.48886H127.904C130.057 7.48886 131.731 7.96727 132.927 8.92409C134.123 9.88092 134.721 11.2364 134.721 12.9906C134.721 14.3062 134.333 15.4026 133.555 16.2797C132.798 17.1568 131.761 17.7348 130.446 18.0139V17.5953C131.442 17.7149 132.299 18.0039 133.017 18.4624C133.735 18.901 134.283 19.489 134.662 20.2266C135.04 20.9442 135.23 21.7914 135.23 22.7681C135.23 24.0239 134.951 25.0904 134.392 25.9675C133.854 26.8246 133.067 27.4725 132.03 27.911C130.994 28.3496 129.738 28.5688 128.263 28.5688H119.472ZM121.864 26.5954H128.024C128.662 26.5954 129.23 26.5456 129.728 26.4459C130.246 26.3462 130.695 26.1967 131.074 25.9974C131.452 25.7781 131.771 25.519 132.03 25.22C132.289 24.921 132.479 24.5622 132.598 24.1435C132.738 23.7249 132.808 23.2565 132.808 22.7382C132.808 22.2 132.738 21.7316 132.598 21.3329C132.479 20.9143 132.289 20.5555 132.03 20.2565C131.771 19.9375 131.452 19.6784 131.074 19.479C130.695 19.2797 130.246 19.1302 129.728 19.0305C129.23 18.9309 128.662 18.881 128.024 18.881H121.864V26.5954ZM121.864 16.9076H127.545C129.1 16.9076 130.276 16.5886 131.074 15.9508C131.891 15.3129 132.299 14.3959 132.299 13.1999C132.299 11.964 131.891 11.0371 131.074 10.4191C130.276 9.78125 129.1 9.4623 127.545 9.4623H121.864V16.9076ZM147.991 28.838C145.24 28.838 143.137 28.1104 141.682 26.6552C140.246 25.1801 139.529 23.0372 139.529 20.2266V7.48886H141.981V20.107C141.981 22.2997 142.489 23.9442 143.506 25.0406C144.522 26.117 146.017 26.6552 147.991 26.6552C149.964 26.6552 151.449 26.117 152.446 25.0406C153.443 23.9442 153.941 22.2997 153.941 20.107V7.48886H156.393V20.2266C156.393 23.0372 155.675 25.1801 154.24 26.6552C152.825 28.1104 150.742 28.838 147.991 28.838ZM161.432 28.5688V7.48886H169.775C172.027 7.48886 173.761 8.01711 174.977 9.0736C176.193 10.1301 176.801 11.6351 176.801 13.5886C176.801 14.8245 176.522 15.9009 175.964 16.8179C175.426 17.7149 174.628 18.4026 173.572 18.881C172.515 19.3395 171.25 19.5687 169.775 19.5687L170.074 19.18H170.672C171.449 19.18 172.127 19.3794 172.705 19.778C173.283 20.1767 173.811 20.8146 174.29 21.6917L177.997 28.5688H175.306L171.658 21.8113C171.359 21.2531 171.02 20.8146 170.642 20.4957C170.283 20.1767 169.864 19.9574 169.386 19.8378C168.927 19.7182 168.369 19.6584 167.711 19.6584H163.884V28.5688H161.432ZM163.884 17.7149H169.416C171.05 17.7149 172.286 17.376 173.123 16.6983C173.961 16.0006 174.379 14.964 174.379 13.5886C174.379 12.253 173.961 11.2464 173.123 10.5686C172.286 9.87095 171.05 9.52211 169.416 9.52211H163.884V17.7149ZM190.916 28.838C188.664 28.838 186.76 28.4094 185.205 27.5522C183.67 26.6951 182.504 25.4592 181.707 23.8445C180.909 22.2299 180.511 20.2963 180.511 18.0438C180.511 15.8112 180.909 13.8876 181.707 12.273C182.504 10.6583 183.65 9.41247 185.145 8.53538C186.64 7.6583 188.444 7.21975 190.557 7.21975C191.554 7.21975 192.491 7.31942 193.368 7.51876C194.265 7.7181 195.092 8.01711 195.85 8.41578C196.627 8.79452 197.305 9.27293 197.883 9.85101L196.926 11.8245C195.969 10.9872 194.983 10.3793 193.966 10.0005C192.949 9.62178 191.803 9.4324 190.528 9.4324C188.116 9.4324 186.272 10.1799 184.996 11.675C183.74 13.17 183.112 15.2929 183.112 18.0438C183.112 20.8345 183.76 22.9675 185.056 24.4426C186.371 25.9177 188.345 26.6552 190.976 26.6552C191.933 26.6552 192.87 26.5655 193.787 26.3861C194.704 26.1868 195.571 25.9177 196.388 25.5788L195.85 26.9841V19.5388H190.498V17.5953H197.973V27.3429C197.435 27.622 196.767 27.8811 195.969 28.1203C195.172 28.3396 194.335 28.509 193.458 28.6286C192.581 28.7682 191.734 28.838 190.916 28.838Z" fill="black" fill-opacity="0.2"/>
</svg>
