<svg width="234" height="44" viewBox="0 0 234 44" fill="none" xmlns="http://www.w3.org/2000/svg">
<rect width="234" height="44" rx="22" fill="white"/>
<path fill-rule="evenodd" clip-rule="evenodd" d="M26.856 23.1441C25.686 21.9741 24.804 20.6641 24.218 19.3351C24.094 19.0541 24.167 18.7251 24.384 18.5081L25.203 17.6901C25.874 17.0191 25.874 16.0701 25.288 15.4841L24.114 14.3101C23.333 13.5291 22.067 13.5291 21.286 14.3101L20.634 14.9621C19.893 15.7031 19.584 16.7721 19.784 17.8321C20.278 20.4451 21.796 23.3061 24.245 25.7551C26.694 28.2041 29.555 29.7221 32.168 30.2161C33.228 30.4161 34.297 30.1071 35.038 29.3661L35.689 28.7151C36.47 27.9341 36.47 26.6681 35.689 25.8871L34.516 24.7141C33.93 24.1281 32.98 24.1281 32.395 24.7141L31.492 25.6181C31.275 25.8351 30.946 25.9081 30.665 25.7841C29.336 25.1971 28.026 24.3141 26.856 23.1441Z" fill="#747652"/>
<path fill-rule="evenodd" clip-rule="evenodd" d="M26.856 23.1441C25.686 21.9741 24.804 20.6641 24.218 19.3351C24.094 19.0541 24.167 18.7251 24.384 18.5081L25.203 17.6901C25.874 17.0191 25.874 16.0701 25.288 15.4841L24.114 14.3101C23.333 13.5291 22.067 13.5291 21.286 14.3101L20.634 14.9621C19.893 15.7031 19.584 16.7721 19.784 17.8321C20.278 20.4451 21.796 23.3061 24.245 25.7551C26.694 28.2041 29.555 29.7221 32.168 30.2161C33.228 30.4161 34.297 30.1071 35.038 29.3661L35.689 28.7151C36.47 27.9341 36.47 26.6681 35.689 25.8871L34.516 24.7141C33.93 24.1281 32.98 24.1281 32.395 24.7141L31.492 25.6181C31.275 25.8351 30.946 25.9081 30.665 25.7841C29.336 25.1971 28.026 24.3141 26.856 23.1441Z" fill="black" fill-opacity="0.2"/>
<path fill-rule="evenodd" clip-rule="evenodd" d="M26.856 23.1441C25.686 21.9741 24.804 20.6641 24.218 19.3351C24.094 19.0541 24.167 18.7251 24.384 18.5081L25.203 17.6901C25.874 17.0191 25.874 16.0701 25.288 15.4841L24.114 14.3101C23.333 13.5291 22.067 13.5291 21.286 14.3101L20.634 14.9621C19.893 15.7031 19.584 16.7721 19.784 17.8321C20.278 20.4451 21.796 23.3061 24.245 25.7551C26.694 28.2041 29.555 29.7221 32.168 30.2161C33.228 30.4161 34.297 30.1071 35.038 29.3661L35.689 28.7151C36.47 27.9341 36.47 26.6681 35.689 25.8871L34.516 24.7141C33.93 24.1281 32.98 24.1281 32.395 24.7141L31.492 25.6181C31.275 25.8351 30.946 25.9081 30.665 25.7841C29.336 25.1971 28.026 24.3141 26.856 23.1441Z" stroke="#747652" stroke-width="1.5" stroke-linecap="round" stroke-linejoin="round"/>
<path fill-rule="evenodd" clip-rule="evenodd" d="M26.856 23.1441C25.686 21.9741 24.804 20.6641 24.218 19.3351C24.094 19.0541 24.167 18.7251 24.384 18.5081L25.203 17.6901C25.874 17.0191 25.874 16.0701 25.288 15.4841L24.114 14.3101C23.333 13.5291 22.067 13.5291 21.286 14.3101L20.634 14.9621C19.893 15.7031 19.584 16.7721 19.784 17.8321C20.278 20.4451 21.796 23.3061 24.245 25.7551C26.694 28.2041 29.555 29.7221 32.168 30.2161C33.228 30.4161 34.297 30.1071 35.038 29.3661L35.689 28.7151C36.47 27.9341 36.47 26.6681 35.689 25.8871L34.516 24.7141C33.93 24.1281 32.98 24.1281 32.395 24.7141L31.492 25.6181C31.275 25.8351 30.946 25.9081 30.665 25.7841C29.336 25.1971 28.026 24.3141 26.856 23.1441Z" stroke="black" stroke-opacity="0.2" stroke-width="1.5" stroke-linecap="round" stroke-linejoin="round"/>
<path d="M57.136 21.792H60.32V22.928H57.136V26.224H55.984V22.928H52.8V21.792H55.984V18.48H57.136V21.792ZM63.3323 28L68.0203 17.856H61.8603V16.576H69.5243V17.664L64.8843 28H63.3323ZM75.1088 23.616C75.1088 22.7413 75.1888 21.888 75.3488 21.056C75.5194 20.224 75.7808 19.4293 76.1328 18.672C76.4848 17.9147 76.9274 17.216 77.4608 16.576H78.7888C78.2981 17.2373 77.8821 17.952 77.5408 18.72C77.2101 19.488 76.9594 20.2827 76.7888 21.104C76.6181 21.9253 76.5328 22.7573 76.5328 23.6C76.5328 24.4213 76.6181 25.2373 76.7888 26.048C76.9594 26.8587 77.2101 27.6373 77.5408 28.384C77.8714 29.1413 78.2821 29.856 78.7728 30.528H77.4608C76.9274 29.8987 76.4848 29.2107 76.1328 28.464C75.7808 27.728 75.5194 26.9493 75.3488 26.128C75.1888 25.3067 75.1088 24.4693 75.1088 23.616ZM87.5856 21.456C87.5856 22.1067 87.5376 22.7573 87.4416 23.408C87.3563 24.048 87.2016 24.656 86.9776 25.232C86.7536 25.7973 86.4443 26.304 86.0496 26.752C85.655 27.1893 85.1536 27.536 84.5456 27.792C83.9376 28.0373 83.2016 28.16 82.3376 28.16C82.1243 28.16 81.8736 28.144 81.5856 28.112C81.3083 28.0907 81.079 28.0533 80.8976 28V26.8C81.0896 26.864 81.3136 26.9173 81.5696 26.96C81.8256 26.992 82.071 27.008 82.3056 27.008C83.0523 27.008 83.6656 26.8853 84.1456 26.64C84.6363 26.3947 85.0256 26.064 85.3136 25.648C85.6016 25.2213 85.8096 24.7307 85.9376 24.176C86.0656 23.6107 86.1403 23.0187 86.1616 22.4H86.0656C85.9056 22.6453 85.703 22.8693 85.4576 23.072C85.2123 23.2747 84.9136 23.4347 84.5616 23.552C84.2203 23.6693 83.815 23.728 83.3456 23.728C82.695 23.728 82.119 23.5947 81.6176 23.328C81.127 23.0507 80.743 22.656 80.4656 22.144C80.199 21.632 80.0656 21.008 80.0656 20.272C80.0656 19.472 80.215 18.784 80.5136 18.208C80.823 17.632 81.2496 17.1893 81.7936 16.88C82.3376 16.5707 82.9776 16.416 83.7136 16.416C84.2576 16.416 84.7643 16.5227 85.2336 16.736C85.703 16.9387 86.1136 17.248 86.4656 17.664C86.8176 18.08 87.0896 18.6027 87.2816 19.232C87.4843 19.8613 87.5856 20.6027 87.5856 21.456ZM83.7136 17.6C83.0523 17.6 82.5083 17.8187 82.0816 18.256C81.6656 18.6933 81.4576 19.36 81.4576 20.256C81.4576 20.992 81.6336 21.5733 81.9856 22C82.3483 22.416 82.903 22.624 83.6496 22.624C84.1616 22.624 84.6043 22.5227 84.9776 22.32C85.351 22.1067 85.639 21.84 85.8416 21.52C86.055 21.2 86.1616 20.8693 86.1616 20.528C86.1616 20.1867 86.1083 19.8453 86.0016 19.504C85.9056 19.152 85.7563 18.832 85.5536 18.544C85.351 18.256 85.095 18.0267 84.7856 17.856C84.4763 17.6853 84.119 17.6 83.7136 17.6ZM96.7419 21.456C96.7419 22.1067 96.6939 22.7573 96.5979 23.408C96.5125 24.048 96.3579 24.656 96.1339 25.232C95.9099 25.7973 95.6005 26.304 95.2059 26.752C94.8112 27.1893 94.3099 27.536 93.7019 27.792C93.0939 28.0373 92.3579 28.16 91.4939 28.16C91.2805 28.16 91.0299 28.144 90.7419 28.112C90.4645 28.0907 90.2352 28.0533 90.0539 28V26.8C90.2459 26.864 90.4699 26.9173 90.7259 26.96C90.9819 26.992 91.2272 27.008 91.4619 27.008C92.2085 27.008 92.8219 26.8853 93.3019 26.64C93.7925 26.3947 94.1819 26.064 94.4699 25.648C94.7579 25.2213 94.9659 24.7307 95.0939 24.176C95.2219 23.6107 95.2965 23.0187 95.3179 22.4H95.2219C95.0619 22.6453 94.8592 22.8693 94.6139 23.072C94.3685 23.2747 94.0699 23.4347 93.7179 23.552C93.3765 23.6693 92.9712 23.728 92.5019 23.728C91.8512 23.728 91.2752 23.5947 90.7739 23.328C90.2832 23.0507 89.8992 22.656 89.6219 22.144C89.3552 21.632 89.2219 21.008 89.2219 20.272C89.2219 19.472 89.3712 18.784 89.6699 18.208C89.9792 17.632 90.4059 17.1893 90.9499 16.88C91.4939 16.5707 92.1339 16.416 92.8699 16.416C93.4139 16.416 93.9205 16.5227 94.3899 16.736C94.8592 16.9387 95.2699 17.248 95.6219 17.664C95.9739 18.08 96.2459 18.6027 96.4379 19.232C96.6405 19.8613 96.7419 20.6027 96.7419 21.456ZM92.8699 17.6C92.2085 17.6 91.6645 17.8187 91.2379 18.256C90.8219 18.6933 90.6139 19.36 90.6139 20.256C90.6139 20.992 90.7899 21.5733 91.1419 22C91.5045 22.416 92.0592 22.624 92.8059 22.624C93.3179 22.624 93.7605 22.5227 94.1339 22.32C94.5072 22.1067 94.7952 21.84 94.9979 21.52C95.2112 21.2 95.3179 20.8693 95.3179 20.528C95.3179 20.1867 95.2645 19.8453 95.1579 19.504C95.0619 19.152 94.9125 18.832 94.7099 18.544C94.5072 18.256 94.2512 18.0267 93.9419 17.856C93.6325 17.6853 93.2752 17.6 92.8699 17.6ZM105.898 21.456C105.898 22.1067 105.85 22.7573 105.754 23.408C105.669 24.048 105.514 24.656 105.29 25.232C105.066 25.7973 104.757 26.304 104.362 26.752C103.967 27.1893 103.466 27.536 102.858 27.792C102.25 28.0373 101.514 28.16 100.65 28.16C100.437 28.16 100.186 28.144 99.8981 28.112C99.6208 28.0907 99.3915 28.0533 99.2101 28V26.8C99.4021 26.864 99.6261 26.9173 99.8821 26.96C100.138 26.992 100.383 27.008 100.618 27.008C101.365 27.008 101.978 26.8853 102.458 26.64C102.949 26.3947 103.338 26.064 103.626 25.648C103.914 25.2213 104.122 24.7307 104.25 24.176C104.378 23.6107 104.453 23.0187 104.474 22.4H104.378C104.218 22.6453 104.015 22.8693 103.77 23.072C103.525 23.2747 103.226 23.4347 102.874 23.552C102.533 23.6693 102.127 23.728 101.658 23.728C101.007 23.728 100.431 23.5947 99.9301 23.328C99.4395 23.0507 99.0555 22.656 98.7781 22.144C98.5115 21.632 98.3781 21.008 98.3781 20.272C98.3781 19.472 98.5275 18.784 98.8261 18.208C99.1355 17.632 99.5621 17.1893 100.106 16.88C100.65 16.5707 101.29 16.416 102.026 16.416C102.57 16.416 103.077 16.5227 103.546 16.736C104.015 16.9387 104.426 17.248 104.778 17.664C105.13 18.08 105.402 18.6027 105.594 19.232C105.797 19.8613 105.898 20.6027 105.898 21.456ZM102.026 17.6C101.365 17.6 100.821 17.8187 100.394 18.256C99.9781 18.6933 99.7701 19.36 99.7701 20.256C99.7701 20.992 99.9461 21.5733 100.298 22C100.661 22.416 101.215 22.624 101.962 22.624C102.474 22.624 102.917 22.5227 103.29 22.32C103.663 22.1067 103.951 21.84 104.154 21.52C104.367 21.2 104.474 20.8693 104.474 20.528C104.474 20.1867 104.421 19.8453 104.314 19.504C104.218 19.152 104.069 18.832 103.866 18.544C103.663 18.256 103.407 18.0267 103.098 17.856C102.789 17.6853 102.431 17.6 102.026 17.6ZM110.894 23.616C110.894 24.4693 110.809 25.3067 110.638 26.128C110.478 26.9493 110.222 27.728 109.87 28.464C109.529 29.2107 109.086 29.8987 108.542 30.528H107.23C107.721 29.856 108.132 29.1413 108.462 28.384C108.793 27.6373 109.044 26.8587 109.214 26.048C109.385 25.2373 109.47 24.4213 109.47 23.6C109.47 22.7573 109.385 21.9253 109.214 21.104C109.044 20.2827 108.793 19.488 108.462 18.72C108.132 17.952 107.716 17.2373 107.214 16.576H108.542C109.086 17.216 109.529 17.9147 109.87 18.672C110.222 19.4293 110.478 20.224 110.638 21.056C110.809 21.888 110.894 22.7413 110.894 23.616ZM124.008 21.456C124.008 22.1067 123.96 22.7573 123.864 23.408C123.778 24.048 123.624 24.656 123.4 25.232C123.176 25.7973 122.866 26.304 122.472 26.752C122.077 27.1893 121.576 27.536 120.968 27.792C120.36 28.0373 119.624 28.16 118.76 28.16C118.546 28.16 118.296 28.144 118.008 28.112C117.73 28.0907 117.501 28.0533 117.32 28V26.8C117.512 26.864 117.736 26.9173 117.992 26.96C118.248 26.992 118.493 27.008 118.728 27.008C119.474 27.008 120.088 26.8853 120.568 26.64C121.058 26.3947 121.448 26.064 121.736 25.648C122.024 25.2213 122.232 24.7307 122.36 24.176C122.488 23.6107 122.562 23.0187 122.584 22.4H122.488C122.328 22.6453 122.125 22.8693 121.88 23.072C121.634 23.2747 121.336 23.4347 120.984 23.552C120.642 23.6693 120.237 23.728 119.768 23.728C119.117 23.728 118.541 23.5947 118.039 23.328C117.549 23.0507 117.165 22.656 116.888 22.144C116.621 21.632 116.488 21.008 116.488 20.272C116.488 19.472 116.637 18.784 116.936 18.208C117.245 17.632 117.672 17.1893 118.216 16.88C118.76 16.5707 119.4 16.416 120.136 16.416C120.68 16.416 121.186 16.5227 121.656 16.736C122.125 16.9387 122.536 17.248 122.888 17.664C123.24 18.08 123.512 18.6027 123.704 19.232C123.906 19.8613 124.008 20.6027 124.008 21.456ZM120.136 17.6C119.474 17.6 118.93 17.8187 118.504 18.256C118.088 18.6933 117.88 19.36 117.88 20.256C117.88 20.992 118.056 21.5733 118.408 22C118.77 22.416 119.325 22.624 120.072 22.624C120.584 22.624 121.026 22.5227 121.4 22.32C121.773 22.1067 122.061 21.84 122.264 21.52C122.477 21.2 122.584 20.8693 122.584 20.528C122.584 20.1867 122.53 19.8453 122.424 19.504C122.328 19.152 122.178 18.832 121.976 18.544C121.773 18.256 121.517 18.0267 121.208 17.856C120.898 17.6853 120.541 17.6 120.136 17.6ZM133.164 21.456C133.164 22.1067 133.116 22.7573 133.02 23.408C132.934 24.048 132.78 24.656 132.556 25.232C132.332 25.7973 132.022 26.304 131.628 26.752C131.233 27.1893 130.732 27.536 130.124 27.792C129.516 28.0373 128.78 28.16 127.916 28.16C127.702 28.16 127.452 28.144 127.164 28.112C126.886 28.0907 126.657 28.0533 126.476 28V26.8C126.668 26.864 126.892 26.9173 127.148 26.96C127.404 26.992 127.649 27.008 127.884 27.008C128.63 27.008 129.244 26.8853 129.724 26.64C130.214 26.3947 130.604 26.064 130.892 25.648C131.18 25.2213 131.388 24.7307 131.516 24.176C131.644 23.6107 131.718 23.0187 131.74 22.4H131.644C131.484 22.6453 131.281 22.8693 131.036 23.072C130.79 23.2747 130.492 23.4347 130.14 23.552C129.798 23.6693 129.393 23.728 128.924 23.728C128.273 23.728 127.697 23.5947 127.196 23.328C126.705 23.0507 126.321 22.656 126.044 22.144C125.777 21.632 125.644 21.008 125.644 20.272C125.644 19.472 125.793 18.784 126.092 18.208C126.401 17.632 126.828 17.1893 127.372 16.88C127.916 16.5707 128.556 16.416 129.292 16.416C129.836 16.416 130.342 16.5227 130.812 16.736C131.281 16.9387 131.692 17.248 132.044 17.664C132.396 18.08 132.668 18.6027 132.86 19.232C133.062 19.8613 133.164 20.6027 133.164 21.456ZM129.292 17.6C128.63 17.6 128.086 17.8187 127.66 18.256C127.244 18.6933 127.036 19.36 127.036 20.256C127.036 20.992 127.212 21.5733 127.564 22C127.926 22.416 128.481 22.624 129.228 22.624C129.74 22.624 130.182 22.5227 130.556 22.32C130.929 22.1067 131.217 21.84 131.42 21.52C131.633 21.2 131.74 20.8693 131.74 20.528C131.74 20.1867 131.686 19.8453 131.58 19.504C131.484 19.152 131.334 18.832 131.132 18.544C130.929 18.256 130.673 18.0267 130.364 17.856C130.054 17.6853 129.697 17.6 129.292 17.6ZM142.32 21.456C142.32 22.1067 142.272 22.7573 142.176 23.408C142.091 24.048 141.936 24.656 141.712 25.232C141.488 25.7973 141.179 26.304 140.784 26.752C140.389 27.1893 139.888 27.536 139.28 27.792C138.672 28.0373 137.936 28.16 137.072 28.16C136.859 28.16 136.608 28.144 136.32 28.112C136.043 28.0907 135.813 28.0533 135.632 28V26.8C135.824 26.864 136.048 26.9173 136.304 26.96C136.56 26.992 136.805 27.008 137.04 27.008C137.787 27.008 138.4 26.8853 138.88 26.64C139.371 26.3947 139.76 26.064 140.048 25.648C140.336 25.2213 140.544 24.7307 140.672 24.176C140.8 23.6107 140.875 23.0187 140.896 22.4H140.8C140.64 22.6453 140.437 22.8693 140.192 23.072C139.947 23.2747 139.648 23.4347 139.296 23.552C138.955 23.6693 138.549 23.728 138.08 23.728C137.429 23.728 136.853 23.5947 136.352 23.328C135.861 23.0507 135.477 22.656 135.2 22.144C134.933 21.632 134.8 21.008 134.8 20.272C134.8 19.472 134.949 18.784 135.248 18.208C135.557 17.632 135.984 17.1893 136.528 16.88C137.072 16.5707 137.712 16.416 138.448 16.416C138.992 16.416 139.499 16.5227 139.968 16.736C140.437 16.9387 140.848 17.248 141.2 17.664C141.552 18.08 141.824 18.6027 142.016 19.232C142.219 19.8613 142.32 20.6027 142.32 21.456ZM138.448 17.6C137.787 17.6 137.243 17.8187 136.816 18.256C136.4 18.6933 136.192 19.36 136.192 20.256C136.192 20.992 136.368 21.5733 136.72 22C137.083 22.416 137.637 22.624 138.384 22.624C138.896 22.624 139.339 22.5227 139.712 22.32C140.085 22.1067 140.373 21.84 140.576 21.52C140.789 21.2 140.896 20.8693 140.896 20.528C140.896 20.1867 140.843 19.8453 140.736 19.504C140.64 19.152 140.491 18.832 140.288 18.544C140.085 18.256 139.829 18.0267 139.52 17.856C139.211 17.6853 138.853 17.6 138.448 17.6ZM143.796 24.336V23.088H147.668V24.336H143.796ZM156.633 21.456C156.633 22.1067 156.585 22.7573 156.489 23.408C156.403 24.048 156.249 24.656 156.025 25.232C155.801 25.7973 155.491 26.304 155.097 26.752C154.702 27.1893 154.201 27.536 153.593 27.792C152.985 28.0373 152.249 28.16 151.385 28.16C151.171 28.16 150.921 28.144 150.633 28.112C150.355 28.0907 150.126 28.0533 149.945 28V26.8C150.137 26.864 150.361 26.9173 150.617 26.96C150.873 26.992 151.118 27.008 151.353 27.008C152.099 27.008 152.713 26.8853 153.193 26.64C153.683 26.3947 154.073 26.064 154.361 25.648C154.649 25.2213 154.857 24.7307 154.985 24.176C155.113 23.6107 155.187 23.0187 155.209 22.4H155.113C154.953 22.6453 154.75 22.8693 154.505 23.072C154.259 23.2747 153.961 23.4347 153.609 23.552C153.267 23.6693 152.862 23.728 152.393 23.728C151.742 23.728 151.166 23.5947 150.664 23.328C150.174 23.0507 149.79 22.656 149.513 22.144C149.246 21.632 149.113 21.008 149.113 20.272C149.113 19.472 149.262 18.784 149.561 18.208C149.87 17.632 150.297 17.1893 150.841 16.88C151.385 16.5707 152.025 16.416 152.761 16.416C153.305 16.416 153.811 16.5227 154.281 16.736C154.75 16.9387 155.161 17.248 155.513 17.664C155.865 18.08 156.137 18.6027 156.329 19.232C156.531 19.8613 156.633 20.6027 156.633 21.456ZM152.761 17.6C152.099 17.6 151.555 17.8187 151.129 18.256C150.713 18.6933 150.505 19.36 150.505 20.256C150.505 20.992 150.681 21.5733 151.033 22C151.395 22.416 151.95 22.624 152.697 22.624C153.209 22.624 153.651 22.5227 154.025 22.32C154.398 22.1067 154.686 21.84 154.889 21.52C155.102 21.2 155.209 20.8693 155.209 20.528C155.209 20.1867 155.155 19.8453 155.049 19.504C154.953 19.152 154.803 18.832 154.601 18.544C154.398 18.256 154.142 18.0267 153.833 17.856C153.523 17.6853 153.166 17.6 152.761 17.6ZM165.789 21.456C165.789 22.1067 165.741 22.7573 165.645 23.408C165.559 24.048 165.405 24.656 165.181 25.232C164.957 25.7973 164.647 26.304 164.253 26.752C163.858 27.1893 163.357 27.536 162.749 27.792C162.141 28.0373 161.405 28.16 160.541 28.16C160.327 28.16 160.077 28.144 159.789 28.112C159.511 28.0907 159.282 28.0533 159.101 28V26.8C159.293 26.864 159.517 26.9173 159.773 26.96C160.029 26.992 160.274 27.008 160.509 27.008C161.255 27.008 161.869 26.8853 162.349 26.64C162.839 26.3947 163.229 26.064 163.517 25.648C163.805 25.2213 164.013 24.7307 164.141 24.176C164.269 23.6107 164.343 23.0187 164.365 22.4H164.269C164.109 22.6453 163.906 22.8693 163.661 23.072C163.415 23.2747 163.117 23.4347 162.765 23.552C162.423 23.6693 162.018 23.728 161.549 23.728C160.898 23.728 160.322 23.5947 159.821 23.328C159.33 23.0507 158.946 22.656 158.669 22.144C158.402 21.632 158.269 21.008 158.269 20.272C158.269 19.472 158.418 18.784 158.717 18.208C159.026 17.632 159.453 17.1893 159.997 16.88C160.541 16.5707 161.181 16.416 161.917 16.416C162.461 16.416 162.967 16.5227 163.437 16.736C163.906 16.9387 164.317 17.248 164.669 17.664C165.021 18.08 165.293 18.6027 165.485 19.232C165.687 19.8613 165.789 20.6027 165.789 21.456ZM161.917 17.6C161.255 17.6 160.711 17.8187 160.285 18.256C159.869 18.6933 159.661 19.36 159.661 20.256C159.661 20.992 159.837 21.5733 160.189 22C160.551 22.416 161.106 22.624 161.853 22.624C162.365 22.624 162.807 22.5227 163.181 22.32C163.554 22.1067 163.842 21.84 164.045 21.52C164.258 21.2 164.365 20.8693 164.365 20.528C164.365 20.1867 164.311 19.8453 164.205 19.504C164.109 19.152 163.959 18.832 163.757 18.544C163.554 18.256 163.298 18.0267 162.989 17.856C162.679 17.6853 162.322 17.6 161.917 17.6ZM167.265 24.336V23.088H171.137V24.336H167.265ZM180.101 21.456C180.101 22.1067 180.053 22.7573 179.957 23.408C179.872 24.048 179.717 24.656 179.493 25.232C179.269 25.7973 178.96 26.304 178.565 26.752C178.171 27.1893 177.669 27.536 177.061 27.792C176.453 28.0373 175.717 28.16 174.853 28.16C174.64 28.16 174.389 28.144 174.101 28.112C173.824 28.0907 173.595 28.0533 173.413 28V26.8C173.605 26.864 173.829 26.9173 174.085 26.96C174.341 26.992 174.587 27.008 174.821 27.008C175.568 27.008 176.181 26.8853 176.661 26.64C177.152 26.3947 177.541 26.064 177.829 25.648C178.117 25.2213 178.325 24.7307 178.453 24.176C178.581 23.6107 178.656 23.0187 178.677 22.4H178.581C178.421 22.6453 178.219 22.8693 177.973 23.072C177.728 23.2747 177.429 23.4347 177.077 23.552C176.736 23.6693 176.331 23.728 175.861 23.728C175.211 23.728 174.635 23.5947 174.133 23.328C173.643 23.0507 173.259 22.656 172.981 22.144C172.715 21.632 172.581 21.008 172.581 20.272C172.581 19.472 172.731 18.784 173.029 18.208C173.339 17.632 173.765 17.1893 174.309 16.88C174.853 16.5707 175.493 16.416 176.229 16.416C176.773 16.416 177.28 16.5227 177.749 16.736C178.219 16.9387 178.629 17.248 178.981 17.664C179.333 18.08 179.605 18.6027 179.797 19.232C180 19.8613 180.101 20.6027 180.101 21.456ZM176.229 17.6C175.568 17.6 175.024 17.8187 174.597 18.256C174.181 18.6933 173.973 19.36 173.973 20.256C173.973 20.992 174.149 21.5733 174.501 22C174.864 22.416 175.419 22.624 176.165 22.624C176.677 22.624 177.12 22.5227 177.493 22.32C177.867 22.1067 178.155 21.84 178.357 21.52C178.571 21.2 178.677 20.8693 178.677 20.528C178.677 20.1867 178.624 19.8453 178.517 19.504C178.421 19.152 178.272 18.832 178.069 18.544C177.867 18.256 177.611 18.0267 177.301 17.856C176.992 17.6853 176.635 17.6 176.229 17.6ZM189.258 21.456C189.258 22.1067 189.21 22.7573 189.114 23.408C189.028 24.048 188.874 24.656 188.65 25.232C188.426 25.7973 188.116 26.304 187.722 26.752C187.327 27.1893 186.826 27.536 186.218 27.792C185.61 28.0373 184.874 28.16 184.01 28.16C183.796 28.16 183.546 28.144 183.258 28.112C182.98 28.0907 182.751 28.0533 182.57 28V26.8C182.762 26.864 182.986 26.9173 183.242 26.96C183.498 26.992 183.743 27.008 183.978 27.008C184.724 27.008 185.338 26.8853 185.818 26.64C186.308 26.3947 186.698 26.064 186.986 25.648C187.274 25.2213 187.482 24.7307 187.61 24.176C187.738 23.6107 187.812 23.0187 187.834 22.4H187.738C187.578 22.6453 187.375 22.8693 187.13 23.072C186.884 23.2747 186.586 23.4347 186.234 23.552C185.892 23.6693 185.487 23.728 185.018 23.728C184.367 23.728 183.791 23.5947 183.289 23.328C182.799 23.0507 182.415 22.656 182.138 22.144C181.871 21.632 181.738 21.008 181.738 20.272C181.738 19.472 181.887 18.784 182.186 18.208C182.495 17.632 182.922 17.1893 183.466 16.88C184.01 16.5707 184.65 16.416 185.386 16.416C185.93 16.416 186.436 16.5227 186.906 16.736C187.375 16.9387 187.786 17.248 188.138 17.664C188.49 18.08 188.762 18.6027 188.954 19.232C189.156 19.8613 189.258 20.6027 189.258 21.456ZM185.386 17.6C184.724 17.6 184.18 17.8187 183.754 18.256C183.338 18.6933 183.13 19.36 183.13 20.256C183.13 20.992 183.306 21.5733 183.658 22C184.02 22.416 184.575 22.624 185.322 22.624C185.834 22.624 186.276 22.5227 186.65 22.32C187.023 22.1067 187.311 21.84 187.514 21.52C187.727 21.2 187.834 20.8693 187.834 20.528C187.834 20.1867 187.78 19.8453 187.674 19.504C187.578 19.152 187.428 18.832 187.226 18.544C187.023 18.256 186.767 18.0267 186.458 17.856C186.148 17.6853 185.791 17.6 185.386 17.6Z" fill="black"/>
</svg>
