<svg width="45" height="44" viewBox="0 0 45 44" fill="none" xmlns="http://www.w3.org/2000/svg">
<path d="M22.5293 44C34.5821 44 44.3529 34.1503 44.3529 22C44.3529 9.84974 34.5821 0 22.5293 0C10.4765 0 0.705811 9.84974 0.705811 22C0.705811 34.1503 10.4765 44 22.5293 44Z" fill="white"/>
<path d="M33.421 12.8995C33.6153 11.6338 32.4215 10.6347 31.3051 11.1289L9.06942 20.9704C8.26882 21.3248 8.32739 22.5473 9.15773 22.8138L13.7432 24.286C14.6185 24.5669 15.5661 24.4216 16.3304 23.8893L26.6688 16.689C26.9806 16.4719 27.3204 16.9188 27.054 17.1955L19.6122 24.9301C18.8903 25.6804 19.0335 26.9519 19.902 27.5008L28.2339 32.7679C29.1684 33.3586 30.3706 32.7652 30.5453 31.6267L33.421 12.8995Z" fill="black"/>
</svg>
