<svg width="44" height="44" viewBox="0 0 44 44" fill="none" xmlns="http://www.w3.org/2000/svg">
<path fill-rule="evenodd" clip-rule="evenodd" d="M22.1701 0C10.1392 0 0.352905 9.86817 0.352905 21.9998C0.352905 26.8111 1.89205 31.273 4.50848 34.8947L1.78925 43.0685L10.1775 40.3659C13.6276 42.6681 17.7448 44 22.1828 44C34.2137 44 44 34.1315 44 22.0002C44 9.86856 34.2137 0.000363668 22.1828 0.000363668L22.1701 0ZM16.0775 11.1749C15.6544 10.1532 15.3337 10.1146 14.6926 10.0883C14.4743 10.0755 14.231 10.0627 13.9614 10.0627C13.1274 10.0627 12.2553 10.3084 11.7294 10.8515C11.0883 11.5111 9.49771 13.05 9.49771 16.2059C9.49771 19.3619 11.7808 22.4141 12.0885 22.8412C12.4092 23.2675 16.5394 29.8378 22.9523 32.5155C27.9673 34.6107 29.4554 34.4165 30.5967 34.1709C32.264 33.8088 34.3549 32.5666 34.8809 31.0668C35.4068 29.5662 35.4068 28.2857 35.2526 28.0142C35.0987 27.7426 34.6752 27.5878 34.0341 27.2641C33.3931 26.9407 30.276 25.3886 29.686 25.1816C29.1086 24.9619 28.5573 25.0396 28.1215 25.6605C27.5058 26.5271 26.9031 27.4068 26.4155 27.9368C26.0307 28.3507 25.4019 28.4025 24.8763 28.1824C24.1708 27.8853 22.1958 27.1863 19.7586 25.0006C17.873 23.3066 16.5905 21.1986 16.2187 20.5649C15.8466 19.9185 16.1803 19.5429 16.475 19.1939C16.7957 18.7928 17.1034 18.5084 17.4241 18.1332C17.7448 17.7583 17.9244 17.5641 18.1296 17.1243C18.3479 16.6976 18.1937 16.2578 18.0398 15.9344C17.886 15.611 16.6035 12.455 16.0775 11.1749Z" fill="#5D5E42"/>
<path d="M16.0775 11.1749C15.6544 10.1532 15.3337 10.1146 14.6926 10.0883C14.4743 10.0755 14.231 10.0627 13.9614 10.0627C13.1274 10.0627 12.2553 10.3084 11.7294 10.8515C11.0883 11.5111 9.49771 13.05 9.49771 16.2059C9.49771 19.3619 11.7808 22.4141 12.0885 22.8412C12.4092 23.2675 16.5394 29.8378 22.9523 32.5155C27.9673 34.6107 29.4554 34.4165 30.5967 34.1709C32.264 33.8088 34.3549 32.5666 34.8809 31.0668C35.4068 29.5662 35.4068 28.2857 35.2526 28.0142C35.0987 27.7426 34.6752 27.5878 34.0341 27.2641C33.3931 26.9407 30.276 25.3886 29.686 25.1816C29.1086 24.9619 28.5573 25.0396 28.1215 25.6605C27.5058 26.5271 26.9031 27.4068 26.4155 27.9368C26.0307 28.3507 25.4019 28.4025 24.8763 28.1824C24.1708 27.8853 22.1958 27.1863 19.7586 25.0006C17.873 23.3066 16.5905 21.1986 16.2187 20.5649C15.8466 19.9185 16.1803 19.5429 16.475 19.1939C16.7957 18.7928 17.1034 18.5084 17.4241 18.1332C17.7448 17.7583 17.9244 17.5641 18.1296 17.1243C18.3479 16.6976 18.1937 16.2578 18.0398 15.9344C17.886 15.611 16.6035 12.455 16.0775 11.1749Z" fill="white"/>
</svg>
