<svg width="380" height="115" viewBox="0 0 380 115" fill="none" xmlns="http://www.w3.org/2000/svg">
<rect y="0.513672" width="380" height="114" rx="20" fill="#232A11"/>
<rect y="0.513672" width="380" height="114" rx="20" fill="black" fill-opacity="0.2"/>
<path d="M99.0651 39.5137V25.4137H104.805C106.272 25.4137 107.405 25.7403 108.205 26.3937C109.005 27.0337 109.405 27.9337 109.405 29.0937C109.405 29.9603 109.152 30.687 108.645 31.2737C108.138 31.8603 107.445 32.2537 106.565 32.4537V32.1537C107.218 32.2337 107.785 32.427 108.265 32.7337C108.745 33.027 109.112 33.4203 109.365 33.9137C109.618 34.3937 109.745 34.9603 109.745 35.6137C109.745 36.4537 109.558 37.167 109.185 37.7537C108.825 38.327 108.292 38.767 107.585 39.0737C106.878 39.367 106.032 39.5137 105.045 39.5137H99.0651ZM100.865 38.0537H104.845C105.258 38.0537 105.632 38.027 105.965 37.9737C106.298 37.907 106.585 37.807 106.825 37.6737C107.065 37.5403 107.265 37.3737 107.425 37.1737C107.598 36.9737 107.725 36.7403 107.805 36.4737C107.885 36.207 107.925 35.907 107.925 35.5737C107.925 35.227 107.885 34.927 107.805 34.6737C107.725 34.407 107.598 34.1803 107.425 33.9937C107.265 33.7937 107.065 33.627 106.825 33.4937C106.585 33.3603 106.298 33.267 105.965 33.2137C105.632 33.147 105.258 33.1137 104.845 33.1137H100.865V38.0537ZM100.865 31.6337H104.525C105.538 31.6337 106.298 31.4337 106.805 31.0337C107.325 30.6203 107.585 30.027 107.585 29.2537C107.585 28.4803 107.325 27.8937 106.805 27.4937C106.298 27.0803 105.538 26.8737 104.525 26.8737H100.865V31.6337ZM112.499 39.5137V29.7737H114.159V37.7337H113.639L119.619 29.7737H121.139V39.5137H119.499V31.5337H120.019L114.039 39.5137H112.499ZM123.217 42.1137V38.0537H124.277C124.584 37.6137 124.824 37.1337 124.997 36.6137C125.184 36.0937 125.317 35.507 125.397 34.8537C125.477 34.187 125.517 33.447 125.517 32.6337V29.7737H132.577V38.0537H134.137V42.1137H132.557V39.5137H124.797V42.1137H123.217ZM125.997 38.0537H130.857V31.1937H127.117V32.9737C127.117 33.9337 127.017 34.867 126.817 35.7737C126.63 36.667 126.357 37.427 125.997 38.0537ZM140.71 39.6937C139.657 39.6937 138.75 39.4937 137.99 39.0937C137.244 38.6803 136.664 38.1003 136.25 37.3537C135.837 36.5937 135.63 35.7003 135.63 34.6737C135.63 33.6603 135.83 32.7737 136.23 32.0137C136.644 31.2537 137.204 30.6603 137.91 30.2337C138.63 29.807 139.45 29.5937 140.37 29.5937C141.264 29.5937 142.024 29.787 142.65 30.1737C143.29 30.5603 143.777 31.1137 144.11 31.8337C144.457 32.5403 144.63 33.3937 144.63 34.3937V35.0537H137.05V33.8937H143.43L143.09 34.1737C143.09 33.1337 142.864 32.3337 142.41 31.7737C141.957 31.2003 141.29 30.9137 140.41 30.9137C139.77 30.9137 139.224 31.067 138.77 31.3737C138.317 31.667 137.97 32.087 137.73 32.6337C137.49 33.167 137.37 33.787 137.37 34.4937V34.6137C137.37 35.4137 137.497 36.087 137.75 36.6337C138.017 37.167 138.397 37.5737 138.89 37.8537C139.384 38.1203 139.99 38.2537 140.71 38.2537C141.284 38.2537 141.837 38.167 142.37 37.9937C142.917 37.807 143.43 37.5203 143.91 37.1337L144.47 38.3937C144.03 38.7937 143.464 39.1137 142.77 39.3537C142.09 39.5803 141.404 39.6937 140.71 39.6937ZM151.249 39.6937C150.289 39.6937 149.455 39.487 148.749 39.0737C148.042 38.6603 147.495 38.0737 147.109 37.3137C146.722 36.5537 146.529 35.6603 146.529 34.6337C146.529 33.607 146.722 32.7203 147.109 31.9737C147.495 31.2137 148.042 30.627 148.749 30.2137C149.455 29.8003 150.289 29.5937 151.249 29.5937C152.209 29.5937 153.042 29.8003 153.749 30.2137C154.455 30.627 155.002 31.2137 155.389 31.9737C155.775 32.7203 155.969 33.607 155.969 34.6337C155.969 35.6603 155.775 36.5537 155.389 37.3137C155.002 38.0737 154.455 38.6603 153.749 39.0737C153.042 39.487 152.209 39.6937 151.249 39.6937ZM151.249 38.2537C152.129 38.2537 152.829 37.947 153.349 37.3337C153.869 36.707 154.129 35.807 154.129 34.6337C154.129 33.4603 153.869 32.567 153.349 31.9537C152.829 31.3403 152.129 31.0337 151.249 31.0337C150.382 31.0337 149.682 31.3403 149.149 31.9537C148.629 32.567 148.369 33.4603 148.369 34.6337C148.369 35.807 148.629 36.707 149.149 37.3337C149.682 37.947 150.382 38.2537 151.249 38.2537ZM158.534 39.5137V29.7737H160.354V33.7737H165.434V29.7737H167.254V39.5137H165.434V35.2337H160.354V39.5137H158.534ZM173.47 39.6937C172.804 39.6937 172.197 39.5603 171.65 39.2937C171.117 39.027 170.697 38.667 170.39 38.2137C170.097 37.7603 169.95 37.2537 169.95 36.6937C169.95 35.9737 170.13 35.407 170.49 34.9937C170.85 34.5803 171.457 34.287 172.31 34.1137C173.164 33.927 174.31 33.8337 175.75 33.8337H176.69V34.9937H175.79C175.017 34.9937 174.37 35.0203 173.85 35.0737C173.33 35.127 172.917 35.2137 172.61 35.3337C172.304 35.4537 172.084 35.6203 171.95 35.8337C171.817 36.0337 171.75 36.287 171.75 36.5937C171.75 37.1137 171.93 37.5403 172.29 37.8737C172.664 38.207 173.17 38.3737 173.81 38.3737C174.317 38.3737 174.764 38.2537 175.15 38.0137C175.537 37.7603 175.844 37.427 176.07 37.0137C176.297 36.587 176.41 36.1003 176.41 35.5537V33.2537C176.41 32.467 176.25 31.9003 175.93 31.5537C175.61 31.1937 175.07 31.0137 174.31 31.0137C173.75 31.0137 173.19 31.1003 172.63 31.2737C172.084 31.447 171.517 31.7137 170.93 32.0737L170.35 30.7737C170.697 30.5337 171.09 30.327 171.53 30.1537C171.984 29.967 172.45 29.827 172.93 29.7337C173.424 29.6403 173.897 29.5937 174.35 29.5937C175.217 29.5937 175.93 29.7337 176.49 30.0137C177.05 30.2803 177.47 30.7003 177.75 31.2737C178.03 31.8337 178.17 32.5537 178.17 33.4337V39.5137H176.45V37.2937H176.63C176.524 37.787 176.324 38.2137 176.03 38.5737C175.737 38.9337 175.37 39.2137 174.93 39.4137C174.504 39.6003 174.017 39.6937 173.47 39.6937ZM185.469 39.6937C184.483 39.6937 183.629 39.487 182.909 39.0737C182.189 38.647 181.636 38.0203 181.249 37.1937C180.876 36.3537 180.689 35.3337 180.689 34.1337V32.6337C180.689 31.8603 180.749 31.1603 180.869 30.5337C180.989 29.907 181.176 29.3603 181.429 28.8937C181.696 28.4137 182.023 27.987 182.409 27.6137C182.796 27.2403 183.243 26.927 183.749 26.6737C184.269 26.4203 184.849 26.207 185.489 26.0337L188.929 25.0937L189.529 26.5737L185.609 27.6137C184.556 27.8803 183.756 28.3803 183.209 29.1137C182.676 29.847 182.409 30.747 182.409 31.8137V32.6737H182.129C182.276 32.087 182.523 31.5803 182.869 31.1537C183.216 30.7137 183.643 30.3737 184.149 30.1337C184.669 29.8937 185.249 29.7737 185.889 29.7737C186.529 29.7737 187.103 29.887 187.609 30.1137C188.129 30.3403 188.576 30.667 188.949 31.0937C189.323 31.5203 189.609 32.0403 189.809 32.6537C190.023 33.2537 190.129 33.927 190.129 34.6737C190.129 35.7003 189.936 36.587 189.549 37.3337C189.163 38.0803 188.623 38.6603 187.929 39.0737C187.236 39.487 186.416 39.6937 185.469 39.6937ZM185.389 38.2537C186.296 38.2537 187.003 37.9537 187.509 37.3537C188.029 36.7403 188.289 35.867 188.289 34.7337C188.289 33.6137 188.029 32.747 187.509 32.1337C187.003 31.5203 186.303 31.2137 185.409 31.2137C184.516 31.2137 183.809 31.5137 183.289 32.1137C182.783 32.7137 182.529 33.5403 182.529 34.5937C182.529 35.7937 182.776 36.707 183.269 37.3337C183.776 37.947 184.483 38.2537 185.389 38.2537ZM192 39.7537L191.36 38.3137C191.813 38.127 192.186 37.8937 192.48 37.6137C192.786 37.3203 193.026 36.947 193.2 36.4937C193.373 36.0403 193.5 35.4803 193.58 34.8137C193.66 34.147 193.7 33.3403 193.7 32.3937V29.7737H200.94V39.5137H199.12V31.2337H195.4V32.4337C195.4 33.5537 195.333 34.5337 195.2 35.3737C195.08 36.2003 194.886 36.9003 194.62 37.4737C194.353 38.047 194 38.5203 193.56 38.8937C193.133 39.267 192.613 39.5537 192 39.7537ZM212.382 39.6937C211.488 39.6937 210.708 39.5137 210.042 39.1537C209.375 38.7937 208.842 38.2803 208.442 37.6137C208.042 36.9337 207.802 36.1337 207.722 35.2137H205.842V39.5137H204.062V29.7737H205.842V33.7737H207.742C207.915 32.4803 208.408 31.4603 209.222 30.7137C210.035 29.967 211.088 29.5937 212.382 29.5937C213.342 29.5937 214.175 29.8003 214.882 30.2137C215.588 30.627 216.135 31.2137 216.522 31.9737C216.908 32.7203 217.102 33.607 217.102 34.6337C217.102 35.6603 216.908 36.5537 216.522 37.3137C216.135 38.0737 215.588 38.6603 214.882 39.0737C214.175 39.487 213.342 39.6937 212.382 39.6937ZM212.382 38.2537C213.262 38.2537 213.962 37.947 214.482 37.3337C215.002 36.707 215.262 35.807 215.262 34.6337C215.262 33.4603 215.002 32.567 214.482 31.9537C213.962 31.3403 213.262 31.0337 212.382 31.0337C211.515 31.0337 210.815 31.3403 210.282 31.9537C209.762 32.567 209.502 33.4603 209.502 34.6337C209.502 35.807 209.762 36.707 210.282 37.3337C210.815 37.947 211.515 38.2537 212.382 38.2537ZM218.627 42.1137V38.0537H219.687C219.994 37.6137 220.234 37.1337 220.407 36.6137C220.594 36.0937 220.727 35.507 220.807 34.8537C220.887 34.187 220.927 33.447 220.927 32.6337V29.7737H227.987V38.0537H229.547V42.1137H227.967V39.5137H220.207V42.1137H218.627ZM221.407 38.0537H226.267V31.1937H222.527V32.9737C222.527 33.9337 222.427 34.867 222.227 35.7737C222.041 36.667 221.767 37.427 221.407 38.0537ZM236.12 39.6937C235.067 39.6937 234.16 39.4937 233.4 39.0937C232.654 38.6803 232.074 38.1003 231.66 37.3537C231.247 36.5937 231.04 35.7003 231.04 34.6737C231.04 33.6603 231.24 32.7737 231.64 32.0137C232.054 31.2537 232.614 30.6603 233.32 30.2337C234.04 29.807 234.86 29.5937 235.78 29.5937C236.674 29.5937 237.434 29.787 238.06 30.1737C238.7 30.5603 239.187 31.1137 239.52 31.8337C239.867 32.5403 240.04 33.3937 240.04 34.3937V35.0537H232.46V33.8937H238.84L238.5 34.1737C238.5 33.1337 238.274 32.3337 237.82 31.7737C237.367 31.2003 236.7 30.9137 235.82 30.9137C235.18 30.9137 234.634 31.067 234.18 31.3737C233.727 31.667 233.38 32.087 233.14 32.6337C232.9 33.167 232.78 33.787 232.78 34.4937V34.6137C232.78 35.4137 232.907 36.087 233.16 36.6337C233.427 37.167 233.807 37.5737 234.3 37.8537C234.794 38.1203 235.4 38.2537 236.12 38.2537C236.694 38.2537 237.247 38.167 237.78 37.9937C238.327 37.807 238.84 37.5203 239.32 37.1337L239.88 38.3937C239.44 38.7937 238.874 39.1137 238.18 39.3537C237.5 39.5803 236.814 39.6937 236.12 39.6937ZM242.519 39.5137V29.7737H244.339V33.7737H249.419V29.7737H251.239V39.5137H249.419V35.2337H244.339V39.5137H242.519ZM254.355 39.5137V29.7737H256.015V37.7337H255.495L261.475 29.7737H262.995V39.5137H261.355V31.5337H261.875L255.895 39.5137H254.355ZM270.613 39.6937C269.559 39.6937 268.653 39.4937 267.893 39.0937C267.146 38.6803 266.566 38.1003 266.153 37.3537C265.739 36.5937 265.533 35.7003 265.533 34.6737C265.533 33.6603 265.733 32.7737 266.133 32.0137C266.546 31.2537 267.106 30.6603 267.813 30.2337C268.533 29.807 269.353 29.5937 270.273 29.5937C271.166 29.5937 271.926 29.787 272.553 30.1737C273.193 30.5603 273.679 31.1137 274.013 31.8337C274.359 32.5403 274.533 33.3937 274.533 34.3937V35.0537H266.953V33.8937H273.333L272.993 34.1737C272.993 33.1337 272.766 32.3337 272.313 31.7737C271.859 31.2003 271.193 30.9137 270.313 30.9137C269.673 30.9137 269.126 31.067 268.673 31.3737C268.219 31.667 267.873 32.087 267.633 32.6337C267.393 33.167 267.273 33.787 267.273 34.4937V34.6137C267.273 35.4137 267.399 36.087 267.653 36.6337C267.919 37.167 268.299 37.5737 268.793 37.8537C269.286 38.1203 269.893 38.2537 270.613 38.2537C271.186 38.2537 271.739 38.167 272.273 37.9937C272.819 37.807 273.333 37.5203 273.813 37.1337L274.373 38.3937C273.933 38.7937 273.366 39.1137 272.673 39.3537C271.993 39.5803 271.306 39.6937 270.613 39.6937Z" fill="white"/>
<path d="M98.7811 62.5137V54.1137H105.849V62.5137H104.973V54.6417L105.201 54.8817H99.4291L99.6571 54.6417V62.5137H98.7811ZM111.071 62.5737C110.463 62.5737 109.915 62.4377 109.427 62.1657C108.947 61.8857 108.567 61.5057 108.287 61.0257C108.007 60.5377 107.867 59.9817 107.867 59.3577C107.867 58.7257 108.007 58.1697 108.287 57.6897C108.567 57.2097 108.947 56.8337 109.427 56.5617C109.907 56.2897 110.455 56.1537 111.071 56.1537C111.695 56.1537 112.247 56.2897 112.727 56.5617C113.215 56.8337 113.595 57.2097 113.867 57.6897C114.147 58.1697 114.287 58.7257 114.287 59.3577C114.287 59.9817 114.147 60.5377 113.867 61.0257C113.595 61.5057 113.215 61.8857 112.727 62.1657C112.239 62.4377 111.687 62.5737 111.071 62.5737ZM111.071 61.8177C111.527 61.8177 111.931 61.7177 112.283 61.5177C112.635 61.3097 112.911 61.0217 113.111 60.6537C113.319 60.2777 113.423 59.8457 113.423 59.3577C113.423 58.8617 113.319 58.4297 113.111 58.0617C112.911 57.6937 112.635 57.4097 112.283 57.2097C111.931 57.0017 111.531 56.8977 111.083 56.8977C110.635 56.8977 110.235 57.0017 109.883 57.2097C109.531 57.4097 109.251 57.6937 109.043 58.0617C108.835 58.4297 108.731 58.8617 108.731 59.3577C108.731 59.8457 108.835 60.2777 109.043 60.6537C109.251 61.0217 109.531 61.3097 109.883 61.5177C110.235 61.7177 110.631 61.8177 111.071 61.8177ZM114.921 62.5017L114.981 61.7697C115.037 61.7777 115.089 61.7897 115.137 61.8057C115.193 61.8137 115.241 61.8177 115.281 61.8177C115.537 61.8177 115.741 61.7217 115.893 61.5297C116.053 61.3377 116.173 61.0817 116.253 60.7617C116.333 60.4417 116.389 60.0817 116.421 59.6817C116.453 59.2737 116.481 58.8657 116.505 58.4577L116.613 56.2137H121.233V62.5137H120.381V56.7057L120.597 56.9577H117.165L117.369 56.6937L117.273 58.5177C117.249 59.0617 117.205 59.5817 117.141 60.0777C117.085 60.5737 116.993 61.0097 116.865 61.3857C116.745 61.7617 116.577 62.0577 116.361 62.2737C116.145 62.4817 115.869 62.5857 115.533 62.5857C115.437 62.5857 115.337 62.5777 115.233 62.5617C115.137 62.5457 115.033 62.5257 114.921 62.5017ZM123.655 62.5137V56.2137H124.507V58.9977H128.479V56.2137H129.331V62.5137H128.479V59.7297H124.507V62.5137H123.655ZM137.897 62.5137V56.2137H138.749V62.5137H137.897ZM134.405 58.4337C135.197 58.4417 135.801 58.6177 136.217 58.9617C136.633 59.3057 136.841 59.8017 136.841 60.4497C136.841 61.1217 136.617 61.6377 136.169 61.9977C135.721 62.3577 135.081 62.5337 134.249 62.5257L131.753 62.5137V56.2137H132.605V58.4097L134.405 58.4337ZM134.189 61.8777C134.781 61.8857 135.225 61.7697 135.521 61.5297C135.825 61.2817 135.977 60.9217 135.977 60.4497C135.977 59.9777 135.829 59.6337 135.533 59.4177C135.237 59.1937 134.789 59.0777 134.189 59.0697L132.605 59.0457V61.8537L134.189 61.8777ZM141.175 62.5137V56.2137H142.027V61.2177L146.239 56.2137H146.995V62.5137H146.143V57.4977L141.943 62.5137H141.175ZM144.031 55.3017C143.503 55.3017 143.075 55.1697 142.747 54.9057C142.427 54.6337 142.259 54.2457 142.243 53.7417H142.855C142.863 54.0617 142.975 54.3137 143.191 54.4977C143.407 54.6817 143.687 54.7737 144.031 54.7737C144.375 54.7737 144.655 54.6817 144.871 54.4977C145.095 54.3137 145.211 54.0617 145.219 53.7417H145.831C145.823 54.2457 145.655 54.6337 145.327 54.9057C144.999 55.1697 144.567 55.3017 144.031 55.3017ZM157.197 62.5137L154.605 59.3937L155.313 58.9737L158.205 62.5137H157.197ZM152.577 62.5137V56.2137H153.429V62.5137H152.577ZM153.165 59.7057V58.9737H155.193V59.7057H153.165ZM155.385 59.4537L154.593 59.3337L157.101 56.2137H158.025L155.385 59.4537ZM161.919 62.5737C161.311 62.5737 160.763 62.4377 160.275 62.1657C159.795 61.8857 159.415 61.5057 159.135 61.0257C158.855 60.5377 158.715 59.9817 158.715 59.3577C158.715 58.7257 158.855 58.1697 159.135 57.6897C159.415 57.2097 159.795 56.8337 160.275 56.5617C160.755 56.2897 161.303 56.1537 161.919 56.1537C162.543 56.1537 163.095 56.2897 163.575 56.5617C164.063 56.8337 164.443 57.2097 164.715 57.6897C164.995 58.1697 165.135 58.7257 165.135 59.3577C165.135 59.9817 164.995 60.5377 164.715 61.0257C164.443 61.5057 164.063 61.8857 163.575 62.1657C163.087 62.4377 162.535 62.5737 161.919 62.5737ZM161.919 61.8177C162.375 61.8177 162.779 61.7177 163.131 61.5177C163.483 61.3097 163.759 61.0217 163.959 60.6537C164.167 60.2777 164.271 59.8457 164.271 59.3577C164.271 58.8617 164.167 58.4297 163.959 58.0617C163.759 57.6937 163.483 57.4097 163.131 57.2097C162.779 57.0017 162.379 56.8977 161.931 56.8977C161.483 56.8977 161.083 57.0017 160.731 57.2097C160.379 57.4097 160.099 57.6937 159.891 58.0617C159.683 58.4297 159.579 58.8617 159.579 59.3577C159.579 59.8457 159.683 60.2777 159.891 60.6537C160.099 61.0217 160.379 61.3097 160.731 61.5177C161.083 61.7177 161.479 61.8177 161.919 61.8177ZM166.956 62.5137V56.2137H167.808V58.9977H171.78V56.2137H172.632V62.5137H171.78V59.7297H167.808V62.5137H166.956ZM176.254 62.5137V56.7297L176.47 56.9577H173.866V56.2137H179.494V56.9577H176.89L177.106 56.7297V62.5137H176.254ZM183.978 62.5737C183.434 62.5737 182.942 62.4497 182.502 62.2017C182.062 61.9457 181.71 61.5817 181.446 61.1097C181.19 60.6297 181.062 60.0457 181.062 59.3577C181.062 58.6697 181.19 58.0897 181.446 57.6177C181.702 57.1377 182.05 56.7737 182.49 56.5257C182.93 56.2777 183.426 56.1537 183.978 56.1537C184.578 56.1537 185.114 56.2897 185.586 56.5617C186.066 56.8257 186.442 57.2017 186.714 57.6897C186.986 58.1697 187.122 58.7257 187.122 59.3577C187.122 59.9977 186.986 60.5577 186.714 61.0377C186.442 61.5177 186.066 61.8937 185.586 62.1657C185.114 62.4377 184.578 62.5737 183.978 62.5737ZM180.726 64.8417V56.2137H181.542V58.1097L181.458 59.3697L181.578 60.6417V64.8417H180.726ZM183.918 61.8177C184.366 61.8177 184.766 61.7177 185.118 61.5177C185.47 61.3097 185.75 61.0217 185.958 60.6537C186.166 60.2777 186.27 59.8457 186.27 59.3577C186.27 58.8697 186.166 58.4417 185.958 58.0737C185.75 57.7057 185.47 57.4177 185.118 57.2097C184.766 57.0017 184.366 56.8977 183.918 56.8977C183.47 56.8977 183.066 57.0017 182.706 57.2097C182.354 57.4177 182.074 57.7057 181.866 58.0737C181.666 58.4417 181.566 58.8697 181.566 59.3577C181.566 59.8457 181.666 60.2777 181.866 60.6537C182.074 61.0217 182.354 61.3097 182.706 61.5177C183.066 61.7177 183.47 61.8177 183.918 61.8177ZM191.544 62.5737C190.936 62.5737 190.388 62.4377 189.9 62.1657C189.42 61.8857 189.04 61.5057 188.76 61.0257C188.48 60.5377 188.34 59.9817 188.34 59.3577C188.34 58.7257 188.48 58.1697 188.76 57.6897C189.04 57.2097 189.42 56.8337 189.9 56.5617C190.38 56.2897 190.928 56.1537 191.544 56.1537C192.168 56.1537 192.72 56.2897 193.2 56.5617C193.688 56.8337 194.068 57.2097 194.34 57.6897C194.62 58.1697 194.76 58.7257 194.76 59.3577C194.76 59.9817 194.62 60.5377 194.34 61.0257C194.068 61.5057 193.688 61.8857 193.2 62.1657C192.712 62.4377 192.16 62.5737 191.544 62.5737ZM191.544 61.8177C192 61.8177 192.404 61.7177 192.756 61.5177C193.108 61.3097 193.384 61.0217 193.584 60.6537C193.792 60.2777 193.896 59.8457 193.896 59.3577C193.896 58.8617 193.792 58.4297 193.584 58.0617C193.384 57.6937 193.108 57.4097 192.756 57.2097C192.404 57.0017 192.004 56.8977 191.556 56.8977C191.108 56.8977 190.708 57.0017 190.356 57.2097C190.004 57.4097 189.724 57.6937 189.516 58.0617C189.308 58.4297 189.204 58.8617 189.204 59.3577C189.204 59.8457 189.308 60.2777 189.516 60.6537C189.724 61.0217 190.004 61.3097 190.356 61.5177C190.708 61.7177 191.104 61.8177 191.544 61.8177ZM195.394 62.5017L195.454 61.7697C195.51 61.7777 195.562 61.7897 195.61 61.8057C195.666 61.8137 195.714 61.8177 195.754 61.8177C196.01 61.8177 196.214 61.7217 196.366 61.5297C196.526 61.3377 196.646 61.0817 196.726 60.7617C196.806 60.4417 196.862 60.0817 196.894 59.6817C196.926 59.2737 196.954 58.8657 196.978 58.4577L197.086 56.2137H201.706V62.5137H200.854V56.7057L201.07 56.9577H197.638L197.842 56.6937L197.746 58.5177C197.722 59.0617 197.678 59.5817 197.614 60.0777C197.558 60.5737 197.466 61.0097 197.338 61.3857C197.218 61.7617 197.05 62.0577 196.834 62.2737C196.618 62.4817 196.342 62.5857 196.006 62.5857C195.91 62.5857 195.81 62.5777 195.706 62.5617C195.61 62.5457 195.506 62.5257 195.394 62.5017ZM206.84 58.4337C207.632 58.4417 208.232 58.6177 208.64 58.9617C209.056 59.3057 209.264 59.8017 209.264 60.4497C209.264 61.1217 209.04 61.6377 208.592 61.9977C208.152 62.3577 207.512 62.5337 206.672 62.5257L204.128 62.5137V56.2137H204.98V58.4097L206.84 58.4337ZM206.624 61.8777C207.208 61.8857 207.648 61.7697 207.944 61.5297C208.248 61.2817 208.4 60.9217 208.4 60.4497C208.4 59.9777 208.252 59.6337 207.956 59.4177C207.66 59.1937 207.216 59.0777 206.624 59.0697L204.98 59.0457V61.8537L206.624 61.8777ZM212.998 62.5137L215.662 59.0577L215.65 59.4777L213.118 56.2137H214.078L216.154 58.9137L215.794 58.9017L217.87 56.2137H218.806L216.25 59.5137L216.262 59.0577L218.95 62.5137H217.978L215.782 59.6337L216.118 59.6817L213.958 62.5137H212.998ZM222.716 62.5737C222.108 62.5737 221.56 62.4377 221.072 62.1657C220.592 61.8857 220.212 61.5057 219.932 61.0257C219.652 60.5377 219.512 59.9817 219.512 59.3577C219.512 58.7257 219.652 58.1697 219.932 57.6897C220.212 57.2097 220.592 56.8337 221.072 56.5617C221.552 56.2897 222.1 56.1537 222.716 56.1537C223.34 56.1537 223.892 56.2897 224.372 56.5617C224.86 56.8337 225.24 57.2097 225.512 57.6897C225.792 58.1697 225.932 58.7257 225.932 59.3577C225.932 59.9817 225.792 60.5377 225.512 61.0257C225.24 61.5057 224.86 61.8857 224.372 62.1657C223.884 62.4377 223.332 62.5737 222.716 62.5737ZM222.716 61.8177C223.172 61.8177 223.576 61.7177 223.928 61.5177C224.28 61.3097 224.556 61.0217 224.756 60.6537C224.964 60.2777 225.068 59.8457 225.068 59.3577C225.068 58.8617 224.964 58.4297 224.756 58.0617C224.556 57.6937 224.28 57.4097 223.928 57.2097C223.576 57.0017 223.176 56.8977 222.728 56.8977C222.28 56.8977 221.88 57.0017 221.528 57.2097C221.176 57.4097 220.896 57.6937 220.688 58.0617C220.48 58.4297 220.376 58.8617 220.376 59.3577C220.376 59.8457 220.48 60.2777 220.688 60.6537C220.896 61.0217 221.176 61.3097 221.528 61.5177C221.88 61.7177 222.276 61.8177 222.716 61.8177ZM232.038 62.1057V56.9577H229.002L228.93 58.3617C228.914 58.7857 228.886 59.2017 228.846 59.6097C228.814 60.0177 228.754 60.3937 228.666 60.7377C228.586 61.0737 228.47 61.3497 228.318 61.5657C228.166 61.7737 227.97 61.8937 227.73 61.9257L226.878 61.7697C227.126 61.7777 227.33 61.6897 227.49 61.5057C227.65 61.3137 227.774 61.0537 227.862 60.7257C227.95 60.3977 228.014 60.0257 228.054 59.6097C228.094 59.1857 228.126 58.7537 228.15 58.3137L228.234 56.2137H232.89V62.1057H232.038ZM226.614 64.0377V61.7697H233.874V64.0377H233.07V62.5137H227.418V64.0377H226.614ZM239.446 62.5137V61.1217L239.41 60.8937V58.5657C239.41 58.0297 239.258 57.6177 238.954 57.3297C238.658 57.0417 238.214 56.8977 237.622 56.8977C237.214 56.8977 236.826 56.9657 236.458 57.1017C236.09 57.2377 235.778 57.4177 235.522 57.6417L235.138 57.0057C235.458 56.7337 235.842 56.5257 236.29 56.3817C236.738 56.2297 237.21 56.1537 237.706 56.1537C238.522 56.1537 239.15 56.3577 239.59 56.7657C240.038 57.1657 240.262 57.7777 240.262 58.6017V62.5137H239.446ZM237.274 62.5737C236.802 62.5737 236.39 62.4977 236.038 62.3457C235.694 62.1857 235.43 61.9697 235.246 61.6977C235.062 61.4177 234.97 61.0977 234.97 60.7377C234.97 60.4097 235.046 60.1137 235.198 59.8497C235.358 59.5777 235.614 59.3617 235.966 59.2017C236.326 59.0337 236.806 58.9497 237.406 58.9497H239.578V59.5857H237.43C236.822 59.5857 236.398 59.6937 236.158 59.9097C235.926 60.1257 235.81 60.3937 235.81 60.7137C235.81 61.0737 235.95 61.3617 236.23 61.5777C236.51 61.7937 236.902 61.9017 237.406 61.9017C237.886 61.9017 238.298 61.7937 238.642 61.5777C238.994 61.3537 239.25 61.0337 239.41 60.6177L239.602 61.2057C239.442 61.6217 239.162 61.9537 238.762 62.2017C238.37 62.4497 237.874 62.5737 237.274 62.5737ZM248.923 62.5737C248.379 62.5737 247.887 62.4497 247.447 62.2017C247.007 61.9457 246.655 61.5817 246.391 61.1097C246.135 60.6297 246.007 60.0457 246.007 59.3577C246.007 58.6697 246.135 58.0897 246.391 57.6177C246.647 57.1377 246.995 56.7737 247.435 56.5257C247.875 56.2777 248.371 56.1537 248.923 56.1537C249.523 56.1537 250.059 56.2897 250.531 56.5617C251.011 56.8257 251.387 57.2017 251.659 57.6897C251.931 58.1697 252.067 58.7257 252.067 59.3577C252.067 59.9977 251.931 60.5577 251.659 61.0377C251.387 61.5177 251.011 61.8937 250.531 62.1657C250.059 62.4377 249.523 62.5737 248.923 62.5737ZM245.671 64.8417V56.2137H246.487V58.1097L246.403 59.3697L246.523 60.6417V64.8417H245.671ZM248.863 61.8177C249.311 61.8177 249.711 61.7177 250.063 61.5177C250.415 61.3097 250.695 61.0217 250.903 60.6537C251.111 60.2777 251.215 59.8457 251.215 59.3577C251.215 58.8697 251.111 58.4417 250.903 58.0737C250.695 57.7057 250.415 57.4177 250.063 57.2097C249.711 57.0017 249.311 56.8977 248.863 56.8977C248.415 56.8977 248.011 57.0017 247.651 57.2097C247.299 57.4177 247.019 57.7057 246.811 58.0737C246.611 58.4417 246.511 58.8697 246.511 59.3577C246.511 59.8457 246.611 60.2777 246.811 60.6537C247.019 61.0217 247.299 61.3097 247.651 61.5177C248.011 61.7177 248.415 61.8177 248.863 61.8177ZM257.774 62.5137V61.1217L257.738 60.8937V58.5657C257.738 58.0297 257.586 57.6177 257.282 57.3297C256.986 57.0417 256.542 56.8977 255.95 56.8977C255.542 56.8977 255.154 56.9657 254.786 57.1017C254.418 57.2377 254.106 57.4177 253.85 57.6417L253.466 57.0057C253.786 56.7337 254.17 56.5257 254.618 56.3817C255.066 56.2297 255.538 56.1537 256.034 56.1537C256.85 56.1537 257.478 56.3577 257.918 56.7657C258.366 57.1657 258.59 57.7777 258.59 58.6017V62.5137H257.774ZM255.602 62.5737C255.13 62.5737 254.718 62.4977 254.366 62.3457C254.022 62.1857 253.758 61.9697 253.574 61.6977C253.39 61.4177 253.298 61.0977 253.298 60.7377C253.298 60.4097 253.374 60.1137 253.526 59.8497C253.686 59.5777 253.942 59.3617 254.294 59.2017C254.654 59.0337 255.134 58.9497 255.734 58.9497H257.906V59.5857H255.758C255.15 59.5857 254.726 59.6937 254.486 59.9097C254.254 60.1257 254.138 60.3937 254.138 60.7137C254.138 61.0737 254.278 61.3617 254.558 61.5777C254.838 61.7937 255.23 61.9017 255.734 61.9017C256.214 61.9017 256.626 61.7937 256.97 61.5777C257.322 61.3537 257.578 61.0337 257.738 60.6177L257.93 61.2057C257.77 61.6217 257.49 61.9537 257.09 62.2017C256.698 62.4497 256.202 62.5737 255.602 62.5737ZM263.69 62.5857C263.178 62.5857 262.722 62.5017 262.322 62.3337C261.93 62.1657 261.594 61.9097 261.314 61.5657C261.034 61.2217 260.822 60.7977 260.678 60.2937C260.534 59.7817 260.462 59.1897 260.462 58.5177C260.462 57.9177 260.518 57.3937 260.63 56.9457C260.742 56.4897 260.898 56.0977 261.098 55.7697C261.298 55.4417 261.53 55.1657 261.794 54.9417C262.066 54.7097 262.358 54.5257 262.67 54.3897C262.99 54.2457 263.318 54.1377 263.654 54.0657L266.486 53.4057L266.63 54.1977L263.966 54.7977C263.798 54.8377 263.594 54.8937 263.354 54.9657C263.122 55.0377 262.882 55.1457 262.634 55.2897C262.394 55.4337 262.17 55.6337 261.962 55.8897C261.754 56.1457 261.586 56.4777 261.458 56.8857C261.338 57.2857 261.278 57.7857 261.278 58.3857C261.278 58.5137 261.282 58.6177 261.29 58.6977C261.298 58.7697 261.306 58.8497 261.314 58.9377C261.33 59.0177 261.342 59.1377 261.35 59.2977L260.978 58.9857C261.066 58.4977 261.246 58.0737 261.518 57.7137C261.79 57.3457 262.13 57.0617 262.538 56.8617C262.954 56.6537 263.414 56.5497 263.918 56.5497C264.502 56.5497 265.022 56.6777 265.478 56.9337C265.934 57.1817 266.29 57.5297 266.546 57.9777C266.81 58.4257 266.942 58.9457 266.942 59.5377C266.942 60.1217 266.806 60.6457 266.534 61.1097C266.27 61.5737 265.894 61.9377 265.406 62.2017C264.918 62.4577 264.346 62.5857 263.69 62.5857ZM263.786 61.8777C264.234 61.8777 264.63 61.7777 264.974 61.5777C265.318 61.3697 265.586 61.0897 265.778 60.7377C265.978 60.3857 266.078 59.9897 266.078 59.5497C266.078 59.1177 265.978 58.7337 265.778 58.3977C265.586 58.0617 265.318 57.7977 264.974 57.6057C264.63 57.4057 264.23 57.3057 263.774 57.3057C263.326 57.3057 262.93 57.4017 262.586 57.5937C262.242 57.7777 261.97 58.0377 261.77 58.3737C261.578 58.7097 261.482 59.0977 261.482 59.5377C261.482 59.9777 261.578 60.3737 261.77 60.7257C261.97 61.0777 262.242 61.3577 262.586 61.5657C262.938 61.7737 263.338 61.8777 263.786 61.8777ZM271.36 62.5737C270.752 62.5737 270.204 62.4377 269.716 62.1657C269.236 61.8857 268.856 61.5057 268.576 61.0257C268.296 60.5377 268.156 59.9817 268.156 59.3577C268.156 58.7257 268.296 58.1697 268.576 57.6897C268.856 57.2097 269.236 56.8337 269.716 56.5617C270.196 56.2897 270.744 56.1537 271.36 56.1537C271.984 56.1537 272.536 56.2897 273.016 56.5617C273.504 56.8337 273.884 57.2097 274.156 57.6897C274.436 58.1697 274.576 58.7257 274.576 59.3577C274.576 59.9817 274.436 60.5377 274.156 61.0257C273.884 61.5057 273.504 61.8857 273.016 62.1657C272.528 62.4377 271.976 62.5737 271.36 62.5737ZM271.36 61.8177C271.816 61.8177 272.22 61.7177 272.572 61.5177C272.924 61.3097 273.2 61.0217 273.4 60.6537C273.608 60.2777 273.712 59.8457 273.712 59.3577C273.712 58.8617 273.608 58.4297 273.4 58.0617C273.2 57.6937 272.924 57.4097 272.572 57.2097C272.22 57.0017 271.82 56.8977 271.372 56.8977C270.924 56.8977 270.524 57.0017 270.172 57.2097C269.82 57.4097 269.54 57.6937 269.332 58.0617C269.124 58.4297 269.02 58.8617 269.02 59.3577C269.02 59.8457 269.124 60.2777 269.332 60.6537C269.54 61.0217 269.82 61.3097 270.172 61.5177C270.524 61.7177 270.92 61.8177 271.36 61.8177ZM277.363 62.5137V56.7297L277.579 56.9577H274.975V56.2137H280.603V56.9577H277.999L278.215 56.7297V62.5137H277.363ZM98.5771 77.5137V71.2137H101.361C102.073 71.2137 102.633 71.3497 103.041 71.6217C103.457 71.8937 103.665 72.2937 103.665 72.8217C103.665 73.3337 103.469 73.7297 103.077 74.0097C102.685 74.2817 102.169 74.4177 101.529 74.4177L101.697 74.1657C102.449 74.1657 103.001 74.3057 103.353 74.5857C103.705 74.8657 103.881 75.2697 103.881 75.7977C103.881 76.3417 103.681 76.7657 103.281 77.0697C102.889 77.3657 102.277 77.5137 101.445 77.5137H98.5771ZM99.4051 76.8417H101.409C101.945 76.8417 102.349 76.7577 102.621 76.5897C102.901 76.4137 103.041 76.1337 103.041 75.7497C103.041 75.3657 102.917 75.0857 102.669 74.9097C102.421 74.7337 102.029 74.6457 101.493 74.6457H99.4051V76.8417ZM99.4051 74.0097H101.301C101.789 74.0097 102.161 73.9177 102.417 73.7337C102.681 73.5497 102.813 73.2817 102.813 72.9297C102.813 72.5777 102.681 72.3137 102.417 72.1377C102.161 71.9617 101.789 71.8737 101.301 71.8737H99.4051V74.0097ZM112.27 77.5737C111.726 77.5737 111.234 77.4497 110.794 77.2017C110.354 76.9457 110.002 76.5817 109.738 76.1097C109.482 75.6297 109.354 75.0457 109.354 74.3577C109.354 73.6697 109.482 73.0897 109.738 72.6177C109.994 72.1377 110.342 71.7737 110.782 71.5257C111.222 71.2777 111.718 71.1537 112.27 71.1537C112.87 71.1537 113.406 71.2897 113.878 71.5617C114.358 71.8257 114.734 72.2017 115.006 72.6897C115.278 73.1697 115.414 73.7257 115.414 74.3577C115.414 74.9977 115.278 75.5577 115.006 76.0377C114.734 76.5177 114.358 76.8937 113.878 77.1657C113.406 77.4377 112.87 77.5737 112.27 77.5737ZM109.018 79.8417V71.2137H109.834V73.1097L109.75 74.3697L109.87 75.6417V79.8417H109.018ZM112.21 76.8177C112.658 76.8177 113.058 76.7177 113.41 76.5177C113.762 76.3097 114.042 76.0217 114.25 75.6537C114.458 75.2777 114.562 74.8457 114.562 74.3577C114.562 73.8697 114.458 73.4417 114.25 73.0737C114.042 72.7057 113.762 72.4177 113.41 72.2097C113.058 72.0017 112.658 71.8977 112.21 71.8977C111.762 71.8977 111.358 72.0017 110.998 72.2097C110.646 72.4177 110.366 72.7057 110.158 73.0737C109.958 73.4417 109.858 73.8697 109.858 74.3577C109.858 74.8457 109.958 75.2777 110.158 75.6537C110.366 76.0217 110.646 76.3097 110.998 76.5177C111.358 76.7177 111.762 76.8177 112.21 76.8177ZM119.945 77.5737C119.289 77.5737 118.713 77.4377 118.217 77.1657C117.721 76.8857 117.333 76.5057 117.053 76.0257C116.773 75.5377 116.633 74.9817 116.633 74.3577C116.633 73.7337 116.765 73.1817 117.029 72.7017C117.301 72.2217 117.669 71.8457 118.133 71.5737C118.605 71.2937 119.133 71.1537 119.717 71.1537C120.309 71.1537 120.833 71.2897 121.289 71.5617C121.753 71.8257 122.117 72.2017 122.381 72.6897C122.645 73.1697 122.777 73.7257 122.777 74.3577C122.777 74.3977 122.773 74.4417 122.765 74.4897C122.765 74.5297 122.765 74.5737 122.765 74.6217H117.281V73.9857H122.309L121.973 74.2377C121.973 73.7817 121.873 73.3777 121.673 73.0257C121.481 72.6657 121.217 72.3857 120.881 72.1857C120.545 71.9857 120.157 71.8857 119.717 71.8857C119.285 71.8857 118.897 71.9857 118.553 72.1857C118.209 72.3857 117.941 72.6657 117.749 73.0257C117.557 73.3857 117.461 73.7977 117.461 74.2617V74.3937C117.461 74.8737 117.565 75.2977 117.773 75.6657C117.989 76.0257 118.285 76.3097 118.661 76.5177C119.045 76.7177 119.481 76.8177 119.969 76.8177C120.353 76.8177 120.709 76.7497 121.037 76.6137C121.373 76.4777 121.661 76.2697 121.901 75.9897L122.381 76.5417C122.101 76.8777 121.749 77.1337 121.325 77.3097C120.909 77.4857 120.449 77.5737 119.945 77.5737ZM131.963 77.5137L129.803 74.3937L130.511 73.9737L132.983 77.5137H131.963ZM128.387 74.7057V73.9737H130.379V74.7057H128.387ZM130.595 74.4537L129.779 74.3337L131.879 71.2137H132.803L130.595 74.4537ZM124.499 77.5137H123.479L125.951 73.9737L126.647 74.3937L124.499 77.5137ZM128.651 77.5137H127.799V71.2137H128.651V77.5137ZM128.063 74.7057H126.083V73.9737H128.063V74.7057ZM125.879 74.4537L123.659 71.2137H124.583L126.671 74.3337L125.879 74.4537ZM134.401 77.5137V71.2137H135.253V76.2177L139.465 71.2137H140.221V77.5137H139.369V72.4977L135.169 77.5137H134.401ZM142.663 77.5137V71.2137H143.527L146.383 76.0497H146.023L148.927 71.2137H149.719V77.5137H148.939V72.1857L149.095 72.2577L146.383 76.7457H145.999L143.263 72.2097L143.443 72.1737V77.5137H142.663ZM154.843 77.5737C154.187 77.5737 153.611 77.4377 153.115 77.1657C152.619 76.8857 152.231 76.5057 151.951 76.0257C151.671 75.5377 151.531 74.9817 151.531 74.3577C151.531 73.7337 151.663 73.1817 151.927 72.7017C152.199 72.2217 152.567 71.8457 153.031 71.5737C153.503 71.2937 154.031 71.1537 154.615 71.1537C155.207 71.1537 155.731 71.2897 156.187 71.5617C156.651 71.8257 157.015 72.2017 157.279 72.6897C157.543 73.1697 157.675 73.7257 157.675 74.3577C157.675 74.3977 157.671 74.4417 157.663 74.4897C157.663 74.5297 157.663 74.5737 157.663 74.6217H152.179V73.9857H157.207L156.871 74.2377C156.871 73.7817 156.771 73.3777 156.571 73.0257C156.379 72.6657 156.115 72.3857 155.779 72.1857C155.443 71.9857 155.055 71.8857 154.615 71.8857C154.183 71.8857 153.795 71.9857 153.451 72.1857C153.107 72.3857 152.839 72.6657 152.647 73.0257C152.455 73.3857 152.359 73.7977 152.359 74.2617V74.3937C152.359 74.8737 152.463 75.2977 152.671 75.6657C152.887 76.0257 153.183 76.3097 153.559 76.5177C153.943 76.7177 154.379 76.8177 154.867 76.8177C155.251 76.8177 155.607 76.7497 155.935 76.6137C156.271 76.4777 156.559 76.2697 156.799 75.9897L157.279 76.5417C156.999 76.8777 156.647 77.1337 156.223 77.3097C155.807 77.4857 155.347 77.5737 154.843 77.5737ZM165.954 77.5737C165.41 77.5737 164.918 77.4497 164.478 77.2017C164.038 76.9457 163.686 76.5817 163.422 76.1097C163.166 75.6297 163.038 75.0457 163.038 74.3577C163.038 73.6697 163.166 73.0897 163.422 72.6177C163.678 72.1377 164.026 71.7737 164.466 71.5257C164.906 71.2777 165.402 71.1537 165.954 71.1537C166.554 71.1537 167.09 71.2897 167.562 71.5617C168.042 71.8257 168.418 72.2017 168.69 72.6897C168.962 73.1697 169.098 73.7257 169.098 74.3577C169.098 74.9977 168.962 75.5577 168.69 76.0377C168.418 76.5177 168.042 76.8937 167.562 77.1657C167.09 77.4377 166.554 77.5737 165.954 77.5737ZM162.702 79.8417V71.2137H163.518V73.1097L163.434 74.3697L163.554 75.6417V79.8417H162.702ZM165.894 76.8177C166.342 76.8177 166.742 76.7177 167.094 76.5177C167.446 76.3097 167.726 76.0217 167.934 75.6537C168.142 75.2777 168.246 74.8457 168.246 74.3577C168.246 73.8697 168.142 73.4417 167.934 73.0737C167.726 72.7057 167.446 72.4177 167.094 72.2097C166.742 72.0017 166.342 71.8977 165.894 71.8977C165.446 71.8977 165.042 72.0017 164.682 72.2097C164.33 72.4177 164.05 72.7057 163.842 73.0737C163.642 73.4417 163.542 73.8697 163.542 74.3577C163.542 74.8457 163.642 75.2777 163.842 75.6537C164.05 76.0217 164.33 76.3097 164.682 76.5177C165.042 76.7177 165.446 76.8177 165.894 76.8177ZM173.629 77.5737C172.973 77.5737 172.397 77.4377 171.901 77.1657C171.405 76.8857 171.017 76.5057 170.737 76.0257C170.457 75.5377 170.317 74.9817 170.317 74.3577C170.317 73.7337 170.449 73.1817 170.713 72.7017C170.985 72.2217 171.353 71.8457 171.817 71.5737C172.289 71.2937 172.817 71.1537 173.401 71.1537C173.993 71.1537 174.517 71.2897 174.973 71.5617C175.437 71.8257 175.801 72.2017 176.065 72.6897C176.329 73.1697 176.461 73.7257 176.461 74.3577C176.461 74.3977 176.457 74.4417 176.449 74.4897C176.449 74.5297 176.449 74.5737 176.449 74.6217H170.965V73.9857H175.993L175.657 74.2377C175.657 73.7817 175.557 73.3777 175.357 73.0257C175.165 72.6657 174.901 72.3857 174.565 72.1857C174.229 71.9857 173.841 71.8857 173.401 71.8857C172.969 71.8857 172.581 71.9857 172.237 72.1857C171.893 72.3857 171.625 72.6657 171.433 73.0257C171.241 73.3857 171.145 73.7977 171.145 74.2617V74.3937C171.145 74.8737 171.249 75.2977 171.457 75.6657C171.673 76.0257 171.969 76.3097 172.345 76.5177C172.729 76.7177 173.165 76.8177 173.653 76.8177C174.037 76.8177 174.393 76.7497 174.721 76.6137C175.057 76.4777 175.345 76.2697 175.585 75.9897L176.065 76.5417C175.785 76.8777 175.433 77.1337 175.009 77.3097C174.593 77.4857 174.133 77.5737 173.629 77.5737ZM182.083 77.5137V76.1217L182.047 75.8937V73.5657C182.047 73.0297 181.895 72.6177 181.591 72.3297C181.295 72.0417 180.851 71.8977 180.259 71.8977C179.851 71.8977 179.463 71.9657 179.095 72.1017C178.727 72.2377 178.415 72.4177 178.159 72.6417L177.775 72.0057C178.095 71.7337 178.479 71.5257 178.927 71.3817C179.375 71.2297 179.847 71.1537 180.343 71.1537C181.159 71.1537 181.787 71.3577 182.227 71.7657C182.675 72.1657 182.899 72.7777 182.899 73.6017V77.5137H182.083ZM179.911 77.5737C179.439 77.5737 179.027 77.4977 178.675 77.3457C178.331 77.1857 178.067 76.9697 177.883 76.6977C177.699 76.4177 177.607 76.0977 177.607 75.7377C177.607 75.4097 177.683 75.1137 177.835 74.8497C177.995 74.5777 178.251 74.3617 178.603 74.2017C178.963 74.0337 179.443 73.9497 180.043 73.9497H182.215V74.5857H180.067C179.459 74.5857 179.035 74.6937 178.795 74.9097C178.563 75.1257 178.447 75.3937 178.447 75.7137C178.447 76.0737 178.587 76.3617 178.867 76.5777C179.147 76.7937 179.539 76.9017 180.043 76.9017C180.523 76.9017 180.935 76.7937 181.279 76.5777C181.631 76.3537 181.887 76.0337 182.047 75.6177L182.239 76.2057C182.079 76.6217 181.799 76.9537 181.399 77.2017C181.007 77.4497 180.511 77.5737 179.911 77.5737ZM184.015 77.5017L184.075 76.7697C184.131 76.7777 184.183 76.7897 184.231 76.8057C184.287 76.8137 184.335 76.8177 184.375 76.8177C184.631 76.8177 184.835 76.7217 184.987 76.5297C185.147 76.3377 185.267 76.0817 185.347 75.7617C185.427 75.4417 185.483 75.0817 185.515 74.6817C185.547 74.2737 185.575 73.8657 185.599 73.4577L185.707 71.2137H190.327V77.5137H189.475V71.7057L189.691 71.9577H186.259L186.463 71.6937L186.367 73.5177C186.343 74.0617 186.299 74.5817 186.235 75.0777C186.179 75.5737 186.087 76.0097 185.959 76.3857C185.839 76.7617 185.671 77.0577 185.455 77.2737C185.239 77.4817 184.963 77.5857 184.627 77.5857C184.531 77.5857 184.431 77.5777 184.327 77.5617C184.231 77.5457 184.127 77.5257 184.015 77.5017ZM195.461 73.4337C196.253 73.4417 196.853 73.6177 197.261 73.9617C197.677 74.3057 197.885 74.8017 197.885 75.4497C197.885 76.1217 197.661 76.6377 197.213 76.9977C196.773 77.3577 196.133 77.5337 195.293 77.5257L192.749 77.5137V71.2137H193.601V73.4097L195.461 73.4337ZM195.245 76.8777C195.829 76.8857 196.269 76.7697 196.565 76.5297C196.869 76.2817 197.021 75.9217 197.021 75.4497C197.021 74.9777 196.873 74.6337 196.577 74.4177C196.281 74.1937 195.837 74.0777 195.245 74.0697L193.601 74.0457V76.8537L195.245 76.8777ZM199.511 77.5137V71.2137H200.363V73.9977H204.335V71.2137H205.187V77.5137H204.335V74.7297H200.363V77.5137H199.511ZM210.2 77.5737C209.592 77.5737 209.044 77.4377 208.556 77.1657C208.076 76.8857 207.696 76.5057 207.416 76.0257C207.136 75.5377 206.996 74.9817 206.996 74.3577C206.996 73.7257 207.136 73.1697 207.416 72.6897C207.696 72.2097 208.076 71.8337 208.556 71.5617C209.036 71.2897 209.584 71.1537 210.2 71.1537C210.824 71.1537 211.376 71.2897 211.856 71.5617C212.344 71.8337 212.724 72.2097 212.996 72.6897C213.276 73.1697 213.416 73.7257 213.416 74.3577C213.416 74.9817 213.276 75.5377 212.996 76.0257C212.724 76.5057 212.344 76.8857 211.856 77.1657C211.368 77.4377 210.816 77.5737 210.2 77.5737ZM210.2 76.8177C210.656 76.8177 211.06 76.7177 211.412 76.5177C211.764 76.3097 212.04 76.0217 212.24 75.6537C212.448 75.2777 212.552 74.8457 212.552 74.3577C212.552 73.8617 212.448 73.4297 212.24 73.0617C212.04 72.6937 211.764 72.4097 211.412 72.2097C211.06 72.0017 210.66 71.8977 210.212 71.8977C209.764 71.8977 209.364 72.0017 209.012 72.2097C208.66 72.4097 208.38 72.6937 208.172 73.0617C207.964 73.4297 207.86 73.8617 207.86 74.3577C207.86 74.8457 207.964 75.2777 208.172 75.6537C208.38 76.0217 208.66 76.3097 209.012 76.5177C209.364 76.7177 209.76 76.8177 210.2 76.8177ZM215.237 77.5137V71.2137H219.701V71.9577H215.873L216.089 71.7417V77.5137H215.237ZM223.232 77.5737C222.624 77.5737 222.076 77.4377 221.588 77.1657C221.108 76.8857 220.728 76.5057 220.448 76.0257C220.168 75.5377 220.028 74.9817 220.028 74.3577C220.028 73.7257 220.168 73.1697 220.448 72.6897C220.728 72.2097 221.108 71.8337 221.588 71.5617C222.068 71.2897 222.616 71.1537 223.232 71.1537C223.856 71.1537 224.408 71.2897 224.888 71.5617C225.376 71.8337 225.756 72.2097 226.028 72.6897C226.308 73.1697 226.448 73.7257 226.448 74.3577C226.448 74.9817 226.308 75.5377 226.028 76.0257C225.756 76.5057 225.376 76.8857 224.888 77.1657C224.4 77.4377 223.848 77.5737 223.232 77.5737ZM223.232 76.8177C223.688 76.8177 224.092 76.7177 224.444 76.5177C224.796 76.3097 225.072 76.0217 225.272 75.6537C225.48 75.2777 225.584 74.8457 225.584 74.3577C225.584 73.8617 225.48 73.4297 225.272 73.0617C225.072 72.6937 224.796 72.4097 224.444 72.2097C224.092 72.0017 223.692 71.8977 223.244 71.8977C222.796 71.8977 222.396 72.0017 222.044 72.2097C221.692 72.4097 221.412 72.6937 221.204 73.0617C220.996 73.4297 220.892 73.8617 220.892 74.3577C220.892 74.8457 220.996 75.2777 221.204 75.6537C221.412 76.0217 221.692 76.3097 222.044 76.5177C222.396 76.7177 222.792 76.8177 223.232 76.8177ZM231.409 77.5137V71.2137H234.193C234.905 71.2137 235.465 71.3497 235.873 71.6217C236.289 71.8937 236.497 72.2937 236.497 72.8217C236.497 73.3337 236.301 73.7297 235.909 74.0097C235.517 74.2817 235.001 74.4177 234.361 74.4177L234.529 74.1657C235.281 74.1657 235.833 74.3057 236.185 74.5857C236.537 74.8657 236.713 75.2697 236.713 75.7977C236.713 76.3417 236.513 76.7657 236.113 77.0697C235.721 77.3657 235.109 77.5137 234.277 77.5137H231.409ZM232.237 76.8417H234.241C234.777 76.8417 235.181 76.7577 235.453 76.5897C235.733 76.4137 235.873 76.1337 235.873 75.7497C235.873 75.3657 235.749 75.0857 235.501 74.9097C235.253 74.7337 234.861 74.6457 234.325 74.6457H232.237V76.8417ZM232.237 74.0097H234.133C234.621 74.0097 234.993 73.9177 235.249 73.7337C235.513 73.5497 235.645 73.2817 235.645 72.9297C235.645 72.5777 235.513 72.3137 235.249 72.1377C234.993 71.9617 234.621 71.8737 234.133 71.8737H232.237V74.0097ZM241.962 77.5737C241.418 77.5737 240.926 77.4497 240.486 77.2017C240.046 76.9457 239.694 76.5817 239.43 76.1097C239.174 75.6297 239.046 75.0457 239.046 74.3577C239.046 73.6697 239.174 73.0897 239.43 72.6177C239.686 72.1377 240.034 71.7737 240.474 71.5257C240.914 71.2777 241.41 71.1537 241.962 71.1537C242.562 71.1537 243.098 71.2897 243.57 71.5617C244.05 71.8257 244.426 72.2017 244.698 72.6897C244.97 73.1697 245.106 73.7257 245.106 74.3577C245.106 74.9977 244.97 75.5577 244.698 76.0377C244.426 76.5177 244.05 76.8937 243.57 77.1657C243.098 77.4377 242.562 77.5737 241.962 77.5737ZM238.71 79.8417V71.2137H239.526V73.1097L239.442 74.3697L239.562 75.6417V79.8417H238.71ZM241.902 76.8177C242.35 76.8177 242.75 76.7177 243.102 76.5177C243.454 76.3097 243.734 76.0217 243.942 75.6537C244.15 75.2777 244.254 74.8457 244.254 74.3577C244.254 73.8697 244.15 73.4417 243.942 73.0737C243.734 72.7057 243.454 72.4177 243.102 72.2097C242.75 72.0017 242.35 71.8977 241.902 71.8977C241.454 71.8977 241.05 72.0017 240.69 72.2097C240.338 72.4177 240.058 72.7057 239.85 73.0737C239.65 73.4417 239.55 73.8697 239.55 74.3577C239.55 74.8457 239.65 75.2777 239.85 75.6537C240.058 76.0217 240.338 76.3097 240.69 76.5177C241.05 76.7177 241.454 76.8177 241.902 76.8177ZM249.636 77.5737C248.98 77.5737 248.404 77.4377 247.908 77.1657C247.412 76.8857 247.024 76.5057 246.744 76.0257C246.464 75.5377 246.324 74.9817 246.324 74.3577C246.324 73.7337 246.456 73.1817 246.72 72.7017C246.992 72.2217 247.36 71.8457 247.824 71.5737C248.296 71.2937 248.824 71.1537 249.408 71.1537C250 71.1537 250.524 71.2897 250.98 71.5617C251.444 71.8257 251.808 72.2017 252.072 72.6897C252.336 73.1697 252.468 73.7257 252.468 74.3577C252.468 74.3977 252.464 74.4417 252.456 74.4897C252.456 74.5297 252.456 74.5737 252.456 74.6217H246.972V73.9857H252L251.664 74.2377C251.664 73.7817 251.564 73.3777 251.364 73.0257C251.172 72.6657 250.908 72.3857 250.572 72.1857C250.236 71.9857 249.848 71.8857 249.408 71.8857C248.976 71.8857 248.588 71.9857 248.244 72.1857C247.9 72.3857 247.632 72.6657 247.44 73.0257C247.248 73.3857 247.152 73.7977 247.152 74.2617V74.3937C247.152 74.8737 247.256 75.2977 247.464 75.6657C247.68 76.0257 247.976 76.3097 248.352 76.5177C248.736 76.7177 249.172 76.8177 249.66 76.8177C250.044 76.8177 250.4 76.7497 250.728 76.6137C251.064 76.4777 251.352 76.2697 251.592 75.9897L252.072 76.5417C251.792 76.8777 251.44 77.1337 251.016 77.3097C250.6 77.4857 250.14 77.5737 249.636 77.5737ZM254.354 77.5137V71.2137H255.218L258.074 76.0497H257.714L260.618 71.2137H261.41V77.5137H260.63V72.1857L260.786 72.2577L258.074 76.7457H257.69L254.954 72.2097L255.134 72.1737V77.5137H254.354ZM266.535 77.5737C265.879 77.5737 265.303 77.4377 264.807 77.1657C264.311 76.8857 263.923 76.5057 263.643 76.0257C263.363 75.5377 263.223 74.9817 263.223 74.3577C263.223 73.7337 263.355 73.1817 263.619 72.7017C263.891 72.2217 264.259 71.8457 264.723 71.5737C265.195 71.2937 265.723 71.1537 266.307 71.1537C266.899 71.1537 267.423 71.2897 267.879 71.5617C268.343 71.8257 268.707 72.2017 268.971 72.6897C269.235 73.1697 269.367 73.7257 269.367 74.3577C269.367 74.3977 269.363 74.4417 269.355 74.4897C269.355 74.5297 269.355 74.5737 269.355 74.6217H263.871V73.9857H268.899L268.563 74.2377C268.563 73.7817 268.463 73.3777 268.263 73.0257C268.071 72.6657 267.807 72.3857 267.471 72.1857C267.135 71.9857 266.747 71.8857 266.307 71.8857C265.875 71.8857 265.487 71.9857 265.143 72.1857C264.799 72.3857 264.531 72.6657 264.339 73.0257C264.147 73.3857 264.051 73.7977 264.051 74.2617V74.3937C264.051 74.8737 264.155 75.2977 264.363 75.6657C264.579 76.0257 264.875 76.3097 265.251 76.5177C265.635 76.7177 266.071 76.8177 266.559 76.8177C266.943 76.8177 267.299 76.7497 267.627 76.6137C267.963 76.4777 268.251 76.2697 268.491 75.9897L268.971 76.5417C268.691 76.8777 268.339 77.1337 267.915 77.3097C267.499 77.4857 267.039 77.5737 266.535 77.5737ZM271.253 77.5137V71.2137H272.105V73.9977H276.077V71.2137H276.929V77.5137H276.077V74.7297H272.105V77.5137H271.253ZM279.351 77.5137V71.2137H280.203V76.2177L284.415 71.2137H285.171V77.5137H284.319V72.4977L280.119 77.5137H279.351ZM287.072 79.2657L287.6 77.0457L287.696 77.5617C287.512 77.5617 287.356 77.5017 287.228 77.3817C287.108 77.2617 287.048 77.1057 287.048 76.9137C287.048 76.7217 287.108 76.5657 287.228 76.4457C287.356 76.3257 287.508 76.2657 287.684 76.2657C287.868 76.2657 288.016 76.3297 288.128 76.4577C288.248 76.5857 288.308 76.7377 288.308 76.9137C288.308 76.9777 288.304 77.0417 288.296 77.1057C288.288 77.1697 288.272 77.2417 288.248 77.3217C288.224 77.4017 288.192 77.4977 288.152 77.6097L287.648 79.2657H287.072ZM293.296 77.5137V71.2137H297.76V71.9577H293.932L294.148 71.7417V77.5137H293.296ZM302.924 77.1057V71.9577H299.888L299.816 73.3617C299.8 73.7857 299.772 74.2017 299.732 74.6097C299.7 75.0177 299.64 75.3937 299.552 75.7377C299.472 76.0737 299.356 76.3497 299.204 76.5657C299.052 76.7737 298.856 76.8937 298.616 76.9257L297.764 76.7697C298.012 76.7777 298.216 76.6897 298.376 76.5057C298.536 76.3137 298.66 76.0537 298.748 75.7257C298.836 75.3977 298.9 75.0257 298.94 74.6097C298.98 74.1857 299.012 73.7537 299.036 73.3137L299.12 71.2137H303.776V77.1057H302.924ZM297.5 79.0377V76.7697H304.76V79.0377H303.956V77.5137H298.304V79.0377H297.5ZM309.121 77.5737C308.465 77.5737 307.889 77.4377 307.393 77.1657C306.897 76.8857 306.509 76.5057 306.229 76.0257C305.949 75.5377 305.809 74.9817 305.809 74.3577C305.809 73.7337 305.941 73.1817 306.205 72.7017C306.477 72.2217 306.845 71.8457 307.309 71.5737C307.781 71.2937 308.309 71.1537 308.893 71.1537C309.485 71.1537 310.009 71.2897 310.465 71.5617C310.929 71.8257 311.293 72.2017 311.557 72.6897C311.821 73.1697 311.953 73.7257 311.953 74.3577C311.953 74.3977 311.949 74.4417 311.941 74.4897C311.941 74.5297 311.941 74.5737 311.941 74.6217H306.457V73.9857H311.485L311.149 74.2377C311.149 73.7817 311.049 73.3777 310.849 73.0257C310.657 72.6657 310.393 72.3857 310.057 72.1857C309.721 71.9857 309.333 71.8857 308.893 71.8857C308.461 71.8857 308.073 71.9857 307.729 72.1857C307.385 72.3857 307.117 72.6657 306.925 73.0257C306.733 73.3857 306.637 73.7977 306.637 74.2617V74.3937C306.637 74.8737 306.741 75.2977 306.949 75.6657C307.165 76.0257 307.461 76.3097 307.837 76.5177C308.221 76.7177 308.657 76.8177 309.145 76.8177C309.529 76.8177 309.885 76.7497 310.213 76.6137C310.549 76.4777 310.837 76.2697 311.077 75.9897L311.557 76.5417C311.277 76.8777 310.925 77.1337 310.501 77.3097C310.085 77.4857 309.625 77.5737 309.121 77.5737ZM319.811 77.5857C319.299 77.5857 318.843 77.5017 318.443 77.3337C318.051 77.1657 317.715 76.9097 317.435 76.5657C317.155 76.2217 316.943 75.7977 316.799 75.2937C316.655 74.7817 316.583 74.1897 316.583 73.5177C316.583 72.9177 316.639 72.3937 316.751 71.9457C316.863 71.4897 317.019 71.0977 317.219 70.7697C317.419 70.4417 317.651 70.1657 317.915 69.9417C318.187 69.7097 318.479 69.5257 318.791 69.3897C319.111 69.2457 319.439 69.1377 319.775 69.0657L322.607 68.4057L322.751 69.1977L320.087 69.7977C319.919 69.8377 319.715 69.8937 319.475 69.9657C319.243 70.0377 319.003 70.1457 318.755 70.2897C318.515 70.4337 318.291 70.6337 318.083 70.8897C317.875 71.1457 317.707 71.4777 317.579 71.8857C317.459 72.2857 317.399 72.7857 317.399 73.3857C317.399 73.5137 317.403 73.6177 317.411 73.6977C317.419 73.7697 317.427 73.8497 317.435 73.9377C317.451 74.0177 317.463 74.1377 317.471 74.2977L317.099 73.9857C317.187 73.4977 317.367 73.0737 317.639 72.7137C317.911 72.3457 318.251 72.0617 318.659 71.8617C319.075 71.6537 319.535 71.5497 320.039 71.5497C320.623 71.5497 321.143 71.6777 321.599 71.9337C322.055 72.1817 322.411 72.5297 322.667 72.9777C322.931 73.4257 323.063 73.9457 323.063 74.5377C323.063 75.1217 322.927 75.6457 322.655 76.1097C322.391 76.5737 322.015 76.9377 321.527 77.2017C321.039 77.4577 320.467 77.5857 319.811 77.5857ZM319.907 76.8777C320.355 76.8777 320.751 76.7777 321.095 76.5777C321.439 76.3697 321.707 76.0897 321.899 75.7377C322.099 75.3857 322.199 74.9897 322.199 74.5497C322.199 74.1177 322.099 73.7337 321.899 73.3977C321.707 73.0617 321.439 72.7977 321.095 72.6057C320.751 72.4057 320.351 72.3057 319.895 72.3057C319.447 72.3057 319.051 72.4017 318.707 72.5937C318.363 72.7777 318.091 73.0377 317.891 73.3737C317.699 73.7097 317.603 74.0977 317.603 74.5377C317.603 74.9777 317.699 75.3737 317.891 75.7257C318.091 76.0777 318.363 76.3577 318.707 76.5657C319.059 76.7737 319.459 76.8777 319.907 76.8777ZM331.034 77.5137V71.2137H331.886V77.5137H331.034ZM327.542 73.4337C328.334 73.4417 328.938 73.6177 329.354 73.9617C329.77 74.3057 329.978 74.8017 329.978 75.4497C329.978 76.1217 329.754 76.6377 329.306 76.9977C328.858 77.3577 328.218 77.5337 327.386 77.5257L324.89 77.5137V71.2137H325.742V73.4097L327.542 73.4337ZM327.326 76.8777C327.918 76.8857 328.362 76.7697 328.658 76.5297C328.962 76.2817 329.114 75.9217 329.114 75.4497C329.114 74.9777 328.966 74.6337 328.67 74.4177C328.374 74.1937 327.926 74.0777 327.326 74.0697L325.742 74.0457V76.8537L327.326 76.8777ZM337.452 77.5137V71.2137H340.236C340.948 71.2137 341.508 71.3497 341.916 71.6217C342.332 71.8937 342.54 72.2937 342.54 72.8217C342.54 73.3337 342.344 73.7297 341.952 74.0097C341.56 74.2817 341.044 74.4177 340.404 74.4177L340.572 74.1657C341.324 74.1657 341.876 74.3057 342.228 74.5857C342.58 74.8657 342.756 75.2697 342.756 75.7977C342.756 76.3417 342.556 76.7657 342.156 77.0697C341.764 77.3657 341.152 77.5137 340.32 77.5137H337.452ZM338.28 76.8417H340.284C340.82 76.8417 341.224 76.7577 341.496 76.5897C341.776 76.4137 341.916 76.1337 341.916 75.7497C341.916 75.3657 341.792 75.0857 341.544 74.9097C341.296 74.7337 340.904 74.6457 340.368 74.6457H338.28V76.8417ZM338.28 74.0097H340.176C340.664 74.0097 341.036 73.9177 341.292 73.7337C341.556 73.5497 341.688 73.2817 341.688 72.9297C341.688 72.5777 341.556 72.3137 341.292 72.1377C341.036 71.9617 340.664 71.8737 340.176 71.8737H338.28V74.0097ZM350.897 77.5137V71.2137H351.749V77.5137H350.897ZM347.405 73.4337C348.197 73.4417 348.801 73.6177 349.217 73.9617C349.633 74.3057 349.841 74.8017 349.841 75.4497C349.841 76.1217 349.617 76.6377 349.169 76.9977C348.721 77.3577 348.081 77.5337 347.249 77.5257L344.753 77.5137V71.2137H345.605V73.4097L347.405 73.4337ZM347.189 76.8777C347.781 76.8857 348.225 76.7697 348.521 76.5297C348.825 76.2817 348.977 75.9217 348.977 75.4497C348.977 74.9777 348.829 74.6337 348.533 74.4177C348.237 74.1937 347.789 74.0777 347.189 74.0697L345.605 74.0457V76.8537L347.189 76.8777ZM98.5771 92.5137V86.2137H99.4291V88.9977H103.401V86.2137H104.253V92.5137H103.401V89.7297H99.4291V92.5137H98.5771ZM106.675 92.5137V86.2137H107.527V91.2177L111.739 86.2137H112.495V92.5137H111.643V87.4977L107.443 92.5137H106.675ZM118.077 92.5137V86.2137H118.929V88.9977H122.901V86.2137H123.753V92.5137H122.901V89.7297H118.929V92.5137H118.077ZM130.087 92.5137V91.1217L130.051 90.8937V88.5657C130.051 88.0297 129.899 87.6177 129.595 87.3297C129.299 87.0417 128.855 86.8977 128.263 86.8977C127.855 86.8977 127.467 86.9657 127.099 87.1017C126.731 87.2377 126.419 87.4177 126.163 87.6417L125.779 87.0057C126.099 86.7337 126.483 86.5257 126.931 86.3817C127.379 86.2297 127.851 86.1537 128.347 86.1537C129.163 86.1537 129.791 86.3577 130.231 86.7657C130.679 87.1657 130.903 87.7777 130.903 88.6017V92.5137H130.087ZM127.915 92.5737C127.443 92.5737 127.031 92.4977 126.679 92.3457C126.335 92.1857 126.071 91.9697 125.887 91.6977C125.703 91.4177 125.611 91.0977 125.611 90.7377C125.611 90.4097 125.687 90.1137 125.839 89.8497C125.999 89.5777 126.255 89.3617 126.607 89.2017C126.967 89.0337 127.447 88.9497 128.047 88.9497H130.219V89.5857H128.071C127.463 89.5857 127.039 89.6937 126.799 89.9097C126.567 90.1257 126.451 90.3937 126.451 90.7137C126.451 91.0737 126.591 91.3617 126.871 91.5777C127.151 91.7937 127.543 91.9017 128.047 91.9017C128.527 91.9017 128.939 91.7937 129.283 91.5777C129.635 91.3537 129.891 91.0337 130.051 90.6177L130.243 91.2057C130.083 91.6217 129.803 91.9537 129.403 92.2017C129.011 92.4497 128.515 92.5737 127.915 92.5737ZM132.139 92.5137L134.803 89.0577L134.791 89.4777L132.259 86.2137H133.219L135.295 88.9137L134.935 88.9017L137.011 86.2137H137.947L135.391 89.5137L135.403 89.0577L138.091 92.5137H137.119L134.923 89.6337L135.259 89.6817L133.099 92.5137H132.139ZM141.857 92.5737C141.249 92.5737 140.701 92.4377 140.213 92.1657C139.733 91.8857 139.353 91.5057 139.073 91.0257C138.793 90.5377 138.653 89.9817 138.653 89.3577C138.653 88.7257 138.793 88.1697 139.073 87.6897C139.353 87.2097 139.733 86.8337 140.213 86.5617C140.693 86.2897 141.241 86.1537 141.857 86.1537C142.481 86.1537 143.033 86.2897 143.513 86.5617C144.001 86.8337 144.381 87.2097 144.653 87.6897C144.933 88.1697 145.073 88.7257 145.073 89.3577C145.073 89.9817 144.933 90.5377 144.653 91.0257C144.381 91.5057 144.001 91.8857 143.513 92.1657C143.025 92.4377 142.473 92.5737 141.857 92.5737ZM141.857 91.8177C142.313 91.8177 142.717 91.7177 143.069 91.5177C143.421 91.3097 143.697 91.0217 143.897 90.6537C144.105 90.2777 144.209 89.8457 144.209 89.3577C144.209 88.8617 144.105 88.4297 143.897 88.0617C143.697 87.6937 143.421 87.4097 143.069 87.2097C142.717 87.0017 142.317 86.8977 141.869 86.8977C141.421 86.8977 141.021 87.0017 140.669 87.2097C140.317 87.4097 140.037 87.6937 139.829 88.0617C139.621 88.4297 139.517 88.8617 139.517 89.3577C139.517 89.8457 139.621 90.2777 139.829 90.6537C140.037 91.0217 140.317 91.3097 140.669 91.5177C141.021 91.7177 141.417 91.8177 141.857 91.8177ZM151.178 92.1057V86.9577H148.142L148.07 88.3617C148.054 88.7857 148.026 89.2017 147.986 89.6097C147.954 90.0177 147.894 90.3937 147.806 90.7377C147.726 91.0737 147.61 91.3497 147.458 91.5657C147.306 91.7737 147.11 91.8937 146.87 91.9257L146.018 91.7697C146.266 91.7777 146.47 91.6897 146.63 91.5057C146.79 91.3137 146.914 91.0537 147.002 90.7257C147.09 90.3977 147.154 90.0257 147.194 89.6097C147.234 89.1857 147.266 88.7537 147.29 88.3137L147.374 86.2137H152.03V92.1057H151.178ZM145.754 94.0377V91.7697H153.014V94.0377H152.21V92.5137H146.558V94.0377H145.754ZM154.675 92.5137V86.2137H155.527V91.2177L159.739 86.2137H160.495V92.5137H159.643V87.4977L155.443 92.5137H154.675ZM161.784 92.5017L161.844 91.7697C161.9 91.7777 161.952 91.7897 162 91.8057C162.056 91.8137 162.104 91.8177 162.144 91.8177C162.4 91.8177 162.604 91.7217 162.756 91.5297C162.916 91.3377 163.036 91.0817 163.116 90.7617C163.196 90.4417 163.252 90.0817 163.284 89.6817C163.316 89.2737 163.344 88.8657 163.368 88.4577L163.476 86.2137H168.096V92.5137H167.244V86.7057L167.46 86.9577H164.028L164.232 86.6937L164.136 88.5177C164.112 89.0617 164.068 89.5817 164.004 90.0777C163.948 90.5737 163.856 91.0097 163.728 91.3857C163.608 91.7617 163.44 92.0577 163.224 92.2737C163.008 92.4817 162.732 92.5857 162.396 92.5857C162.3 92.5857 162.2 92.5777 162.096 92.5617C162 92.5457 161.896 92.5257 161.784 92.5017ZM170.518 92.5137V86.2137H171.37V91.2177L175.582 86.2137H176.338V92.5137H175.486V87.4977L171.286 92.5137H170.518ZM181.42 92.5737C180.796 92.5737 180.236 92.4377 179.74 92.1657C179.252 91.8857 178.868 91.5057 178.588 91.0257C178.308 90.5377 178.168 89.9817 178.168 89.3577C178.168 88.7257 178.308 88.1697 178.588 87.6897C178.868 87.2097 179.252 86.8337 179.74 86.5617C180.236 86.2897 180.796 86.1537 181.42 86.1537C181.956 86.1537 182.44 86.2577 182.872 86.4657C183.304 86.6737 183.644 86.9857 183.892 87.4017L183.256 87.8337C183.04 87.5137 182.772 87.2777 182.452 87.1257C182.132 86.9737 181.784 86.8977 181.408 86.8977C180.96 86.8977 180.556 87.0017 180.196 87.2097C179.836 87.4097 179.552 87.6937 179.344 88.0617C179.136 88.4297 179.032 88.8617 179.032 89.3577C179.032 89.8537 179.136 90.2857 179.344 90.6537C179.552 91.0217 179.836 91.3097 180.196 91.5177C180.556 91.7177 180.96 91.8177 181.408 91.8177C181.784 91.8177 182.132 91.7417 182.452 91.5897C182.772 91.4377 183.04 91.2057 183.256 90.8937L183.892 91.3257C183.644 91.7337 183.304 92.0457 182.872 92.2617C182.44 92.4697 181.956 92.5737 181.42 92.5737ZM188.254 88.4337C189.046 88.4417 189.646 88.6177 190.054 88.9617C190.47 89.3057 190.678 89.8017 190.678 90.4497C190.678 91.1217 190.454 91.6377 190.006 91.9977C189.566 92.3577 188.926 92.5337 188.086 92.5257L185.542 92.5137V86.2137H186.394V88.4097L188.254 88.4337ZM188.038 91.8777C188.622 91.8857 189.062 91.7697 189.358 91.5297C189.662 91.2817 189.814 90.9217 189.814 90.4497C189.814 89.9777 189.666 89.6337 189.37 89.4177C189.074 89.1937 188.63 89.0777 188.038 89.0697L186.394 89.0457V91.8537L188.038 91.8777Z" fill="#666666"/>
<g clip-path="url(#clip0_0_631)">
<path d="M20.6078 46.0027H24.629V56.0556H20.6078V46.0027Z" stroke="white" stroke-width="2.01058" stroke-miterlimit="10" stroke-linecap="round" stroke-linejoin="round"/>
<path d="M55.8422 47.9193C56.1553 47.9695 56.4705 48.0156 56.7978 48.0156C60.129 48.0156 62.8295 45.3151 62.8295 41.9839C62.8295 41.333 62.6998 40.7182 62.5091 40.1309" stroke="white" stroke-width="2.01058" stroke-miterlimit="10" stroke-linecap="round" stroke-linejoin="round"/>
<path d="M58.8092 41.9814L66.8516 37.9602L39.5882 22.3812C39.0084 22.0498 38.3521 21.8756 37.6844 21.8757C36.4328 21.8759 35.2601 22.4866 34.5424 23.5119L29.2612 31.0561C28.8637 31.6239 28.6505 32.3003 28.6505 32.9934C28.6505 34.2006 29.2947 35.316 30.3404 35.9194L54.7907 50.0263L58.8092 41.9814Z" stroke="white" stroke-width="2.01058" stroke-miterlimit="10" stroke-linecap="round" stroke-linejoin="round"/>
<path d="M45.215 44.8697L43.7663 47.2843C43.1198 48.3616 41.9556 49.0208 40.6992 49.0208C40.0509 49.0208 39.4148 48.8446 38.8589 48.5111L36.3098 46.9816C35.2999 46.3757 34.682 45.2843 34.682 44.1066C34.682 43.3812 34.9173 42.6753 35.3525 42.095L36.7075 40.2883" stroke="white" stroke-width="2.01058" stroke-miterlimit="10" stroke-linecap="round" stroke-linejoin="round"/>
<path d="M39.2998 48.7348L37.2503 51.8091C36.3157 53.211 34.7528 54.0475 33.0681 54.0475H24.6292V50.0263H33.0681C33.4058 50.0263 33.718 49.8594 33.9046 49.5786L35.8564 46.6509" stroke="white" stroke-width="2.01058" stroke-miterlimit="10" stroke-linecap="round" stroke-linejoin="round"/>
<path d="M58.8099 41.9815L32.3144 26.6951" stroke="white" stroke-width="2.01058" stroke-miterlimit="10" stroke-linecap="round" stroke-linejoin="round"/>
<path d="M52.7776 44.9974C53.3328 44.9974 53.7829 44.5473 53.7829 43.9921C53.7829 43.4369 53.3328 42.9868 52.7776 42.9868C52.2224 42.9868 51.7723 43.4369 51.7723 43.9921C51.7723 44.5473 52.2224 44.9974 52.7776 44.9974Z" fill="white"/>
</g>
<defs>
<clipPath id="clip0_0_631">
<rect width="48.254" height="48.254" fill="white" transform="translate(19.6033 14.8381)"/>
</clipPath>
</defs>
</svg>
