<svg width="380" height="115" viewBox="0 0 380 115" fill="none" xmlns="http://www.w3.org/2000/svg">
<rect y="0.513672" width="380" height="114" rx="20" fill="#232A11"/>
<rect y="0.513672" width="380" height="114" rx="20" fill="black" fill-opacity="0.2"/>
<path d="M104.965 39.9737V37.9937L105.465 38.3937H104.965C103.632 38.3937 102.485 38.1537 101.525 37.6737C100.578 37.1803 99.8451 36.487 99.3251 35.5937C98.8051 34.687 98.5451 33.607 98.5451 32.3537C98.5451 31.087 98.7984 30.007 99.3051 29.1137C99.8117 28.207 100.538 27.5137 101.485 27.0337C102.445 26.5537 103.605 26.3137 104.965 26.3137H105.465L104.965 26.7137V24.8537H106.845V26.7137L106.345 26.3137H106.845C108.218 26.3137 109.378 26.5537 110.325 27.0337C111.272 27.5137 111.998 28.207 112.505 29.1137C113.012 30.007 113.265 31.087 113.265 32.3537C113.265 33.607 113.005 34.687 112.485 35.5937C111.978 36.487 111.245 37.1803 110.285 37.6737C109.338 38.1537 108.192 38.3937 106.845 38.3937H106.345L106.845 37.9937V39.9737H104.965ZM104.985 37.2937V27.4137L105.425 27.7937H104.725C103.872 27.7937 103.125 27.967 102.485 28.3137C101.845 28.6603 101.345 29.1737 100.985 29.8537C100.638 30.5337 100.465 31.367 100.465 32.3537C100.465 33.0737 100.565 33.7203 100.765 34.2937C100.978 34.8537 101.272 35.3337 101.645 35.7337C102.032 36.1203 102.485 36.4137 103.005 36.6137C103.525 36.8137 104.098 36.9137 104.725 36.9137H105.425L104.985 37.2937ZM106.825 37.2937L106.405 36.9137H107.085C107.725 36.9137 108.305 36.8137 108.825 36.6137C109.345 36.4137 109.792 36.1203 110.165 35.7337C110.538 35.3337 110.825 34.8537 111.025 34.2937C111.238 33.7203 111.345 33.0737 111.345 32.3537C111.345 31.367 111.165 30.5337 110.805 29.8537C110.458 29.1737 109.965 28.6603 109.325 28.3137C108.698 27.967 107.952 27.7937 107.085 27.7937H106.405L106.825 27.4137V37.2937ZM115.995 39.5137V29.7737H117.655V37.7337H117.135L123.115 29.7737H124.635V39.5137H122.995V31.5337H123.515L117.535 39.5137H115.995ZM127.753 39.5137V29.7737H129.573V33.7737H131.293L134.413 29.7737H136.393L132.753 34.5337L132.293 33.9737C132.653 34.0137 132.973 34.107 133.253 34.2537C133.533 34.4003 133.8 34.6203 134.053 34.9137C134.307 35.207 134.58 35.6003 134.873 36.0937L136.873 39.5137H134.913L133.193 36.5937C132.98 36.2203 132.773 35.9403 132.573 35.7537C132.373 35.5537 132.153 35.4137 131.913 35.3337C131.673 35.2537 131.38 35.2137 131.033 35.2137H129.573V39.5137H127.753ZM142.657 39.6937C141.67 39.6937 140.817 39.487 140.097 39.0737C139.377 38.647 138.823 38.0537 138.437 37.2937C138.05 36.5203 137.857 35.6137 137.857 34.5737C137.857 33.547 138.05 32.6603 138.437 31.9137C138.823 31.167 139.377 30.5937 140.097 30.1937C140.817 29.7937 141.67 29.5937 142.657 29.5937C143.27 29.5937 143.87 29.7003 144.457 29.9137C145.057 30.127 145.55 30.427 145.937 30.8137L145.337 32.0937C144.95 31.747 144.53 31.487 144.077 31.3137C143.623 31.1403 143.19 31.0537 142.777 31.0537C141.803 31.0537 141.05 31.3603 140.517 31.9737C139.983 32.587 139.717 33.4603 139.717 34.5937C139.717 35.727 139.983 36.6203 140.517 37.2737C141.05 37.9137 141.803 38.2337 142.777 38.2337C143.19 38.2337 143.623 38.147 144.077 37.9737C144.53 37.8003 144.95 37.5337 145.337 37.1737L145.937 38.4737C145.55 38.8603 145.05 39.1603 144.437 39.3737C143.837 39.587 143.243 39.6937 142.657 39.6937ZM147.949 39.5137V29.7737H149.609V37.7337H149.089L155.069 29.7737H156.589V39.5137H154.949V31.5337H155.469L149.489 39.5137H147.949ZM159.706 43.1137V29.7737H161.486V32.0137H161.286C161.5 31.2803 161.92 30.6937 162.546 30.2537C163.173 29.8137 163.926 29.5937 164.806 29.5937C165.673 29.5937 166.426 29.8003 167.066 30.2137C167.706 30.6137 168.206 31.1937 168.566 31.9537C168.926 32.7003 169.106 33.5937 169.106 34.6337C169.106 35.6603 168.926 36.5603 168.566 37.3337C168.22 38.0937 167.72 38.6803 167.066 39.0937C166.426 39.4937 165.673 39.6937 164.806 39.6937C163.94 39.6937 163.193 39.4737 162.566 39.0337C161.94 38.5937 161.52 38.0137 161.306 37.2937H161.526V43.1137H159.706ZM164.386 38.2537C165.266 38.2537 165.966 37.947 166.486 37.3337C167.006 36.707 167.266 35.807 167.266 34.6337C167.266 33.4603 167.006 32.567 166.486 31.9537C165.966 31.3403 165.266 31.0337 164.386 31.0337C163.506 31.0337 162.806 31.3403 162.286 31.9537C161.766 32.567 161.506 33.4603 161.506 34.6337C161.506 35.807 161.766 36.707 162.286 37.3337C162.806 37.947 163.506 38.2537 164.386 38.2537ZM175.799 39.6937C174.839 39.6937 174.006 39.487 173.299 39.0737C172.593 38.6603 172.046 38.0737 171.659 37.3137C171.273 36.5537 171.079 35.6603 171.079 34.6337C171.079 33.607 171.273 32.7203 171.659 31.9737C172.046 31.2137 172.593 30.627 173.299 30.2137C174.006 29.8003 174.839 29.5937 175.799 29.5937C176.759 29.5937 177.593 29.8003 178.299 30.2137C179.006 30.627 179.553 31.2137 179.939 31.9737C180.326 32.7203 180.519 33.607 180.519 34.6337C180.519 35.6603 180.326 36.5537 179.939 37.3137C179.553 38.0737 179.006 38.6603 178.299 39.0737C177.593 39.487 176.759 39.6937 175.799 39.6937ZM175.799 38.2537C176.679 38.2537 177.379 37.947 177.899 37.3337C178.419 36.707 178.679 35.807 178.679 34.6337C178.679 33.4603 178.419 32.567 177.899 31.9537C177.379 31.3403 176.679 31.0337 175.799 31.0337C174.933 31.0337 174.233 31.3403 173.699 31.9537C173.179 32.567 172.919 33.4603 172.919 34.6337C172.919 35.807 173.179 36.707 173.699 37.3337C174.233 37.947 174.933 38.2537 175.799 38.2537ZM183.085 39.5137V29.7737H187.945C188.732 29.7737 189.372 29.8737 189.865 30.0737C190.372 30.2737 190.745 30.5603 190.985 30.9337C191.225 31.307 191.345 31.7737 191.345 32.3337C191.345 32.947 191.132 33.467 190.705 33.8937C190.279 34.3203 189.719 34.5737 189.025 34.6537V34.3937C189.585 34.407 190.059 34.5203 190.445 34.7337C190.845 34.947 191.145 35.2337 191.345 35.5937C191.559 35.9403 191.665 36.347 191.665 36.8137C191.665 37.6403 191.359 38.3003 190.745 38.7937C190.132 39.2737 189.252 39.5137 188.105 39.5137H183.085ZM184.805 38.3137H188.005C188.645 38.3137 189.132 38.1803 189.465 37.9137C189.812 37.6337 189.985 37.2403 189.985 36.7337C189.985 36.2137 189.812 35.8203 189.465 35.5537C189.132 35.287 188.645 35.1537 188.005 35.1537H184.805V38.3137ZM184.805 33.9537H187.845C188.419 33.9537 188.859 33.8203 189.165 33.5537C189.485 33.287 189.645 32.9203 189.645 32.4537C189.645 31.9737 189.485 31.607 189.165 31.3537C188.859 31.1003 188.419 30.9737 187.845 30.9737H184.805V33.9537ZM197.22 39.6937C196.554 39.6937 195.947 39.5603 195.4 39.2937C194.867 39.027 194.447 38.667 194.14 38.2137C193.847 37.7603 193.7 37.2537 193.7 36.6937C193.7 35.9737 193.88 35.407 194.24 34.9937C194.6 34.5803 195.207 34.287 196.06 34.1137C196.914 33.927 198.06 33.8337 199.5 33.8337H200.44V34.9937H199.54C198.767 34.9937 198.12 35.0203 197.6 35.0737C197.08 35.127 196.667 35.2137 196.36 35.3337C196.054 35.4537 195.834 35.6203 195.7 35.8337C195.567 36.0337 195.5 36.287 195.5 36.5937C195.5 37.1137 195.68 37.5403 196.04 37.8737C196.414 38.207 196.92 38.3737 197.56 38.3737C198.067 38.3737 198.514 38.2537 198.9 38.0137C199.287 37.7603 199.594 37.427 199.82 37.0137C200.047 36.587 200.16 36.1003 200.16 35.5537V33.2537C200.16 32.467 200 31.9003 199.68 31.5537C199.36 31.1937 198.82 31.0137 198.06 31.0137C197.5 31.0137 196.94 31.1003 196.38 31.2737C195.834 31.447 195.267 31.7137 194.68 32.0737L194.1 30.7737C194.447 30.5337 194.84 30.327 195.28 30.1537C195.734 29.967 196.2 29.827 196.68 29.7337C197.174 29.6403 197.647 29.5937 198.1 29.5937C198.967 29.5937 199.68 29.7337 200.24 30.0137C200.8 30.2803 201.22 30.7003 201.5 31.2737C201.78 31.8337 201.92 32.5537 201.92 33.4337V39.5137H200.2V37.2937H200.38C200.274 37.787 200.074 38.2137 199.78 38.5737C199.487 38.9337 199.12 39.2137 198.68 39.4137C198.254 39.6003 197.767 39.6937 197.22 39.6937ZM204.999 39.5137V29.7737H206.819V33.7737H211.899V29.7737H213.719V39.5137H211.899V35.2337H206.819V39.5137H204.999ZM216.835 39.5137V29.7737H218.655V33.7737H223.735V29.7737H225.555V39.5137H223.735V35.2337H218.655V39.5137H216.835ZM231.771 39.6937C231.105 39.6937 230.498 39.5603 229.951 39.2937C229.418 39.027 228.998 38.667 228.691 38.2137C228.398 37.7603 228.251 37.2537 228.251 36.6937C228.251 35.9737 228.431 35.407 228.791 34.9937C229.151 34.5803 229.758 34.287 230.611 34.1137C231.465 33.927 232.611 33.8337 234.051 33.8337H234.991V34.9937H234.091C233.318 34.9937 232.671 35.0203 232.151 35.0737C231.631 35.127 231.218 35.2137 230.911 35.3337C230.605 35.4537 230.385 35.6203 230.251 35.8337C230.118 36.0337 230.051 36.287 230.051 36.5937C230.051 37.1137 230.231 37.5403 230.591 37.8737C230.965 38.207 231.471 38.3737 232.111 38.3737C232.618 38.3737 233.065 38.2537 233.451 38.0137C233.838 37.7603 234.145 37.427 234.371 37.0137C234.598 36.587 234.711 36.1003 234.711 35.5537V33.2537C234.711 32.467 234.551 31.9003 234.231 31.5537C233.911 31.1937 233.371 31.0137 232.611 31.0137C232.051 31.0137 231.491 31.1003 230.931 31.2737C230.385 31.447 229.818 31.7137 229.231 32.0737L228.651 30.7737C228.998 30.5337 229.391 30.327 229.831 30.1537C230.285 29.967 230.751 29.827 231.231 29.7337C231.725 29.6403 232.198 29.5937 232.651 29.5937C233.518 29.5937 234.231 29.7337 234.791 30.0137C235.351 30.2803 235.771 30.7003 236.051 31.2737C236.331 31.8337 236.471 32.5537 236.471 33.4337V39.5137H234.751V37.2937H234.931C234.825 37.787 234.625 38.2137 234.331 38.5737C234.038 38.9337 233.671 39.2137 233.231 39.4137C232.805 39.6003 232.318 39.6937 231.771 39.6937ZM238.75 39.5137L240.23 36.9337C240.483 36.4937 240.803 36.1337 241.19 35.8537C241.577 35.5737 241.97 35.4337 242.37 35.4337H242.65V35.6137C241.917 35.6137 241.29 35.5003 240.77 35.2737C240.25 35.047 239.85 34.7203 239.57 34.2937C239.303 33.8537 239.17 33.3337 239.17 32.7337C239.17 31.827 239.47 31.107 240.07 30.5737C240.683 30.0403 241.59 29.7737 242.79 29.7737H247.31V39.5137H245.61V35.8737H244.27C243.763 35.8737 243.33 36.0003 242.97 36.2537C242.623 36.507 242.343 36.827 242.13 37.2137L240.81 39.5137H238.75ZM243.15 34.6137H245.61V31.0337H243.15C242.39 31.0337 241.83 31.1937 241.47 31.5137C241.11 31.8203 240.93 32.2537 240.93 32.8137C240.93 33.3737 241.11 33.8137 241.47 34.1337C241.83 34.4537 242.39 34.6137 243.15 34.6137ZM264.044 42.1137V39.5137H255.624V29.7737H257.444V38.0537H262.224V29.7737H264.044V38.0537H265.604V42.1137H264.044ZM272.175 39.6937C271.122 39.6937 270.215 39.4937 269.455 39.0937C268.708 38.6803 268.128 38.1003 267.715 37.3537C267.302 36.5937 267.095 35.7003 267.095 34.6737C267.095 33.6603 267.295 32.7737 267.695 32.0137C268.108 31.2537 268.668 30.6603 269.375 30.2337C270.095 29.807 270.915 29.5937 271.835 29.5937C272.728 29.5937 273.488 29.787 274.115 30.1737C274.755 30.5603 275.242 31.1137 275.575 31.8337C275.922 32.5403 276.095 33.3937 276.095 34.3937V35.0537H268.515V33.8937H274.895L274.555 34.1737C274.555 33.1337 274.328 32.3337 273.875 31.7737C273.422 31.2003 272.755 30.9137 271.875 30.9137C271.235 30.9137 270.688 31.067 270.235 31.3737C269.782 31.667 269.435 32.087 269.195 32.6337C268.955 33.167 268.835 33.787 268.835 34.4937V34.6137C268.835 35.4137 268.962 36.087 269.215 36.6337C269.482 37.167 269.862 37.5737 270.355 37.8537C270.848 38.1203 271.455 38.2537 272.175 38.2537C272.748 38.2537 273.302 38.167 273.835 37.9937C274.382 37.807 274.895 37.5203 275.375 37.1337L275.935 38.3937C275.495 38.7937 274.928 39.1137 274.235 39.3537C273.555 39.5803 272.868 39.6937 272.175 39.6937ZM278.574 39.5137V29.7737H280.394V33.7737H285.474V29.7737H287.294V39.5137H285.474V35.2337H280.394V39.5137H278.574ZM293.509 39.6937C292.843 39.6937 292.236 39.5603 291.689 39.2937C291.156 39.027 290.736 38.667 290.429 38.2137C290.136 37.7603 289.989 37.2537 289.989 36.6937C289.989 35.9737 290.169 35.407 290.529 34.9937C290.889 34.5803 291.496 34.287 292.349 34.1137C293.203 33.927 294.349 33.8337 295.789 33.8337H296.729V34.9937H295.829C295.056 34.9937 294.409 35.0203 293.889 35.0737C293.369 35.127 292.956 35.2137 292.649 35.3337C292.343 35.4537 292.123 35.6203 291.989 35.8337C291.856 36.0337 291.789 36.287 291.789 36.5937C291.789 37.1137 291.969 37.5403 292.329 37.8737C292.703 38.207 293.209 38.3737 293.849 38.3737C294.356 38.3737 294.803 38.2537 295.189 38.0137C295.576 37.7603 295.883 37.427 296.109 37.0137C296.336 36.587 296.449 36.1003 296.449 35.5537V33.2537C296.449 32.467 296.289 31.9003 295.969 31.5537C295.649 31.1937 295.109 31.0137 294.349 31.0137C293.789 31.0137 293.229 31.1003 292.669 31.2737C292.123 31.447 291.556 31.7137 290.969 32.0737L290.389 30.7737C290.736 30.5337 291.129 30.327 291.569 30.1537C292.023 29.967 292.489 29.827 292.969 29.7337C293.463 29.6403 293.936 29.5937 294.389 29.5937C295.256 29.5937 295.969 29.7337 296.529 30.0137C297.089 30.2803 297.509 30.7003 297.789 31.2737C298.069 31.8337 298.209 32.5537 298.209 33.4337V39.5137H296.489V37.2937H296.669C296.563 37.787 296.363 38.2137 296.069 38.5737C295.776 38.9337 295.409 39.2137 294.969 39.4137C294.543 39.6003 294.056 39.6937 293.509 39.6937Z" fill="white"/>
<path d="M104.925 54.1137H105.801V62.5137H104.925V54.1137ZM99.6691 62.5137H98.7811V54.1137H99.6691V62.5137ZM105.009 58.6377H99.5731V57.8577H105.009V58.6377ZM108.433 62.5137V56.2137H109.285V61.2177L113.497 56.2137H114.253V62.5137H113.401V57.4977L109.201 62.5137H108.433ZM121.314 62.5137L118.722 59.3937L119.43 58.9737L122.322 62.5137H121.314ZM116.694 62.5137V56.2137H117.546V62.5137H116.694ZM117.282 59.7057V58.9737H119.31V59.7057H117.282ZM119.502 59.4537L118.71 59.3337L121.218 56.2137H122.142L119.502 59.4537ZM127.462 62.5137V61.1217L127.426 60.8937V58.5657C127.426 58.0297 127.274 57.6177 126.97 57.3297C126.674 57.0417 126.23 56.8977 125.638 56.8977C125.23 56.8977 124.842 56.9657 124.474 57.1017C124.106 57.2377 123.794 57.4177 123.538 57.6417L123.154 57.0057C123.474 56.7337 123.858 56.5257 124.306 56.3817C124.754 56.2297 125.226 56.1537 125.722 56.1537C126.538 56.1537 127.166 56.3577 127.606 56.7657C128.054 57.1657 128.278 57.7777 128.278 58.6017V62.5137H127.462ZM125.29 62.5737C124.818 62.5737 124.406 62.4977 124.054 62.3457C123.71 62.1857 123.446 61.9697 123.262 61.6977C123.078 61.4177 122.986 61.0977 122.986 60.7377C122.986 60.4097 123.062 60.1137 123.214 59.8497C123.374 59.5777 123.63 59.3617 123.982 59.2017C124.342 59.0337 124.822 58.9497 125.422 58.9497H127.594V59.5857H125.446C124.838 59.5857 124.414 59.6937 124.174 59.9097C123.942 60.1257 123.826 60.3937 123.826 60.7137C123.826 61.0737 123.966 61.3617 124.246 61.5777C124.526 61.7937 124.918 61.9017 125.422 61.9017C125.902 61.9017 126.314 61.7937 126.658 61.5777C127.01 61.3537 127.266 61.0337 127.426 60.6177L127.618 61.2057C127.458 61.6217 127.178 61.9537 126.778 62.2017C126.386 62.4497 125.89 62.5737 125.29 62.5737ZM135.166 62.5137L132.574 59.3937L133.282 58.9737L136.174 62.5137H135.166ZM130.546 62.5137V56.2137H131.398V62.5137H130.546ZM131.134 59.7057V58.9737H133.162V59.7057H131.134ZM133.354 59.4537L132.562 59.3337L135.07 56.2137H135.994L133.354 59.4537ZM137.518 62.5137V56.2137H138.37V61.2177L142.582 56.2137H143.338V62.5137H142.486V57.4977L138.286 62.5137H137.518ZM144.748 62.5137L147.412 59.0577L147.4 59.4777L144.868 56.2137H145.828L147.904 58.9137L147.544 58.9017L149.62 56.2137H150.556L148 59.5137L148.012 59.0577L150.7 62.5137H149.728L147.532 59.6337L147.868 59.6817L145.708 62.5137H144.748ZM157.877 62.5737C157.253 62.5737 156.693 62.4377 156.197 62.1657C155.709 61.8857 155.325 61.5057 155.045 61.0257C154.765 60.5377 154.625 59.9817 154.625 59.3577C154.625 58.7257 154.765 58.1697 155.045 57.6897C155.325 57.2097 155.709 56.8337 156.197 56.5617C156.693 56.2897 157.253 56.1537 157.877 56.1537C158.413 56.1537 158.897 56.2577 159.329 56.4657C159.761 56.6737 160.101 56.9857 160.349 57.4017L159.713 57.8337C159.497 57.5137 159.229 57.2777 158.909 57.1257C158.589 56.9737 158.241 56.8977 157.865 56.8977C157.417 56.8977 157.013 57.0017 156.653 57.2097C156.293 57.4097 156.009 57.6937 155.801 58.0617C155.593 58.4297 155.489 58.8617 155.489 59.3577C155.489 59.8537 155.593 60.2857 155.801 60.6537C156.009 61.0217 156.293 61.3097 156.653 61.5177C157.013 61.7177 157.417 61.8177 157.865 61.8177C158.241 61.8177 158.589 61.7417 158.909 61.5897C159.229 61.4377 159.497 61.2057 159.713 60.8937L160.349 61.3257C160.101 61.7337 159.761 62.0457 159.329 62.2617C158.897 62.4697 158.413 62.5737 157.877 62.5737ZM166.619 62.5137L164.027 59.3937L164.735 58.9737L167.627 62.5137H166.619ZM161.999 62.5137V56.2137H162.851V62.5137H161.999ZM162.587 59.7057V58.9737H164.615V59.7057H162.587ZM164.807 59.4537L164.015 59.3337L166.523 56.2137H167.447L164.807 59.4537ZM172.224 62.5737C171.68 62.5737 171.188 62.4497 170.748 62.2017C170.308 61.9457 169.956 61.5817 169.692 61.1097C169.436 60.6297 169.308 60.0457 169.308 59.3577C169.308 58.6697 169.436 58.0897 169.692 57.6177C169.948 57.1377 170.296 56.7737 170.736 56.5257C171.176 56.2777 171.672 56.1537 172.224 56.1537C172.824 56.1537 173.36 56.2897 173.832 56.5617C174.312 56.8257 174.688 57.2017 174.96 57.6897C175.232 58.1697 175.368 58.7257 175.368 59.3577C175.368 59.9977 175.232 60.5577 174.96 61.0377C174.688 61.5177 174.312 61.8937 173.832 62.1657C173.36 62.4377 172.824 62.5737 172.224 62.5737ZM168.972 64.8417V56.2137H169.788V58.1097L169.704 59.3697L169.824 60.6417V64.8417H168.972ZM172.164 61.8177C172.612 61.8177 173.012 61.7177 173.364 61.5177C173.716 61.3097 173.996 61.0217 174.204 60.6537C174.412 60.2777 174.516 59.8457 174.516 59.3577C174.516 58.8697 174.412 58.4417 174.204 58.0737C173.996 57.7057 173.716 57.4177 173.364 57.2097C173.012 57.0017 172.612 56.8977 172.164 56.8977C171.716 56.8977 171.312 57.0017 170.952 57.2097C170.6 57.4177 170.32 57.7057 170.112 58.0737C169.912 58.4417 169.812 58.8697 169.812 59.3577C169.812 59.8457 169.912 60.2777 170.112 60.6537C170.32 61.0217 170.6 61.3097 170.952 61.5177C171.312 61.7177 171.716 61.8177 172.164 61.8177ZM183.342 62.5137V56.2137H184.194V62.5137H183.342ZM179.85 58.4337C180.642 58.4417 181.246 58.6177 181.662 58.9617C182.078 59.3057 182.286 59.8017 182.286 60.4497C182.286 61.1217 182.062 61.6377 181.614 61.9977C181.166 62.3577 180.526 62.5337 179.694 62.5257L177.198 62.5137V56.2137H178.05V58.4097L179.85 58.4337ZM179.634 61.8777C180.226 61.8857 180.67 61.7697 180.966 61.5297C181.27 61.2817 181.422 60.9217 181.422 60.4497C181.422 59.9777 181.274 59.6337 180.978 59.4177C180.682 59.1937 180.234 59.0777 179.634 59.0697L178.05 59.0457V61.8537L179.634 61.8777ZM187.82 62.5137V56.7297L188.036 56.9577H185.432V56.2137H191.06V56.9577H188.456L188.672 56.7297V62.5137H187.82ZM198.436 62.5137V56.2137H199.288V62.5137H198.436ZM194.944 58.4337C195.736 58.4417 196.34 58.6177 196.756 58.9617C197.172 59.3057 197.38 59.8017 197.38 60.4497C197.38 61.1217 197.156 61.6377 196.708 61.9977C196.26 62.3577 195.62 62.5337 194.788 62.5257L192.292 62.5137V56.2137H193.144V58.4097L194.944 58.4337ZM194.728 61.8777C195.32 61.8857 195.764 61.7697 196.06 61.5297C196.364 61.2817 196.516 60.9217 196.516 60.4497C196.516 59.9777 196.368 59.6337 196.072 59.4177C195.776 59.1937 195.328 59.0777 194.728 59.0697L193.144 59.0457V61.8537L194.728 61.8777ZM200.682 62.5137L203.346 59.0577L203.334 59.4777L200.802 56.2137H201.762L203.838 58.9137L203.478 58.9017L205.554 56.2137H206.49L203.934 59.5137L203.946 59.0577L206.634 62.5137H205.662L203.466 59.6337L203.802 59.6817L201.642 62.5137H200.682ZM215.491 62.1057V56.9577H212.455L212.383 58.3617C212.367 58.7857 212.339 59.2017 212.299 59.6097C212.267 60.0177 212.207 60.3937 212.119 60.7377C212.039 61.0737 211.923 61.3497 211.771 61.5657C211.619 61.7737 211.423 61.8937 211.183 61.9257L210.331 61.7697C210.579 61.7777 210.783 61.6897 210.943 61.5057C211.103 61.3137 211.227 61.0537 211.315 60.7257C211.403 60.3977 211.467 60.0257 211.507 59.6097C211.547 59.1857 211.579 58.7537 211.603 58.3137L211.687 56.2137H216.343V62.1057H215.491ZM210.067 64.0377V61.7697H217.327V64.0377H216.523V62.5137H210.871V64.0377H210.067ZM221.579 62.5737C220.971 62.5737 220.423 62.4377 219.935 62.1657C219.455 61.8857 219.075 61.5057 218.795 61.0257C218.515 60.5377 218.375 59.9817 218.375 59.3577C218.375 58.7257 218.515 58.1697 218.795 57.6897C219.075 57.2097 219.455 56.8337 219.935 56.5617C220.415 56.2897 220.963 56.1537 221.579 56.1537C222.203 56.1537 222.755 56.2897 223.235 56.5617C223.723 56.8337 224.103 57.2097 224.375 57.6897C224.655 58.1697 224.795 58.7257 224.795 59.3577C224.795 59.9817 224.655 60.5377 224.375 61.0257C224.103 61.5057 223.723 61.8857 223.235 62.1657C222.747 62.4377 222.195 62.5737 221.579 62.5737ZM221.579 61.8177C222.035 61.8177 222.439 61.7177 222.791 61.5177C223.143 61.3097 223.419 61.0217 223.619 60.6537C223.827 60.2777 223.931 59.8457 223.931 59.3577C223.931 58.8617 223.827 58.4297 223.619 58.0617C223.419 57.6937 223.143 57.4097 222.791 57.2097C222.439 57.0017 222.039 56.8977 221.591 56.8977C221.143 56.8977 220.743 57.0017 220.391 57.2097C220.039 57.4097 219.759 57.6937 219.551 58.0617C219.343 58.4297 219.239 58.8617 219.239 59.3577C219.239 59.8457 219.343 60.2777 219.551 60.6537C219.759 61.0217 220.039 61.3097 220.391 61.5177C220.743 61.7177 221.139 61.8177 221.579 61.8177ZM226.616 62.5137V56.2137H232.28V62.5137H231.428V56.7297L231.644 56.9577H227.252L227.468 56.7297V62.5137H226.616ZM233.55 62.5017L233.61 61.7697C233.666 61.7777 233.718 61.7897 233.766 61.8057C233.822 61.8137 233.87 61.8177 233.91 61.8177C234.166 61.8177 234.37 61.7217 234.522 61.5297C234.682 61.3377 234.802 61.0817 234.882 60.7617C234.962 60.4417 235.018 60.0817 235.05 59.6817C235.082 59.2737 235.11 58.8657 235.134 58.4577L235.242 56.2137H239.862V62.5137H239.01V56.7057L239.226 56.9577H235.794L235.998 56.6937L235.902 58.5177C235.878 59.0617 235.834 59.5817 235.77 60.0777C235.714 60.5737 235.622 61.0097 235.494 61.3857C235.374 61.7617 235.206 62.0577 234.99 62.2737C234.774 62.4817 234.498 62.5857 234.162 62.5857C234.066 62.5857 233.966 62.5777 233.862 62.5617C233.766 62.5457 233.662 62.5257 233.55 62.5017ZM246.196 62.5137V61.1217L246.16 60.8937V58.5657C246.16 58.0297 246.008 57.6177 245.704 57.3297C245.408 57.0417 244.964 56.8977 244.372 56.8977C243.964 56.8977 243.576 56.9657 243.208 57.1017C242.84 57.2377 242.528 57.4177 242.272 57.6417L241.888 57.0057C242.208 56.7337 242.592 56.5257 243.04 56.3817C243.488 56.2297 243.96 56.1537 244.456 56.1537C245.272 56.1537 245.9 56.3577 246.34 56.7657C246.788 57.1657 247.012 57.7777 247.012 58.6017V62.5137H246.196ZM244.024 62.5737C243.552 62.5737 243.14 62.4977 242.788 62.3457C242.444 62.1857 242.18 61.9697 241.996 61.6977C241.812 61.4177 241.72 61.0977 241.72 60.7377C241.72 60.4097 241.796 60.1137 241.948 59.8497C242.108 59.5777 242.364 59.3617 242.716 59.2017C243.076 59.0337 243.556 58.9497 244.156 58.9497H246.328V59.5857H244.18C243.572 59.5857 243.148 59.6937 242.908 59.9097C242.676 60.1257 242.56 60.3937 242.56 60.7137C242.56 61.0737 242.7 61.3617 242.98 61.5777C243.26 61.7937 243.652 61.9017 244.156 61.9017C244.636 61.9017 245.048 61.7937 245.392 61.5777C245.744 61.3537 246 61.0337 246.16 60.6177L246.352 61.2057C246.192 61.6217 245.912 61.9537 245.512 62.2017C245.12 62.4497 244.624 62.5737 244.024 62.5737ZM250.48 62.5137V56.7297L250.696 56.9577H248.092V56.2137H253.72V56.9577H251.116L251.332 56.7297V62.5137H250.48ZM253.873 64.2657L254.401 62.0457L254.497 62.5617C254.313 62.5617 254.157 62.5017 254.029 62.3817C253.909 62.2617 253.849 62.1057 253.849 61.9137C253.849 61.7217 253.909 61.5657 254.029 61.4457C254.157 61.3257 254.309 61.2657 254.485 61.2657C254.669 61.2657 254.817 61.3297 254.929 61.4577C255.049 61.5857 255.109 61.7377 255.109 61.9137C255.109 61.9777 255.105 62.0417 255.097 62.1057C255.089 62.1697 255.073 62.2417 255.049 62.3217C255.025 62.4017 254.993 62.4977 254.953 62.6097L254.449 64.2657H253.873ZM261.297 62.5137V56.7297L261.513 56.9577H258.909V56.2137H264.537V56.9577H261.933L262.149 56.7297V62.5137H261.297ZM268.068 62.5737C267.46 62.5737 266.912 62.4377 266.424 62.1657C265.944 61.8857 265.564 61.5057 265.284 61.0257C265.004 60.5377 264.864 59.9817 264.864 59.3577C264.864 58.7257 265.004 58.1697 265.284 57.6897C265.564 57.2097 265.944 56.8337 266.424 56.5617C266.904 56.2897 267.452 56.1537 268.068 56.1537C268.692 56.1537 269.244 56.2897 269.724 56.5617C270.212 56.8337 270.592 57.2097 270.864 57.6897C271.144 58.1697 271.284 58.7257 271.284 59.3577C271.284 59.9817 271.144 60.5377 270.864 61.0257C270.592 61.5057 270.212 61.8857 269.724 62.1657C269.236 62.4377 268.684 62.5737 268.068 62.5737ZM268.068 61.8177C268.524 61.8177 268.928 61.7177 269.28 61.5177C269.632 61.3097 269.908 61.0217 270.108 60.6537C270.316 60.2777 270.42 59.8457 270.42 59.3577C270.42 58.8617 270.316 58.4297 270.108 58.0617C269.908 57.6937 269.632 57.4097 269.28 57.2097C268.928 57.0017 268.528 56.8977 268.08 56.8977C267.632 56.8977 267.232 57.0017 266.88 57.2097C266.528 57.4097 266.248 57.6937 266.04 58.0617C265.832 58.4297 265.728 58.8617 265.728 59.3577C265.728 59.8457 265.832 60.2777 266.04 60.6537C266.248 61.0217 266.528 61.3097 266.88 61.5177C267.232 61.7177 267.628 61.8177 268.068 61.8177ZM271.917 62.5017L271.977 61.7697C272.033 61.7777 272.085 61.7897 272.133 61.8057C272.189 61.8137 272.237 61.8177 272.277 61.8177C272.533 61.8177 272.737 61.7217 272.889 61.5297C273.049 61.3377 273.169 61.0817 273.249 60.7617C273.329 60.4417 273.385 60.0817 273.417 59.6817C273.449 59.2737 273.477 58.8657 273.501 58.4577L273.609 56.2137H278.229V62.5137H277.377V56.7057L277.593 56.9577H274.161L274.365 56.6937L274.269 58.5177C274.245 59.0617 274.201 59.5817 274.137 60.0777C274.081 60.5737 273.989 61.0097 273.861 61.3857C273.741 61.7617 273.573 62.0577 273.357 62.2737C273.141 62.4817 272.865 62.5857 272.529 62.5857C272.433 62.5857 272.333 62.5777 272.229 62.5617C272.133 62.5457 272.029 62.5257 271.917 62.5017ZM283.363 58.4337C284.155 58.4417 284.755 58.6177 285.163 58.9617C285.579 59.3057 285.787 59.8017 285.787 60.4497C285.787 61.1217 285.563 61.6377 285.115 61.9977C284.675 62.3577 284.035 62.5337 283.195 62.5257L280.651 62.5137V56.2137H281.503V58.4097L283.363 58.4337ZM283.147 61.8777C283.731 61.8857 284.171 61.7697 284.467 61.5297C284.771 61.2817 284.923 60.9217 284.923 60.4497C284.923 59.9777 284.775 59.6337 284.479 59.4177C284.183 59.1937 283.739 59.0777 283.147 59.0697L281.503 59.0457V61.8537L283.147 61.8777ZM292.033 62.5137L289.441 59.3937L290.149 58.9737L293.041 62.5137H292.033ZM287.413 62.5137V56.2137H288.265V62.5137H287.413ZM288.001 59.7057V58.9737H290.029V59.7057H288.001ZM290.221 59.4537L289.429 59.3337L291.937 56.2137H292.861L290.221 59.4537ZM296.755 62.5737C296.147 62.5737 295.599 62.4377 295.111 62.1657C294.631 61.8857 294.251 61.5057 293.971 61.0257C293.691 60.5377 293.551 59.9817 293.551 59.3577C293.551 58.7257 293.691 58.1697 293.971 57.6897C294.251 57.2097 294.631 56.8337 295.111 56.5617C295.591 56.2897 296.139 56.1537 296.755 56.1537C297.379 56.1537 297.931 56.2897 298.411 56.5617C298.899 56.8337 299.279 57.2097 299.551 57.6897C299.831 58.1697 299.971 58.7257 299.971 59.3577C299.971 59.9817 299.831 60.5377 299.551 61.0257C299.279 61.5057 298.899 61.8857 298.411 62.1657C297.923 62.4377 297.371 62.5737 296.755 62.5737ZM296.755 61.8177C297.211 61.8177 297.615 61.7177 297.967 61.5177C298.319 61.3097 298.595 61.0217 298.795 60.6537C299.003 60.2777 299.107 59.8457 299.107 59.3577C299.107 58.8617 299.003 58.4297 298.795 58.0617C298.595 57.6937 298.319 57.4097 297.967 57.2097C297.615 57.0017 297.215 56.8977 296.767 56.8977C296.319 56.8977 295.919 57.0017 295.567 57.2097C295.215 57.4097 294.935 57.6937 294.727 58.0617C294.519 58.4297 294.415 58.8617 294.415 59.3577C294.415 59.8457 294.519 60.2777 294.727 60.6537C294.935 61.0217 295.215 61.3097 295.567 61.5177C295.919 61.7177 296.315 61.8177 296.755 61.8177ZM98.5771 77.5137V71.2137H104.241V77.5137H103.389V71.7297L103.605 71.9577H99.2131L99.4291 71.7297V77.5137H98.5771ZM109.915 77.5737C109.371 77.5737 108.879 77.4497 108.439 77.2017C107.999 76.9457 107.647 76.5817 107.383 76.1097C107.127 75.6297 106.999 75.0457 106.999 74.3577C106.999 73.6697 107.127 73.0897 107.383 72.6177C107.639 72.1377 107.987 71.7737 108.427 71.5257C108.867 71.2777 109.363 71.1537 109.915 71.1537C110.515 71.1537 111.051 71.2897 111.523 71.5617C112.003 71.8257 112.379 72.2017 112.651 72.6897C112.923 73.1697 113.059 73.7257 113.059 74.3577C113.059 74.9977 112.923 75.5577 112.651 76.0377C112.379 76.5177 112.003 76.8937 111.523 77.1657C111.051 77.4377 110.515 77.5737 109.915 77.5737ZM106.663 79.8417V71.2137H107.479V73.1097L107.395 74.3697L107.515 75.6417V79.8417H106.663ZM109.855 76.8177C110.303 76.8177 110.703 76.7177 111.055 76.5177C111.407 76.3097 111.687 76.0217 111.895 75.6537C112.103 75.2777 112.207 74.8457 112.207 74.3577C112.207 73.8697 112.103 73.4417 111.895 73.0737C111.687 72.7057 111.407 72.4177 111.055 72.2097C110.703 72.0017 110.303 71.8977 109.855 71.8977C109.407 71.8977 109.003 72.0017 108.643 72.2097C108.291 72.4177 108.011 72.7057 107.803 73.0737C107.603 73.4417 107.503 73.8697 107.503 74.3577C107.503 74.8457 107.603 75.2777 107.803 75.6537C108.011 76.0217 108.291 76.3097 108.643 76.5177C109.003 76.7177 109.407 76.8177 109.855 76.8177ZM117.482 77.5737C116.874 77.5737 116.326 77.4377 115.838 77.1657C115.358 76.8857 114.978 76.5057 114.698 76.0257C114.418 75.5377 114.278 74.9817 114.278 74.3577C114.278 73.7257 114.418 73.1697 114.698 72.6897C114.978 72.2097 115.358 71.8337 115.838 71.5617C116.318 71.2897 116.866 71.1537 117.482 71.1537C118.106 71.1537 118.658 71.2897 119.138 71.5617C119.626 71.8337 120.006 72.2097 120.278 72.6897C120.558 73.1697 120.698 73.7257 120.698 74.3577C120.698 74.9817 120.558 75.5377 120.278 76.0257C120.006 76.5057 119.626 76.8857 119.138 77.1657C118.65 77.4377 118.098 77.5737 117.482 77.5737ZM117.482 76.8177C117.938 76.8177 118.342 76.7177 118.694 76.5177C119.046 76.3097 119.322 76.0217 119.522 75.6537C119.73 75.2777 119.834 74.8457 119.834 74.3577C119.834 73.8617 119.73 73.4297 119.522 73.0617C119.322 72.6937 119.046 72.4097 118.694 72.2097C118.342 72.0017 117.942 71.8977 117.494 71.8977C117.046 71.8977 116.646 72.0017 116.294 72.2097C115.942 72.4097 115.662 72.6937 115.454 73.0617C115.246 73.4297 115.142 73.8617 115.142 74.3577C115.142 74.8457 115.246 75.2777 115.454 75.6537C115.662 76.0217 115.942 76.3097 116.294 76.5177C116.646 76.7177 117.042 76.8177 117.482 76.8177ZM124.164 77.5857C123.708 77.5857 123.256 77.5217 122.808 77.3937C122.36 77.2657 121.964 77.0697 121.62 76.8057L121.896 76.1697C122.2 76.3937 122.552 76.5657 122.952 76.6857C123.352 76.7977 123.748 76.8537 124.14 76.8537C124.532 76.8457 124.872 76.7897 125.16 76.6857C125.448 76.5817 125.672 76.4377 125.832 76.2537C125.992 76.0697 126.072 75.8617 126.072 75.6297C126.072 75.2937 125.92 75.0337 125.616 74.8497C125.312 74.6577 124.896 74.5617 124.368 74.5617H123.288V73.9377H124.308C124.62 73.9377 124.896 73.8977 125.136 73.8177C125.376 73.7377 125.56 73.6217 125.688 73.4697C125.824 73.3177 125.892 73.1377 125.892 72.9297C125.892 72.7057 125.812 72.5137 125.652 72.3537C125.5 72.1937 125.288 72.0737 125.016 71.9937C124.744 71.9137 124.436 71.8737 124.092 71.8737C123.78 71.8817 123.456 71.9297 123.12 72.0177C122.784 72.0977 122.452 72.2217 122.124 72.3897L121.884 71.7297C122.252 71.5377 122.616 71.3937 122.976 71.2977C123.344 71.1937 123.712 71.1417 124.08 71.1417C124.584 71.1257 125.036 71.1857 125.436 71.3217C125.844 71.4577 126.168 71.6537 126.408 71.9097C126.648 72.1577 126.768 72.4577 126.768 72.8097C126.768 73.1217 126.672 73.3937 126.48 73.6257C126.288 73.8577 126.032 74.0377 125.712 74.1657C125.392 74.2937 125.028 74.3577 124.62 74.3577L124.656 74.1297C125.376 74.1297 125.936 74.2697 126.336 74.5497C126.744 74.8297 126.948 75.2097 126.948 75.6897C126.948 76.0657 126.824 76.3977 126.576 76.6857C126.328 76.9657 125.992 77.1857 125.568 77.3457C125.152 77.5057 124.684 77.5857 124.164 77.5857ZM132.134 77.5737C131.59 77.5737 131.098 77.4497 130.658 77.2017C130.218 76.9457 129.866 76.5817 129.602 76.1097C129.346 75.6297 129.218 75.0457 129.218 74.3577C129.218 73.6697 129.346 73.0897 129.602 72.6177C129.858 72.1377 130.206 71.7737 130.646 71.5257C131.086 71.2777 131.582 71.1537 132.134 71.1537C132.734 71.1537 133.27 71.2897 133.742 71.5617C134.222 71.8257 134.598 72.2017 134.87 72.6897C135.142 73.1697 135.278 73.7257 135.278 74.3577C135.278 74.9977 135.142 75.5577 134.87 76.0377C134.598 76.5177 134.222 76.8937 133.742 77.1657C133.27 77.4377 132.734 77.5737 132.134 77.5737ZM128.882 79.8417V71.2137H129.698V73.1097L129.614 74.3697L129.734 75.6417V79.8417H128.882ZM132.074 76.8177C132.522 76.8177 132.922 76.7177 133.274 76.5177C133.626 76.3097 133.906 76.0217 134.114 75.6537C134.322 75.2777 134.426 74.8457 134.426 74.3577C134.426 73.8697 134.322 73.4417 134.114 73.0737C133.906 72.7057 133.626 72.4177 133.274 72.2097C132.922 72.0017 132.522 71.8977 132.074 71.8977C131.626 71.8977 131.222 72.0017 130.862 72.2097C130.51 72.4177 130.23 72.7057 130.022 73.0737C129.822 73.4417 129.722 73.8697 129.722 74.3577C129.722 74.8457 129.822 75.2777 130.022 75.6537C130.23 76.0217 130.51 76.3097 130.862 76.5177C131.222 76.7177 131.626 76.8177 132.074 76.8177ZM140.985 77.5137V76.1217L140.949 75.8937V73.5657C140.949 73.0297 140.797 72.6177 140.493 72.3297C140.197 72.0417 139.753 71.8977 139.161 71.8977C138.753 71.8977 138.365 71.9657 137.997 72.1017C137.629 72.2377 137.317 72.4177 137.061 72.6417L136.677 72.0057C136.997 71.7337 137.381 71.5257 137.829 71.3817C138.277 71.2297 138.749 71.1537 139.245 71.1537C140.061 71.1537 140.689 71.3577 141.129 71.7657C141.577 72.1657 141.801 72.7777 141.801 73.6017V77.5137H140.985ZM138.813 77.5737C138.341 77.5737 137.929 77.4977 137.577 77.3457C137.233 77.1857 136.969 76.9697 136.785 76.6977C136.601 76.4177 136.509 76.0977 136.509 75.7377C136.509 75.4097 136.585 75.1137 136.737 74.8497C136.897 74.5777 137.153 74.3617 137.505 74.2017C137.865 74.0337 138.345 73.9497 138.945 73.9497H141.117V74.5857H138.969C138.361 74.5857 137.937 74.6937 137.697 74.9097C137.465 75.1257 137.349 75.3937 137.349 75.7137C137.349 76.0737 137.489 76.3617 137.769 76.5777C138.049 76.7937 138.441 76.9017 138.945 76.9017C139.425 76.9017 139.837 76.7937 140.181 76.5777C140.533 76.3537 140.789 76.0337 140.949 75.6177L141.141 76.2057C140.981 76.6217 140.701 76.9537 140.301 77.2017C139.909 77.4497 139.413 77.5737 138.813 77.5737ZM148.053 74.8497C147.685 75.0097 147.313 75.1377 146.937 75.2337C146.569 75.3217 146.201 75.3657 145.833 75.3657C145.089 75.3657 144.501 75.1977 144.069 74.8617C143.637 74.5177 143.421 73.9897 143.421 73.2777V71.2137H144.261V73.2297C144.261 73.7097 144.417 74.0697 144.729 74.3097C145.041 74.5497 145.461 74.6697 145.989 74.6697C146.309 74.6697 146.645 74.6297 146.997 74.5497C147.349 74.4617 147.705 74.3377 148.065 74.1777L148.053 74.8497ZM147.981 77.5137V71.2137H148.833V77.5137H147.981ZM151.253 77.5137V71.2137H152.105V73.9977H156.077V71.2137H156.929V77.5137H156.077V74.7297H152.105V77.5137H151.253ZM165.495 77.5137V71.2137H166.347V77.5137H165.495ZM162.003 73.4337C162.795 73.4417 163.399 73.6177 163.815 73.9617C164.231 74.3057 164.439 74.8017 164.439 75.4497C164.439 76.1217 164.215 76.6377 163.767 76.9977C163.319 77.3577 162.679 77.5337 161.847 77.5257L159.351 77.5137V71.2137H160.203V73.4097L162.003 73.4337ZM161.787 76.8777C162.379 76.8857 162.823 76.7697 163.119 76.5297C163.423 76.2817 163.575 75.9217 163.575 75.4497C163.575 74.9777 163.427 74.6337 163.131 74.4177C162.835 74.1937 162.387 74.0777 161.787 74.0697L160.203 74.0457V76.8537L161.787 76.8777ZM168.772 77.5137V71.2137H169.624V76.2177L173.836 71.2137H174.592V77.5137H173.74V72.4977L169.54 77.5137H168.772ZM171.628 70.3017C171.1 70.3017 170.672 70.1697 170.344 69.9057C170.024 69.6337 169.856 69.2457 169.84 68.7417H170.452C170.46 69.0617 170.572 69.3137 170.788 69.4977C171.004 69.6817 171.284 69.7737 171.628 69.7737C171.972 69.7737 172.252 69.6817 172.468 69.4977C172.692 69.3137 172.808 69.0617 172.816 68.7417H173.428C173.42 69.2457 173.252 69.6337 172.924 69.9057C172.596 70.1697 172.164 70.3017 171.628 70.3017ZM183.007 77.5857C182.495 77.5857 182.039 77.5017 181.639 77.3337C181.247 77.1657 180.911 76.9097 180.631 76.5657C180.351 76.2217 180.139 75.7977 179.995 75.2937C179.851 74.7817 179.779 74.1897 179.779 73.5177C179.779 72.9177 179.835 72.3937 179.947 71.9457C180.059 71.4897 180.215 71.0977 180.415 70.7697C180.615 70.4417 180.847 70.1657 181.111 69.9417C181.383 69.7097 181.675 69.5257 181.987 69.3897C182.307 69.2457 182.635 69.1377 182.971 69.0657L185.803 68.4057L185.947 69.1977L183.283 69.7977C183.115 69.8377 182.911 69.8937 182.671 69.9657C182.439 70.0377 182.199 70.1457 181.951 70.2897C181.711 70.4337 181.487 70.6337 181.279 70.8897C181.071 71.1457 180.903 71.4777 180.775 71.8857C180.655 72.2857 180.595 72.7857 180.595 73.3857C180.595 73.5137 180.599 73.6177 180.607 73.6977C180.615 73.7697 180.623 73.8497 180.631 73.9377C180.647 74.0177 180.659 74.1377 180.667 74.2977L180.295 73.9857C180.383 73.4977 180.563 73.0737 180.835 72.7137C181.107 72.3457 181.447 72.0617 181.855 71.8617C182.271 71.6537 182.731 71.5497 183.235 71.5497C183.819 71.5497 184.339 71.6777 184.795 71.9337C185.251 72.1817 185.607 72.5297 185.863 72.9777C186.127 73.4257 186.259 73.9457 186.259 74.5377C186.259 75.1217 186.123 75.6457 185.851 76.1097C185.587 76.5737 185.211 76.9377 184.723 77.2017C184.235 77.4577 183.663 77.5857 183.007 77.5857ZM183.103 76.8777C183.551 76.8777 183.947 76.7777 184.291 76.5777C184.635 76.3697 184.903 76.0897 185.095 75.7377C185.295 75.3857 185.395 74.9897 185.395 74.5497C185.395 74.1177 185.295 73.7337 185.095 73.3977C184.903 73.0617 184.635 72.7977 184.291 72.6057C183.947 72.4057 183.547 72.3057 183.091 72.3057C182.643 72.3057 182.247 72.4017 181.903 72.5937C181.559 72.7777 181.287 73.0377 181.087 73.3737C180.895 73.7097 180.799 74.0977 180.799 74.5377C180.799 74.9777 180.895 75.3737 181.087 75.7257C181.287 76.0777 181.559 76.3577 181.903 76.5657C182.255 76.7737 182.655 76.8777 183.103 76.8777ZM188.085 77.5137V71.2137H188.937V73.9257H190.857V74.7057H188.937V77.5137H188.085ZM193.509 77.5737C192.909 77.5737 192.369 77.4377 191.889 77.1657C191.417 76.8857 191.045 76.5057 190.773 76.0257C190.501 75.5377 190.365 74.9817 190.365 74.3577C190.365 73.7257 190.501 73.1697 190.773 72.6897C191.045 72.2097 191.417 71.8337 191.889 71.5617C192.369 71.2897 192.909 71.1537 193.509 71.1537C194.109 71.1537 194.645 71.2897 195.117 71.5617C195.589 71.8337 195.961 72.2097 196.233 72.6897C196.505 73.1697 196.641 73.7257 196.641 74.3577C196.641 74.9817 196.505 75.5377 196.233 76.0257C195.961 76.5057 195.589 76.8857 195.117 77.1657C194.645 77.4377 194.109 77.5737 193.509 77.5737ZM193.509 76.8297C193.949 76.8297 194.341 76.7257 194.685 76.5177C195.029 76.3097 195.301 76.0217 195.501 75.6537C195.701 75.2777 195.801 74.8457 195.801 74.3577C195.801 73.8617 195.701 73.4297 195.501 73.0617C195.301 72.6937 195.029 72.4097 194.685 72.2097C194.341 72.0017 193.949 71.8977 193.509 71.8977C193.077 71.8977 192.685 72.0017 192.333 72.2097C191.989 72.4097 191.717 72.6937 191.517 73.0617C191.317 73.4297 191.217 73.8617 191.217 74.3577C191.217 74.8457 191.317 75.2777 191.517 75.6537C191.717 76.0217 191.989 76.3097 192.333 76.5177C192.685 76.7257 193.077 76.8297 193.509 76.8297ZM202.753 77.1057V71.9577H199.717L199.645 73.3617C199.629 73.7857 199.601 74.2017 199.561 74.6097C199.529 75.0177 199.469 75.3937 199.381 75.7377C199.301 76.0737 199.185 76.3497 199.033 76.5657C198.881 76.7737 198.685 76.8937 198.445 76.9257L197.593 76.7697C197.841 76.7777 198.045 76.6897 198.205 76.5057C198.365 76.3137 198.489 76.0537 198.577 75.7257C198.665 75.3977 198.729 75.0257 198.769 74.6097C198.809 74.1857 198.841 73.7537 198.865 73.3137L198.949 71.2137H203.605V77.1057H202.753ZM197.329 79.0377V76.7697H204.589V79.0377H203.785V77.5137H198.133V79.0377H197.329ZM213.725 77.5137L211.565 74.3937L212.273 73.9737L214.745 77.5137H213.725ZM210.149 74.7057V73.9737H212.141V74.7057H210.149ZM212.357 74.4537L211.541 74.3337L213.641 71.2137H214.565L212.357 74.4537ZM206.261 77.5137H205.241L207.713 73.9737L208.409 74.3937L206.261 77.5137ZM210.413 77.5137H209.561V71.2137H210.413V77.5137ZM209.825 74.7057H207.845V73.9737H209.825V74.7057ZM207.641 74.4537L205.421 71.2137H206.345L208.433 74.3337L207.641 74.4537ZM218.64 77.5737C217.984 77.5737 217.408 77.4377 216.912 77.1657C216.416 76.8857 216.028 76.5057 215.748 76.0257C215.468 75.5377 215.328 74.9817 215.328 74.3577C215.328 73.7337 215.46 73.1817 215.724 72.7017C215.996 72.2217 216.364 71.8457 216.828 71.5737C217.3 71.2937 217.828 71.1537 218.412 71.1537C219.004 71.1537 219.528 71.2897 219.984 71.5617C220.448 71.8257 220.812 72.2017 221.076 72.6897C221.34 73.1697 221.472 73.7257 221.472 74.3577C221.472 74.3977 221.468 74.4417 221.46 74.4897C221.46 74.5297 221.46 74.5737 221.46 74.6217H215.976V73.9857H221.004L220.668 74.2377C220.668 73.7817 220.568 73.3777 220.368 73.0257C220.176 72.6657 219.912 72.3857 219.576 72.1857C219.24 71.9857 218.852 71.8857 218.412 71.8857C217.98 71.8857 217.592 71.9857 217.248 72.1857C216.904 72.3857 216.636 72.6657 216.444 73.0257C216.252 73.3857 216.156 73.7977 216.156 74.2617V74.3937C216.156 74.8737 216.26 75.2977 216.468 75.6657C216.684 76.0257 216.98 76.3097 217.356 76.5177C217.74 76.7177 218.176 76.8177 218.664 76.8177C219.048 76.8177 219.404 76.7497 219.732 76.6137C220.068 76.4777 220.356 76.2697 220.596 75.9897L221.076 76.5417C220.796 76.8777 220.444 77.1337 220.02 77.3097C219.604 77.4857 219.144 77.5737 218.64 77.5737ZM224.277 77.5137V71.7297L224.493 71.9577H221.889V71.2137H227.517V71.9577H224.913L225.129 71.7297V77.5137H224.277ZM98.5771 92.5137V86.2137H99.4291V91.2177L103.641 86.2137H104.397V92.5137H103.545V87.4977L99.3451 92.5137H98.5771ZM109.979 92.5137V86.2137H114.443V86.9577H110.615L110.831 86.7417V92.5137H109.979ZM119.587 92.5137V91.1217L119.551 90.8937V88.5657C119.551 88.0297 119.399 87.6177 119.095 87.3297C118.799 87.0417 118.355 86.8977 117.763 86.8977C117.355 86.8977 116.967 86.9657 116.599 87.1017C116.231 87.2377 115.919 87.4177 115.663 87.6417L115.279 87.0057C115.599 86.7337 115.983 86.5257 116.431 86.3817C116.879 86.2297 117.351 86.1537 117.847 86.1537C118.663 86.1537 119.291 86.3577 119.731 86.7657C120.179 87.1657 120.403 87.7777 120.403 88.6017V92.5137H119.587ZM117.415 92.5737C116.943 92.5737 116.531 92.4977 116.179 92.3457C115.835 92.1857 115.571 91.9697 115.387 91.6977C115.203 91.4177 115.111 91.0977 115.111 90.7377C115.111 90.4097 115.187 90.1137 115.339 89.8497C115.499 89.5777 115.755 89.3617 116.107 89.2017C116.467 89.0337 116.947 88.9497 117.547 88.9497H119.719V89.5857H117.571C116.963 89.5857 116.539 89.6937 116.299 89.9097C116.067 90.1257 115.951 90.3937 115.951 90.7137C115.951 91.0737 116.091 91.3617 116.371 91.5777C116.651 91.7937 117.043 91.9017 117.547 91.9017C118.027 91.9017 118.439 91.7937 118.783 91.5777C119.135 91.3537 119.391 91.0337 119.551 90.6177L119.743 91.2057C119.583 91.6217 119.303 91.9537 118.903 92.2017C118.511 92.4497 118.015 92.5737 117.415 92.5737ZM125.923 92.5737C125.379 92.5737 124.887 92.4497 124.447 92.2017C124.007 91.9457 123.655 91.5817 123.391 91.1097C123.135 90.6297 123.007 90.0457 123.007 89.3577C123.007 88.6697 123.135 88.0897 123.391 87.6177C123.647 87.1377 123.995 86.7737 124.435 86.5257C124.875 86.2777 125.371 86.1537 125.923 86.1537C126.523 86.1537 127.059 86.2897 127.531 86.5617C128.011 86.8257 128.387 87.2017 128.659 87.6897C128.931 88.1697 129.067 88.7257 129.067 89.3577C129.067 89.9977 128.931 90.5577 128.659 91.0377C128.387 91.5177 128.011 91.8937 127.531 92.1657C127.059 92.4377 126.523 92.5737 125.923 92.5737ZM122.671 94.8417V86.2137H123.487V88.1097L123.403 89.3697L123.523 90.6417V94.8417H122.671ZM125.863 91.8177C126.311 91.8177 126.711 91.7177 127.063 91.5177C127.415 91.3097 127.695 91.0217 127.903 90.6537C128.111 90.2777 128.215 89.8457 128.215 89.3577C128.215 88.8697 128.111 88.4417 127.903 88.0737C127.695 87.7057 127.415 87.4177 127.063 87.2097C126.711 87.0017 126.311 86.8977 125.863 86.8977C125.415 86.8977 125.011 87.0017 124.651 87.2097C124.299 87.4177 124.019 87.7057 123.811 88.0737C123.611 88.4417 123.511 88.8697 123.511 89.3577C123.511 89.8457 123.611 90.2777 123.811 90.6537C124.019 91.0217 124.299 91.3097 124.651 91.5177C125.011 91.7177 125.415 91.8177 125.863 91.8177ZM134.774 92.5137V91.1217L134.738 90.8937V88.5657C134.738 88.0297 134.586 87.6177 134.282 87.3297C133.986 87.0417 133.542 86.8977 132.95 86.8977C132.542 86.8977 132.154 86.9657 131.786 87.1017C131.418 87.2377 131.106 87.4177 130.85 87.6417L130.466 87.0057C130.786 86.7337 131.17 86.5257 131.618 86.3817C132.066 86.2297 132.538 86.1537 133.034 86.1537C133.85 86.1537 134.478 86.3577 134.918 86.7657C135.366 87.1657 135.59 87.7777 135.59 88.6017V92.5137H134.774ZM132.602 92.5737C132.13 92.5737 131.718 92.4977 131.366 92.3457C131.022 92.1857 130.758 91.9697 130.574 91.6977C130.39 91.4177 130.298 91.0977 130.298 90.7377C130.298 90.4097 130.374 90.1137 130.526 89.8497C130.686 89.5777 130.942 89.3617 131.294 89.2017C131.654 89.0337 132.134 88.9497 132.734 88.9497H134.906V89.5857H132.758C132.15 89.5857 131.726 89.6937 131.486 89.9097C131.254 90.1257 131.138 90.3937 131.138 90.7137C131.138 91.0737 131.278 91.3617 131.558 91.5777C131.838 91.7937 132.23 91.9017 132.734 91.9017C133.214 91.9017 133.626 91.7937 133.97 91.5777C134.322 91.3537 134.578 91.0337 134.738 90.6177L134.93 91.2057C134.77 91.6217 134.49 91.9537 134.09 92.2017C133.698 92.4497 133.202 92.5737 132.602 92.5737ZM137.858 92.5137V86.2137H138.71V88.9977H142.682V86.2137H143.534V92.5137H142.682V89.7297H138.71V92.5137H137.858ZM147.156 92.5137V86.7297L147.372 86.9577H144.768V86.2137H150.396V86.9577H147.792L148.008 86.7297V92.5137H147.156ZM151.628 92.5137V86.2137H152.48V91.2177L156.692 86.2137H157.448V92.5137H156.596V87.4977L152.396 92.5137H151.628ZM163.142 92.5737C162.598 92.5737 162.106 92.4497 161.666 92.2017C161.226 91.9457 160.874 91.5817 160.61 91.1097C160.354 90.6297 160.226 90.0457 160.226 89.3577C160.226 88.6697 160.354 88.0897 160.61 87.6177C160.866 87.1377 161.214 86.7737 161.654 86.5257C162.094 86.2777 162.59 86.1537 163.142 86.1537C163.742 86.1537 164.278 86.2897 164.75 86.5617C165.23 86.8257 165.606 87.2017 165.878 87.6897C166.15 88.1697 166.286 88.7257 166.286 89.3577C166.286 89.9977 166.15 90.5577 165.878 91.0377C165.606 91.5177 165.23 91.8937 164.75 92.1657C164.278 92.4377 163.742 92.5737 163.142 92.5737ZM159.89 94.8417V86.2137H160.706V88.1097L160.622 89.3697L160.742 90.6417V94.8417H159.89ZM163.082 91.8177C163.53 91.8177 163.93 91.7177 164.282 91.5177C164.634 91.3097 164.914 91.0217 165.122 90.6537C165.33 90.2777 165.434 89.8457 165.434 89.3577C165.434 88.8697 165.33 88.4417 165.122 88.0737C164.914 87.7057 164.634 87.4177 164.282 87.2097C163.93 87.0017 163.53 86.8977 163.082 86.8977C162.634 86.8977 162.23 87.0017 161.87 87.2097C161.518 87.4177 161.238 87.7057 161.03 88.0737C160.83 88.4417 160.73 88.8697 160.73 89.3577C160.73 89.8457 160.83 90.2777 161.03 90.6537C161.238 91.0217 161.518 91.3097 161.87 91.5177C162.23 91.7177 162.634 91.8177 163.082 91.8177ZM170.708 92.5737C170.1 92.5737 169.552 92.4377 169.064 92.1657C168.584 91.8857 168.204 91.5057 167.924 91.0257C167.644 90.5377 167.504 89.9817 167.504 89.3577C167.504 88.7257 167.644 88.1697 167.924 87.6897C168.204 87.2097 168.584 86.8337 169.064 86.5617C169.544 86.2897 170.092 86.1537 170.708 86.1537C171.332 86.1537 171.884 86.2897 172.364 86.5617C172.852 86.8337 173.232 87.2097 173.504 87.6897C173.784 88.1697 173.924 88.7257 173.924 89.3577C173.924 89.9817 173.784 90.5377 173.504 91.0257C173.232 91.5057 172.852 91.8857 172.364 92.1657C171.876 92.4377 171.324 92.5737 170.708 92.5737ZM170.708 91.8177C171.164 91.8177 171.568 91.7177 171.92 91.5177C172.272 91.3097 172.548 91.0217 172.748 90.6537C172.956 90.2777 173.06 89.8457 173.06 89.3577C173.06 88.8617 172.956 88.4297 172.748 88.0617C172.548 87.6937 172.272 87.4097 171.92 87.2097C171.568 87.0017 171.168 86.8977 170.72 86.8977C170.272 86.8977 169.872 87.0017 169.52 87.2097C169.168 87.4097 168.888 87.6937 168.68 88.0617C168.472 88.4297 168.368 88.8617 168.368 89.3577C168.368 89.8457 168.472 90.2777 168.68 90.6537C168.888 91.0217 169.168 91.3097 169.52 91.5177C169.872 91.7177 170.268 91.8177 170.708 91.8177ZM175.745 92.5137V86.2137H178.529C179.241 86.2137 179.801 86.3497 180.209 86.6217C180.625 86.8937 180.833 87.2937 180.833 87.8217C180.833 88.3337 180.637 88.7297 180.245 89.0097C179.853 89.2817 179.337 89.4177 178.697 89.4177L178.865 89.1657C179.617 89.1657 180.169 89.3057 180.521 89.5857C180.873 89.8657 181.049 90.2697 181.049 90.7977C181.049 91.3417 180.849 91.7657 180.449 92.0697C180.057 92.3657 179.445 92.5137 178.613 92.5137H175.745ZM176.573 91.8417H178.577C179.113 91.8417 179.517 91.7577 179.789 91.5897C180.069 91.4137 180.209 91.1337 180.209 90.7497C180.209 90.3657 180.085 90.0857 179.837 89.9097C179.589 89.7337 179.197 89.6457 178.661 89.6457H176.573V91.8417ZM176.573 89.0097H178.469C178.957 89.0097 179.329 88.9177 179.585 88.7337C179.849 88.5497 179.981 88.2817 179.981 87.9297C179.981 87.5777 179.849 87.3137 179.585 87.1377C179.329 86.9617 178.957 86.8737 178.469 86.8737H176.573V89.0097ZM186.958 92.5137V91.1217L186.922 90.8937V88.5657C186.922 88.0297 186.77 87.6177 186.466 87.3297C186.17 87.0417 185.726 86.8977 185.134 86.8977C184.726 86.8977 184.338 86.9657 183.97 87.1017C183.602 87.2377 183.29 87.4177 183.034 87.6417L182.65 87.0057C182.97 86.7337 183.354 86.5257 183.802 86.3817C184.25 86.2297 184.722 86.1537 185.218 86.1537C186.034 86.1537 186.662 86.3577 187.102 86.7657C187.55 87.1657 187.774 87.7777 187.774 88.6017V92.5137H186.958ZM184.786 92.5737C184.314 92.5737 183.902 92.4977 183.55 92.3457C183.206 92.1857 182.942 91.9697 182.758 91.6977C182.574 91.4177 182.482 91.0977 182.482 90.7377C182.482 90.4097 182.558 90.1137 182.71 89.8497C182.87 89.5777 183.126 89.3617 183.478 89.2017C183.838 89.0337 184.318 88.9497 184.918 88.9497H187.09V89.5857H184.942C184.334 89.5857 183.91 89.6937 183.67 89.9097C183.438 90.1257 183.322 90.3937 183.322 90.7137C183.322 91.0737 183.462 91.3617 183.742 91.5777C184.022 91.7937 184.414 91.9017 184.918 91.9017C185.398 91.9017 185.81 91.7937 186.154 91.5777C186.506 91.3537 186.762 91.0337 186.922 90.6177L187.114 91.2057C186.954 91.6217 186.674 91.9537 186.274 92.2017C185.882 92.4497 185.386 92.5737 184.786 92.5737ZM190.042 92.5137V86.2137H190.894V88.9977H194.866V86.2137H195.718V92.5137H194.866V89.7297H190.894V92.5137H190.042ZM198.14 92.5137V86.2137H198.992V88.9977H202.964V86.2137H203.816V92.5137H202.964V89.7297H198.992V92.5137H198.14ZM212.381 92.5137V86.2137H213.233V92.5137H212.381ZM208.889 88.4337C209.681 88.4417 210.285 88.6177 210.701 88.9617C211.117 89.3057 211.325 89.8017 211.325 90.4497C211.325 91.1217 211.101 91.6377 210.653 91.9977C210.205 92.3577 209.565 92.5337 208.733 92.5257L206.237 92.5137V86.2137H207.089V88.4097L208.889 88.4337ZM208.673 91.8777C209.265 91.8857 209.709 91.7697 210.005 91.5297C210.309 91.2817 210.461 90.9217 210.461 90.4497C210.461 89.9777 210.313 89.6337 210.017 89.4177C209.721 89.1937 209.273 89.0777 208.673 89.0697L207.089 89.0457V91.8537L208.673 91.8777ZM215.659 92.5137V86.2137H216.511V91.2177L220.723 86.2137H221.479V92.5137H220.627V87.4977L216.427 92.5137H215.659ZM218.515 85.3017C217.987 85.3017 217.559 85.1697 217.231 84.9057C216.911 84.6337 216.743 84.2457 216.727 83.7417H217.339C217.347 84.0617 217.459 84.3137 217.675 84.4977C217.891 84.6817 218.171 84.7737 218.515 84.7737C218.859 84.7737 219.139 84.6817 219.355 84.4977C219.579 84.3137 219.695 84.0617 219.703 83.7417H220.315C220.307 84.2457 220.139 84.6337 219.811 84.9057C219.483 85.1697 219.051 85.3017 218.515 85.3017ZM230.313 92.5737C229.769 92.5737 229.277 92.4497 228.837 92.2017C228.397 91.9457 228.045 91.5817 227.781 91.1097C227.525 90.6297 227.397 90.0457 227.397 89.3577C227.397 88.6697 227.525 88.0897 227.781 87.6177C228.037 87.1377 228.385 86.7737 228.825 86.5257C229.265 86.2777 229.761 86.1537 230.313 86.1537C230.913 86.1537 231.449 86.2897 231.921 86.5617C232.401 86.8257 232.777 87.2017 233.049 87.6897C233.321 88.1697 233.457 88.7257 233.457 89.3577C233.457 89.9977 233.321 90.5577 233.049 91.0377C232.777 91.5177 232.401 91.8937 231.921 92.1657C231.449 92.4377 230.913 92.5737 230.313 92.5737ZM227.061 94.8417V86.2137H227.877V88.1097L227.793 89.3697L227.913 90.6417V94.8417H227.061ZM230.253 91.8177C230.701 91.8177 231.101 91.7177 231.453 91.5177C231.805 91.3097 232.085 91.0217 232.293 90.6537C232.501 90.2777 232.605 89.8457 232.605 89.3577C232.605 88.8697 232.501 88.4417 232.293 88.0737C232.085 87.7057 231.805 87.4177 231.453 87.2097C231.101 87.0017 230.701 86.8977 230.253 86.8977C229.805 86.8977 229.401 87.0017 229.041 87.2097C228.689 87.4177 228.409 87.7057 228.201 88.0737C228.001 88.4417 227.901 88.8697 227.901 89.3577C227.901 89.8457 228.001 90.2777 228.201 90.6537C228.409 91.0217 228.689 91.3097 229.041 91.5177C229.401 91.7177 229.805 91.8177 230.253 91.8177ZM237.988 92.5737C237.332 92.5737 236.756 92.4377 236.26 92.1657C235.764 91.8857 235.376 91.5057 235.096 91.0257C234.816 90.5377 234.676 89.9817 234.676 89.3577C234.676 88.7337 234.808 88.1817 235.072 87.7017C235.344 87.2217 235.712 86.8457 236.176 86.5737C236.648 86.2937 237.176 86.1537 237.76 86.1537C238.352 86.1537 238.876 86.2897 239.332 86.5617C239.796 86.8257 240.16 87.2017 240.424 87.6897C240.688 88.1697 240.82 88.7257 240.82 89.3577C240.82 89.3977 240.816 89.4417 240.808 89.4897C240.808 89.5297 240.808 89.5737 240.808 89.6217H235.324V88.9857H240.352L240.016 89.2377C240.016 88.7817 239.916 88.3777 239.716 88.0257C239.524 87.6657 239.26 87.3857 238.924 87.1857C238.588 86.9857 238.2 86.8857 237.76 86.8857C237.328 86.8857 236.94 86.9857 236.596 87.1857C236.252 87.3857 235.984 87.6657 235.792 88.0257C235.6 88.3857 235.504 88.7977 235.504 89.2617V89.3937C235.504 89.8737 235.608 90.2977 235.816 90.6657C236.032 91.0257 236.328 91.3097 236.704 91.5177C237.088 91.7177 237.524 91.8177 238.012 91.8177C238.396 91.8177 238.752 91.7497 239.08 91.6137C239.416 91.4777 239.704 91.2697 239.944 90.9897L240.424 91.5417C240.144 91.8777 239.792 92.1337 239.368 92.3097C238.952 92.4857 238.492 92.5737 237.988 92.5737ZM244.222 92.5857C243.766 92.5857 243.314 92.5217 242.866 92.3937C242.418 92.2657 242.022 92.0697 241.678 91.8057L241.954 91.1697C242.258 91.3937 242.61 91.5657 243.01 91.6857C243.41 91.7977 243.806 91.8537 244.198 91.8537C244.59 91.8457 244.93 91.7897 245.218 91.6857C245.506 91.5817 245.73 91.4377 245.89 91.2537C246.05 91.0697 246.13 90.8617 246.13 90.6297C246.13 90.2937 245.978 90.0337 245.674 89.8497C245.37 89.6577 244.954 89.5617 244.426 89.5617H243.346V88.9377H244.366C244.678 88.9377 244.954 88.8977 245.194 88.8177C245.434 88.7377 245.618 88.6217 245.746 88.4697C245.882 88.3177 245.95 88.1377 245.95 87.9297C245.95 87.7057 245.87 87.5137 245.71 87.3537C245.558 87.1937 245.346 87.0737 245.074 86.9937C244.802 86.9137 244.494 86.8737 244.15 86.8737C243.838 86.8817 243.514 86.9297 243.178 87.0177C242.842 87.0977 242.51 87.2217 242.182 87.3897L241.942 86.7297C242.31 86.5377 242.674 86.3937 243.034 86.2977C243.402 86.1937 243.77 86.1417 244.138 86.1417C244.642 86.1257 245.094 86.1857 245.494 86.3217C245.902 86.4577 246.226 86.6537 246.466 86.9097C246.706 87.1577 246.826 87.4577 246.826 87.8097C246.826 88.1217 246.73 88.3937 246.538 88.6257C246.346 88.8577 246.09 89.0377 245.77 89.1657C245.45 89.2937 245.086 89.3577 244.678 89.3577L244.714 89.1297C245.434 89.1297 245.994 89.2697 246.394 89.5497C246.802 89.8297 247.006 90.2097 247.006 90.6897C247.006 91.0657 246.882 91.3977 246.634 91.6857C246.386 91.9657 246.05 92.1857 245.626 92.3457C245.21 92.5057 244.742 92.5857 244.222 92.5857ZM249.048 94.9017C248.752 94.9017 248.468 94.8537 248.196 94.7577C247.932 94.6617 247.704 94.5177 247.512 94.3257L247.908 93.6897C248.068 93.8417 248.24 93.9577 248.424 94.0377C248.616 94.1257 248.828 94.1697 249.06 94.1697C249.34 94.1697 249.58 94.0897 249.78 93.9297C249.988 93.7777 250.184 93.5057 250.368 93.1137L250.776 92.1897L250.872 92.0577L253.464 86.2137H254.304L251.148 93.2697C250.972 93.6777 250.776 94.0017 250.56 94.2417C250.352 94.4817 250.124 94.6497 249.876 94.7457C249.628 94.8497 249.352 94.9017 249.048 94.9017ZM250.728 92.6937L247.824 86.2137H248.712L251.28 91.9977L250.728 92.6937ZM254.199 92.5017L254.259 91.7697C254.315 91.7777 254.367 91.7897 254.415 91.8057C254.471 91.8137 254.519 91.8177 254.559 91.8177C254.815 91.8177 255.019 91.7217 255.171 91.5297C255.331 91.3377 255.451 91.0817 255.531 90.7617C255.611 90.4417 255.667 90.0817 255.699 89.6817C255.731 89.2737 255.759 88.8657 255.783 88.4577L255.891 86.2137H260.511V92.5137H259.659V86.7057L259.875 86.9577H256.443L256.647 86.6937L256.551 88.5177C256.527 89.0617 256.483 89.5817 256.419 90.0777C256.363 90.5737 256.271 91.0097 256.143 91.3857C256.023 91.7617 255.855 92.0577 255.639 92.2737C255.423 92.4817 255.147 92.5857 254.811 92.5857C254.715 92.5857 254.615 92.5777 254.511 92.5617C254.415 92.5457 254.311 92.5257 254.199 92.5017ZM265.645 88.4337C266.437 88.4417 267.037 88.6177 267.445 88.9617C267.861 89.3057 268.069 89.8017 268.069 90.4497C268.069 91.1217 267.845 91.6377 267.397 91.9977C266.957 92.3577 266.317 92.5337 265.477 92.5257L262.933 92.5137V86.2137H263.785V88.4097L265.645 88.4337ZM265.429 91.8777C266.013 91.8857 266.453 91.7697 266.749 91.5297C267.053 91.2817 267.205 90.9217 267.205 90.4497C267.205 89.9777 267.057 89.6337 266.761 89.4177C266.465 89.1937 266.021 89.0777 265.429 89.0697L263.785 89.0457V91.8537L265.429 91.8777ZM270.261 92.5137V86.7297L270.477 86.9577H267.873V86.2137H273.501V86.9577H270.897L271.113 86.7297V92.5137H270.261ZM278.645 92.5137V91.1217L278.609 90.8937V88.5657C278.609 88.0297 278.457 87.6177 278.153 87.3297C277.857 87.0417 277.413 86.8977 276.821 86.8977C276.413 86.8977 276.025 86.9657 275.657 87.1017C275.289 87.2377 274.977 87.4177 274.721 87.6417L274.337 87.0057C274.657 86.7337 275.041 86.5257 275.489 86.3817C275.937 86.2297 276.409 86.1537 276.905 86.1537C277.721 86.1537 278.349 86.3577 278.789 86.7657C279.237 87.1657 279.461 87.7777 279.461 88.6017V92.5137H278.645ZM276.473 92.5737C276.001 92.5737 275.589 92.4977 275.237 92.3457C274.893 92.1857 274.629 91.9697 274.445 91.6977C274.261 91.4177 274.169 91.0977 274.169 90.7377C274.169 90.4097 274.245 90.1137 274.397 89.8497C274.557 89.5777 274.813 89.3617 275.165 89.2017C275.525 89.0337 276.005 88.9497 276.605 88.9497H278.777V89.5857H276.629C276.021 89.5857 275.597 89.6937 275.357 89.9097C275.125 90.1257 275.009 90.3937 275.009 90.7137C275.009 91.0737 275.149 91.3617 275.429 91.5777C275.709 91.7937 276.101 91.9017 276.605 91.9017C277.085 91.9017 277.497 91.7937 277.841 91.5777C278.193 91.3537 278.449 91.0337 278.609 90.6177L278.801 91.2057C278.641 91.6217 278.361 91.9537 277.961 92.2017C277.569 92.4497 277.073 92.5737 276.473 92.5737ZM282.929 92.5137V86.7297L283.145 86.9577H280.541V86.2137H286.169V86.9577H283.565L283.781 86.7297V92.5137H282.929Z" fill="#666666"/>
<path d="M45.6501 27.8452H40.2898C39.8837 27.8452 39.4941 28.0066 39.2069 28.2938C38.9197 28.581 38.7583 28.9705 38.7583 29.3767V38.5657H37.2268C36.8207 38.5657 36.4311 38.7271 36.1439 39.0143C35.8567 39.3015 35.6953 39.691 35.6953 40.0972C35.6953 40.5034 35.8567 40.8929 36.1439 41.1801C36.4311 41.4673 36.8207 41.6287 37.2268 41.6287H38.7583V44.6917H37.2268C36.8207 44.6917 36.4311 44.853 36.1439 45.1403C35.8567 45.4275 35.6953 45.817 35.6953 46.2232C35.6953 46.6294 35.8567 47.0189 36.1439 47.3061C36.4311 47.5933 36.8207 47.7547 37.2268 47.7547H38.7583V52.3492C38.7583 52.7554 38.9197 53.1449 39.2069 53.4321C39.4941 53.7193 39.8837 53.8807 40.2898 53.8807C40.696 53.8807 41.0856 53.7193 41.3728 53.4321C41.66 53.1449 41.8213 52.7554 41.8213 52.3492V47.7547H46.4158C46.822 47.7547 47.2116 47.5933 47.4988 47.3061C47.786 47.0189 47.9473 46.6294 47.9473 46.2232C47.9473 45.817 47.786 45.4275 47.4988 45.1403C47.2116 44.853 46.822 44.6917 46.4158 44.6917H41.8213V41.6287H45.6501C47.4779 41.6287 49.2308 40.9026 50.5233 39.6102C51.8157 38.3177 52.5418 36.5648 52.5418 34.737C52.5418 32.9092 51.8157 31.1562 50.5233 29.8638C49.2308 28.5713 47.4779 27.8452 45.6501 27.8452ZM45.6501 38.5657H41.8213V30.9082H45.6501C46.6655 30.9082 47.6394 31.3116 48.3574 32.0296C49.0754 32.7477 49.4788 33.7215 49.4788 34.737C49.4788 35.7524 49.0754 36.7263 48.3574 37.4443C47.6394 38.1623 46.6655 38.5657 45.6501 38.5657Z" fill="white"/>
<circle cx="43.3534" cy="40.0975" r="23.6442" stroke="white" stroke-width="1.71958"/>
</svg>
