<svg width="380" height="115" viewBox="0 0 380 115" fill="none" xmlns="http://www.w3.org/2000/svg">
<rect y="0.513672" width="380" height="114" rx="20" fill="#232A11"/>
<rect y="0.513672" width="380" height="114" rx="20" fill="black" fill-opacity="0.2"/>
<path d="M99.0651 39.5137V25.4137H107.985V26.9937H100.925V39.5137H99.0651ZM110.287 39.6937C109.62 39.6937 109.013 39.5603 108.467 39.2937C107.933 39.027 107.513 38.667 107.207 38.2137C106.913 37.7603 106.767 37.2537 106.767 36.6937C106.767 35.9737 106.947 35.407 107.307 34.9937C107.667 34.5803 108.273 34.287 109.127 34.1137C109.98 33.927 111.127 33.8337 112.567 33.8337H113.507V34.9937H112.607C111.833 34.9937 111.187 35.0203 110.667 35.0737C110.147 35.127 109.733 35.2137 109.427 35.3337C109.12 35.4537 108.9 35.6203 108.767 35.8337C108.633 36.0337 108.567 36.287 108.567 36.5937C108.567 37.1137 108.747 37.5403 109.107 37.8737C109.48 38.207 109.987 38.3737 110.627 38.3737C111.133 38.3737 111.58 38.2537 111.967 38.0137C112.353 37.7603 112.66 37.427 112.887 37.0137C113.113 36.587 113.227 36.1003 113.227 35.5537V33.2537C113.227 32.467 113.067 31.9003 112.747 31.5537C112.427 31.1937 111.887 31.0137 111.127 31.0137C110.567 31.0137 110.007 31.1003 109.447 31.2737C108.9 31.447 108.333 31.7137 107.747 32.0737L107.167 30.7737C107.513 30.5337 107.907 30.327 108.347 30.1537C108.8 29.967 109.267 29.827 109.747 29.7337C110.24 29.6403 110.713 29.5937 111.167 29.5937C112.033 29.5937 112.747 29.7337 113.307 30.0137C113.867 30.2803 114.287 30.7003 114.567 31.2737C114.847 31.8337 114.987 32.5537 114.987 33.4337V39.5137H113.267V37.2937H113.447C113.34 37.787 113.14 38.2137 112.847 38.5737C112.553 38.9337 112.187 39.2137 111.747 39.4137C111.32 39.6003 110.833 39.6937 110.287 39.6937ZM118.066 43.1137V29.7737H119.846V32.0137H119.646C119.859 31.2803 120.279 30.6937 120.906 30.2537C121.532 29.8137 122.286 29.5937 123.166 29.5937C124.032 29.5937 124.786 29.8003 125.426 30.2137C126.066 30.6137 126.566 31.1937 126.926 31.9537C127.286 32.7003 127.466 33.5937 127.466 34.6337C127.466 35.6603 127.286 36.5603 126.926 37.3337C126.579 38.0937 126.079 38.6803 125.426 39.0937C124.786 39.4937 124.032 39.6937 123.166 39.6937C122.299 39.6937 121.552 39.4737 120.926 39.0337C120.299 38.5937 119.879 38.0137 119.666 37.2937H119.886V43.1137H118.066ZM122.746 38.2537C123.626 38.2537 124.326 37.947 124.846 37.3337C125.366 36.707 125.626 35.807 125.626 34.6337C125.626 33.4603 125.366 32.567 124.846 31.9537C124.326 31.3403 123.626 31.0337 122.746 31.0337C121.866 31.0337 121.166 31.3403 120.646 31.9537C120.126 32.567 119.866 33.4603 119.866 34.6337C119.866 35.807 120.126 36.707 120.646 37.3337C121.166 37.947 121.866 38.2537 122.746 38.2537ZM133.119 39.6937C132.452 39.6937 131.845 39.5603 131.299 39.2937C130.765 39.027 130.345 38.667 130.039 38.2137C129.745 37.7603 129.599 37.2537 129.599 36.6937C129.599 35.9737 129.779 35.407 130.139 34.9937C130.499 34.5803 131.105 34.287 131.959 34.1137C132.812 33.927 133.959 33.8337 135.399 33.8337H136.339V34.9937H135.439C134.665 34.9937 134.019 35.0203 133.499 35.0737C132.979 35.127 132.565 35.2137 132.259 35.3337C131.952 35.4537 131.732 35.6203 131.599 35.8337C131.465 36.0337 131.399 36.287 131.399 36.5937C131.399 37.1137 131.579 37.5403 131.939 37.8737C132.312 38.207 132.819 38.3737 133.459 38.3737C133.965 38.3737 134.412 38.2537 134.799 38.0137C135.185 37.7603 135.492 37.427 135.719 37.0137C135.945 36.587 136.059 36.1003 136.059 35.5537V33.2537C136.059 32.467 135.899 31.9003 135.579 31.5537C135.259 31.1937 134.719 31.0137 133.959 31.0137C133.399 31.0137 132.839 31.1003 132.279 31.2737C131.732 31.447 131.165 31.7137 130.579 32.0737L129.999 30.7737C130.345 30.5337 130.739 30.327 131.179 30.1537C131.632 29.967 132.099 29.827 132.579 29.7337C133.072 29.6403 133.545 29.5937 133.999 29.5937C134.865 29.5937 135.579 29.7337 136.139 30.0137C136.699 30.2803 137.119 30.7003 137.399 31.2737C137.679 31.8337 137.819 32.5537 137.819 33.4337V39.5137H136.099V37.2937H136.279C136.172 37.787 135.972 38.2137 135.679 38.5737C135.385 38.9337 135.019 39.2137 134.579 39.4137C134.152 39.6003 133.665 39.6937 133.119 39.6937ZM140.898 39.5137V29.7737H142.718V33.7737H147.798V29.7737H149.618V39.5137H147.798V35.2337H142.718V39.5137H140.898ZM154.774 39.5137V31.2337H151.274V29.7737H160.094V31.2337H156.594V39.5137H154.774ZM161.738 39.5137V29.7737H163.398V37.7337H162.878L168.858 29.7737H170.378V39.5137H168.738V31.5337H169.258L163.278 39.5137H161.738ZM172.695 39.5137L174.175 36.9337C174.429 36.4937 174.749 36.1337 175.135 35.8537C175.522 35.5737 175.915 35.4337 176.315 35.4337H176.595V35.6137C175.862 35.6137 175.235 35.5003 174.715 35.2737C174.195 35.047 173.795 34.7203 173.515 34.2937C173.249 33.8537 173.115 33.3337 173.115 32.7337C173.115 31.827 173.415 31.107 174.015 30.5737C174.629 30.0403 175.535 29.7737 176.735 29.7737H181.255V39.5137H179.555V35.8737H178.215C177.709 35.8737 177.275 36.0003 176.915 36.2537C176.569 36.507 176.289 36.827 176.075 37.2137L174.755 39.5137H172.695ZM177.095 34.6137H179.555V31.0337H177.095C176.335 31.0337 175.775 31.1937 175.415 31.5137C175.055 31.8203 174.875 32.2537 174.875 32.8137C174.875 33.3737 175.055 33.8137 175.415 34.1337C175.775 34.4537 176.335 34.6137 177.095 34.6137Z" fill="white"/>
<path d="M104.925 54.1137H105.801V62.5137H104.925V54.1137ZM99.6691 62.5137H98.7811V54.1137H99.6691V62.5137ZM105.009 58.6377H99.5731V57.8577H105.009V58.6377ZM112.345 62.5137V61.1217L112.309 60.8937V58.5657C112.309 58.0297 112.157 57.6177 111.853 57.3297C111.557 57.0417 111.113 56.8977 110.521 56.8977C110.113 56.8977 109.725 56.9657 109.357 57.1017C108.989 57.2377 108.677 57.4177 108.421 57.6417L108.037 57.0057C108.357 56.7337 108.741 56.5257 109.189 56.3817C109.637 56.2297 110.109 56.1537 110.605 56.1537C111.421 56.1537 112.049 56.3577 112.489 56.7657C112.937 57.1657 113.161 57.7777 113.161 58.6017V62.5137H112.345ZM110.173 62.5737C109.701 62.5737 109.289 62.4977 108.937 62.3457C108.593 62.1857 108.329 61.9697 108.145 61.6977C107.961 61.4177 107.869 61.0977 107.869 60.7377C107.869 60.4097 107.945 60.1137 108.097 59.8497C108.257 59.5777 108.513 59.3617 108.865 59.2017C109.225 59.0337 109.705 58.9497 110.305 58.9497H112.477V59.5857H110.329C109.721 59.5857 109.297 59.6937 109.057 59.9097C108.825 60.1257 108.709 60.3937 108.709 60.7137C108.709 61.0737 108.849 61.3617 109.129 61.5777C109.409 61.7937 109.801 61.9017 110.305 61.9017C110.785 61.9017 111.197 61.7937 111.541 61.5777C111.893 61.3537 112.149 61.0337 112.309 60.6177L112.501 61.2057C112.341 61.6217 112.061 61.9537 111.661 62.2017C111.269 62.4497 110.773 62.5737 110.173 62.5737ZM119.749 62.1057V56.9577H116.713L116.641 58.3617C116.625 58.7857 116.597 59.2017 116.557 59.6097C116.525 60.0177 116.465 60.3937 116.377 60.7377C116.297 61.0737 116.181 61.3497 116.029 61.5657C115.877 61.7737 115.681 61.8937 115.441 61.9257L114.589 61.7697C114.837 61.7777 115.041 61.6897 115.201 61.5057C115.361 61.3137 115.485 61.0537 115.573 60.7257C115.661 60.3977 115.725 60.0257 115.765 59.6097C115.805 59.1857 115.837 58.7537 115.861 58.3137L115.945 56.2137H120.601V62.1057H119.749ZM114.325 64.0377V61.7697H121.585V64.0377H120.781V62.5137H115.129V64.0377H114.325ZM125.945 62.5737C125.289 62.5737 124.713 62.4377 124.217 62.1657C123.721 61.8857 123.333 61.5057 123.053 61.0257C122.773 60.5377 122.633 59.9817 122.633 59.3577C122.633 58.7337 122.765 58.1817 123.029 57.7017C123.301 57.2217 123.669 56.8457 124.133 56.5737C124.605 56.2937 125.133 56.1537 125.717 56.1537C126.309 56.1537 126.833 56.2897 127.289 56.5617C127.753 56.8257 128.117 57.2017 128.381 57.6897C128.645 58.1697 128.777 58.7257 128.777 59.3577C128.777 59.3977 128.773 59.4417 128.765 59.4897C128.765 59.5297 128.765 59.5737 128.765 59.6217H123.281V58.9857H128.309L127.973 59.2377C127.973 58.7817 127.873 58.3777 127.673 58.0257C127.481 57.6657 127.217 57.3857 126.881 57.1857C126.545 56.9857 126.157 56.8857 125.717 56.8857C125.285 56.8857 124.897 56.9857 124.553 57.1857C124.209 57.3857 123.941 57.6657 123.749 58.0257C123.557 58.3857 123.461 58.7977 123.461 59.2617V59.3937C123.461 59.8737 123.565 60.2977 123.773 60.6657C123.989 61.0257 124.285 61.3097 124.661 61.5177C125.045 61.7177 125.481 61.8177 125.969 61.8177C126.353 61.8177 126.709 61.7497 127.037 61.6137C127.373 61.4777 127.661 61.2697 127.901 60.9897L128.381 61.5417C128.101 61.8777 127.749 62.1337 127.325 62.3097C126.909 62.4857 126.449 62.5737 125.945 62.5737ZM137.963 62.5137L135.803 59.3937L136.511 58.9737L138.983 62.5137H137.963ZM134.387 59.7057V58.9737H136.379V59.7057H134.387ZM136.595 59.4537L135.779 59.3337L137.879 56.2137H138.803L136.595 59.4537ZM130.499 62.5137H129.479L131.951 58.9737L132.647 59.3937L130.499 62.5137ZM134.651 62.5137H133.799V56.2137H134.651V62.5137ZM134.063 59.7057H132.083V58.9737H134.063V59.7057ZM131.879 59.4537L129.659 56.2137H130.583L132.671 59.3337L131.879 59.4537ZM140.401 62.5137V56.2137H141.253V58.9977H145.225V56.2137H146.077V62.5137H145.225V59.7297H141.253V62.5137H140.401ZM151.091 62.5737C150.483 62.5737 149.935 62.4377 149.447 62.1657C148.967 61.8857 148.587 61.5057 148.307 61.0257C148.027 60.5377 147.887 59.9817 147.887 59.3577C147.887 58.7257 148.027 58.1697 148.307 57.6897C148.587 57.2097 148.967 56.8337 149.447 56.5617C149.927 56.2897 150.475 56.1537 151.091 56.1537C151.715 56.1537 152.267 56.2897 152.747 56.5617C153.235 56.8337 153.615 57.2097 153.887 57.6897C154.167 58.1697 154.307 58.7257 154.307 59.3577C154.307 59.9817 154.167 60.5377 153.887 61.0257C153.615 61.5057 153.235 61.8857 152.747 62.1657C152.259 62.4377 151.707 62.5737 151.091 62.5737ZM151.091 61.8177C151.547 61.8177 151.951 61.7177 152.303 61.5177C152.655 61.3097 152.931 61.0217 153.131 60.6537C153.339 60.2777 153.443 59.8457 153.443 59.3577C153.443 58.8617 153.339 58.4297 153.131 58.0617C152.931 57.6937 152.655 57.4097 152.303 57.2097C151.951 57.0017 151.551 56.8977 151.103 56.8977C150.655 56.8977 150.255 57.0017 149.903 57.2097C149.551 57.4097 149.271 57.6937 149.063 58.0617C148.855 58.4297 148.751 58.8617 148.751 59.3577C148.751 59.8457 148.855 60.2777 149.063 60.6537C149.271 61.0217 149.551 61.3097 149.903 61.5177C150.255 61.7177 150.651 61.8177 151.091 61.8177ZM158.828 62.5737C158.172 62.5737 157.596 62.4377 157.1 62.1657C156.604 61.8857 156.216 61.5057 155.936 61.0257C155.656 60.5377 155.516 59.9817 155.516 59.3577C155.516 58.7337 155.648 58.1817 155.912 57.7017C156.184 57.2217 156.552 56.8457 157.016 56.5737C157.488 56.2937 158.016 56.1537 158.6 56.1537C159.192 56.1537 159.716 56.2897 160.172 56.5617C160.636 56.8257 161 57.2017 161.264 57.6897C161.528 58.1697 161.66 58.7257 161.66 59.3577C161.66 59.3977 161.656 59.4417 161.648 59.4897C161.648 59.5297 161.648 59.5737 161.648 59.6217H156.164V58.9857H161.192L160.856 59.2377C160.856 58.7817 160.756 58.3777 160.556 58.0257C160.364 57.6657 160.1 57.3857 159.764 57.1857C159.428 56.9857 159.04 56.8857 158.6 56.8857C158.168 56.8857 157.78 56.9857 157.436 57.1857C157.092 57.3857 156.824 57.6657 156.632 58.0257C156.44 58.3857 156.344 58.7977 156.344 59.2617V59.3937C156.344 59.8737 156.448 60.2977 156.656 60.6657C156.872 61.0257 157.168 61.3097 157.544 61.5177C157.928 61.7177 158.364 61.8177 158.852 61.8177C159.236 61.8177 159.592 61.7497 159.92 61.6137C160.256 61.4777 160.544 61.2697 160.784 60.9897L161.264 61.5417C160.984 61.8777 160.632 62.1337 160.208 62.3097C159.792 62.4857 159.332 62.5737 158.828 62.5737ZM171.306 62.5137L168.714 59.3937L169.422 58.9737L172.314 62.5137H171.306ZM166.686 62.5137V56.2137H167.538V62.5137H166.686ZM167.274 59.7057V58.9737H169.302V59.7057H167.274ZM169.494 59.4537L168.702 59.3337L171.21 56.2137H172.134L169.494 59.4537ZM177.454 62.5137V61.1217L177.418 60.8937V58.5657C177.418 58.0297 177.266 57.6177 176.962 57.3297C176.666 57.0417 176.222 56.8977 175.63 56.8977C175.222 56.8977 174.834 56.9657 174.466 57.1017C174.098 57.2377 173.786 57.4177 173.53 57.6417L173.146 57.0057C173.466 56.7337 173.85 56.5257 174.298 56.3817C174.746 56.2297 175.218 56.1537 175.714 56.1537C176.53 56.1537 177.158 56.3577 177.598 56.7657C178.046 57.1657 178.27 57.7777 178.27 58.6017V62.5137H177.454ZM175.282 62.5737C174.81 62.5737 174.398 62.4977 174.046 62.3457C173.702 62.1857 173.438 61.9697 173.254 61.6977C173.07 61.4177 172.978 61.0977 172.978 60.7377C172.978 60.4097 173.054 60.1137 173.206 59.8497C173.366 59.5777 173.622 59.3617 173.974 59.2017C174.334 59.0337 174.814 58.9497 175.414 58.9497H177.586V59.5857H175.438C174.83 59.5857 174.406 59.6937 174.166 59.9097C173.934 60.1257 173.818 60.3937 173.818 60.7137C173.818 61.0737 173.958 61.3617 174.238 61.5777C174.518 61.7937 174.91 61.9017 175.414 61.9017C175.894 61.9017 176.306 61.7937 176.65 61.5777C177.002 61.3537 177.258 61.0337 177.418 60.6177L177.61 61.2057C177.45 61.6217 177.17 61.9537 176.77 62.2017C176.378 62.4497 175.882 62.5737 175.282 62.5737ZM184.522 59.8497C184.154 60.0097 183.782 60.1377 183.406 60.2337C183.038 60.3217 182.67 60.3657 182.302 60.3657C181.558 60.3657 180.97 60.1977 180.538 59.8617C180.106 59.5177 179.89 58.9897 179.89 58.2777V56.2137H180.73V58.2297C180.73 58.7097 180.886 59.0697 181.198 59.3097C181.51 59.5497 181.93 59.6697 182.458 59.6697C182.778 59.6697 183.114 59.6297 183.466 59.5497C183.818 59.4617 184.174 59.3377 184.534 59.1777L184.522 59.8497ZM184.45 62.5137V56.2137H185.302V62.5137H184.45ZM190.422 62.5737C189.766 62.5737 189.19 62.4377 188.694 62.1657C188.198 61.8857 187.81 61.5057 187.53 61.0257C187.25 60.5377 187.11 59.9817 187.11 59.3577C187.11 58.7337 187.242 58.1817 187.506 57.7017C187.778 57.2217 188.146 56.8457 188.61 56.5737C189.082 56.2937 189.61 56.1537 190.194 56.1537C190.786 56.1537 191.31 56.2897 191.766 56.5617C192.23 56.8257 192.594 57.2017 192.858 57.6897C193.122 58.1697 193.254 58.7257 193.254 59.3577C193.254 59.3977 193.25 59.4417 193.242 59.4897C193.242 59.5297 193.242 59.5737 193.242 59.6217H187.758V58.9857H192.786L192.45 59.2377C192.45 58.7817 192.35 58.3777 192.15 58.0257C191.958 57.6657 191.694 57.3857 191.358 57.1857C191.022 56.9857 190.634 56.8857 190.194 56.8857C189.762 56.8857 189.374 56.9857 189.03 57.1857C188.686 57.3857 188.418 57.6657 188.226 58.0257C188.034 58.3857 187.938 58.7977 187.938 59.2617V59.3937C187.938 59.8737 188.042 60.2977 188.25 60.6657C188.466 61.0257 188.762 61.3097 189.138 61.5177C189.522 61.7177 189.958 61.8177 190.446 61.8177C190.83 61.8177 191.186 61.7497 191.514 61.6137C191.85 61.4777 192.138 61.2697 192.378 60.9897L192.858 61.5417C192.578 61.8777 192.226 62.1337 191.802 62.3097C191.386 62.4857 190.926 62.5737 190.422 62.5737ZM197.78 62.5737C197.156 62.5737 196.596 62.4377 196.1 62.1657C195.612 61.8857 195.228 61.5057 194.948 61.0257C194.668 60.5377 194.528 59.9817 194.528 59.3577C194.528 58.7257 194.668 58.1697 194.948 57.6897C195.228 57.2097 195.612 56.8337 196.1 56.5617C196.596 56.2897 197.156 56.1537 197.78 56.1537C198.316 56.1537 198.8 56.2577 199.232 56.4657C199.664 56.6737 200.004 56.9857 200.252 57.4017L199.616 57.8337C199.4 57.5137 199.132 57.2777 198.812 57.1257C198.492 56.9737 198.144 56.8977 197.768 56.8977C197.32 56.8977 196.916 57.0017 196.556 57.2097C196.196 57.4097 195.912 57.6937 195.704 58.0617C195.496 58.4297 195.392 58.8617 195.392 59.3577C195.392 59.8537 195.496 60.2857 195.704 60.6537C195.912 61.0217 196.196 61.3097 196.556 61.5177C196.916 61.7177 197.32 61.8177 197.768 61.8177C198.144 61.8177 198.492 61.7417 198.812 61.5897C199.132 61.4377 199.4 61.2057 199.616 60.8937L200.252 61.3257C200.004 61.7337 199.664 62.0457 199.232 62.2617C198.8 62.4697 198.316 62.5737 197.78 62.5737ZM202.984 62.5137V56.7297L203.2 56.9577H200.596V56.2137H206.224V56.9577H203.62L203.836 56.7297V62.5137H202.984ZM207.456 62.5137V56.2137H210.24C210.952 56.2137 211.512 56.3497 211.92 56.6217C212.336 56.8937 212.544 57.2937 212.544 57.8217C212.544 58.3337 212.348 58.7297 211.956 59.0097C211.564 59.2817 211.048 59.4177 210.408 59.4177L210.576 59.1657C211.328 59.1657 211.88 59.3057 212.232 59.5857C212.584 59.8657 212.76 60.2697 212.76 60.7977C212.76 61.3417 212.56 61.7657 212.16 62.0697C211.768 62.3657 211.156 62.5137 210.324 62.5137H207.456ZM208.284 61.8417H210.288C210.824 61.8417 211.228 61.7577 211.5 61.5897C211.78 61.4137 211.92 61.1337 211.92 60.7497C211.92 60.3657 211.796 60.0857 211.548 59.9097C211.3 59.7337 210.908 59.6457 210.372 59.6457H208.284V61.8417ZM208.284 59.0097H210.18C210.668 59.0097 211.04 58.9177 211.296 58.7337C211.56 58.5497 211.692 58.2817 211.692 57.9297C211.692 57.5777 211.56 57.3137 211.296 57.1377C211.04 56.9617 210.668 56.8737 210.18 56.8737H208.284V59.0097ZM217.349 62.5737C216.741 62.5737 216.193 62.4377 215.705 62.1657C215.225 61.8857 214.845 61.5057 214.565 61.0257C214.285 60.5377 214.145 59.9817 214.145 59.3577C214.145 58.7257 214.285 58.1697 214.565 57.6897C214.845 57.2097 215.225 56.8337 215.705 56.5617C216.185 56.2897 216.733 56.1537 217.349 56.1537C217.973 56.1537 218.525 56.2897 219.005 56.5617C219.493 56.8337 219.873 57.2097 220.145 57.6897C220.425 58.1697 220.565 58.7257 220.565 59.3577C220.565 59.9817 220.425 60.5377 220.145 61.0257C219.873 61.5057 219.493 61.8857 219.005 62.1657C218.517 62.4377 217.965 62.5737 217.349 62.5737ZM217.349 61.8177C217.805 61.8177 218.209 61.7177 218.561 61.5177C218.913 61.3097 219.189 61.0217 219.389 60.6537C219.597 60.2777 219.701 59.8457 219.701 59.3577C219.701 58.8617 219.597 58.4297 219.389 58.0617C219.189 57.6937 218.913 57.4097 218.561 57.2097C218.209 57.0017 217.809 56.8977 217.361 56.8977C216.913 56.8977 216.513 57.0017 216.161 57.2097C215.809 57.4097 215.529 57.6937 215.321 58.0617C215.113 58.4297 215.009 58.8617 215.009 59.3577C215.009 59.8457 215.113 60.2777 215.321 60.6537C215.529 61.0217 215.809 61.3097 216.161 61.5177C216.513 61.7177 216.909 61.8177 217.349 61.8177ZM228.166 62.5737C227.542 62.5737 226.982 62.4377 226.486 62.1657C225.998 61.8857 225.614 61.5057 225.334 61.0257C225.054 60.5377 224.914 59.9817 224.914 59.3577C224.914 58.7257 225.054 58.1697 225.334 57.6897C225.614 57.2097 225.998 56.8337 226.486 56.5617C226.982 56.2897 227.542 56.1537 228.166 56.1537C228.702 56.1537 229.186 56.2577 229.618 56.4657C230.05 56.6737 230.39 56.9857 230.638 57.4017L230.002 57.8337C229.786 57.5137 229.518 57.2777 229.198 57.1257C228.878 56.9737 228.53 56.8977 228.154 56.8977C227.706 56.8977 227.302 57.0017 226.942 57.2097C226.582 57.4097 226.298 57.6937 226.09 58.0617C225.882 58.4297 225.778 58.8617 225.778 59.3577C225.778 59.8537 225.882 60.2857 226.09 60.6537C226.298 61.0217 226.582 61.3097 226.942 61.5177C227.302 61.7177 227.706 61.8177 228.154 61.8177C228.53 61.8177 228.878 61.7417 229.198 61.5897C229.518 61.4377 229.786 61.2057 230.002 60.8937L230.638 61.3257C230.39 61.7337 230.05 62.0457 229.618 62.2617C229.186 62.4697 228.702 62.5737 228.166 62.5737ZM233.371 62.5137V56.7297L233.587 56.9577H230.983V56.2137H236.611V56.9577H234.007L234.223 56.7297V62.5137H233.371ZM241.095 62.5737C240.551 62.5737 240.059 62.4497 239.619 62.2017C239.179 61.9457 238.827 61.5817 238.563 61.1097C238.307 60.6297 238.179 60.0457 238.179 59.3577C238.179 58.6697 238.307 58.0897 238.563 57.6177C238.819 57.1377 239.167 56.7737 239.607 56.5257C240.047 56.2777 240.543 56.1537 241.095 56.1537C241.695 56.1537 242.231 56.2897 242.703 56.5617C243.183 56.8257 243.559 57.2017 243.831 57.6897C244.103 58.1697 244.239 58.7257 244.239 59.3577C244.239 59.9977 244.103 60.5577 243.831 61.0377C243.559 61.5177 243.183 61.8937 242.703 62.1657C242.231 62.4377 241.695 62.5737 241.095 62.5737ZM237.843 64.8417V56.2137H238.659V58.1097L238.575 59.3697L238.695 60.6417V64.8417H237.843ZM241.035 61.8177C241.483 61.8177 241.883 61.7177 242.235 61.5177C242.587 61.3097 242.867 61.0217 243.075 60.6537C243.283 60.2777 243.387 59.8457 243.387 59.3577C243.387 58.8697 243.283 58.4417 243.075 58.0737C242.867 57.7057 242.587 57.4177 242.235 57.2097C241.883 57.0017 241.483 56.8977 241.035 56.8977C240.587 56.8977 240.183 57.0017 239.823 57.2097C239.471 57.4177 239.191 57.7057 238.983 58.0737C238.783 58.4417 238.683 58.8697 238.683 59.3577C238.683 59.8457 238.783 60.2777 238.983 60.6537C239.191 61.0217 239.471 61.3097 239.823 61.5177C240.183 61.7177 240.587 61.8177 241.035 61.8177ZM248.661 62.5737C248.053 62.5737 247.505 62.4377 247.017 62.1657C246.537 61.8857 246.157 61.5057 245.877 61.0257C245.597 60.5377 245.457 59.9817 245.457 59.3577C245.457 58.7257 245.597 58.1697 245.877 57.6897C246.157 57.2097 246.537 56.8337 247.017 56.5617C247.497 56.2897 248.045 56.1537 248.661 56.1537C249.285 56.1537 249.837 56.2897 250.317 56.5617C250.805 56.8337 251.185 57.2097 251.457 57.6897C251.737 58.1697 251.877 58.7257 251.877 59.3577C251.877 59.9817 251.737 60.5377 251.457 61.0257C251.185 61.5057 250.805 61.8857 250.317 62.1657C249.829 62.4377 249.277 62.5737 248.661 62.5737ZM248.661 61.8177C249.117 61.8177 249.521 61.7177 249.873 61.5177C250.225 61.3097 250.501 61.0217 250.701 60.6537C250.909 60.2777 251.013 59.8457 251.013 59.3577C251.013 58.8617 250.909 58.4297 250.701 58.0617C250.501 57.6937 250.225 57.4097 249.873 57.2097C249.521 57.0017 249.121 56.8977 248.673 56.8977C248.225 56.8977 247.825 57.0017 247.473 57.2097C247.121 57.4097 246.841 57.6937 246.633 58.0617C246.425 58.4297 246.321 58.8617 246.321 59.3577C246.321 59.8457 246.425 60.2777 246.633 60.6537C246.841 61.0217 247.121 61.3097 247.473 61.5177C247.825 61.7177 248.221 61.8177 248.661 61.8177ZM253.698 62.5137V56.2137H254.55V61.2177L258.762 56.2137H259.518V62.5137H258.666V57.4977L254.466 62.5137H253.698ZM263.16 62.5137V56.7297L263.376 56.9577H260.772V56.2137H266.4V56.9577H263.796L264.012 56.7297V62.5137H263.16ZM270.039 62.5737C269.383 62.5737 268.807 62.4377 268.311 62.1657C267.815 61.8857 267.427 61.5057 267.147 61.0257C266.867 60.5377 266.727 59.9817 266.727 59.3577C266.727 58.7337 266.859 58.1817 267.123 57.7017C267.395 57.2217 267.763 56.8457 268.227 56.5737C268.699 56.2937 269.227 56.1537 269.811 56.1537C270.403 56.1537 270.927 56.2897 271.383 56.5617C271.847 56.8257 272.211 57.2017 272.475 57.6897C272.739 58.1697 272.871 58.7257 272.871 59.3577C272.871 59.3977 272.867 59.4417 272.859 59.4897C272.859 59.5297 272.859 59.5737 272.859 59.6217H267.375V58.9857H272.403L272.067 59.2377C272.067 58.7817 271.967 58.3777 271.767 58.0257C271.575 57.6657 271.311 57.3857 270.975 57.1857C270.639 56.9857 270.251 56.8857 269.811 56.8857C269.379 56.8857 268.991 56.9857 268.647 57.1857C268.303 57.3857 268.035 57.6657 267.843 58.0257C267.651 58.3857 267.555 58.7977 267.555 59.2617V59.3937C267.555 59.8737 267.659 60.2977 267.867 60.6657C268.083 61.0257 268.379 61.3097 268.755 61.5177C269.139 61.7177 269.575 61.8177 270.063 61.8177C270.447 61.8177 270.803 61.7497 271.131 61.6137C271.467 61.4777 271.755 61.2697 271.995 60.9897L272.475 61.5417C272.195 61.8777 271.843 62.1337 271.419 62.3097C271.003 62.4857 270.543 62.5737 270.039 62.5737ZM273.476 62.5017L273.536 61.7697C273.592 61.7777 273.644 61.7897 273.692 61.8057C273.748 61.8137 273.796 61.8177 273.836 61.8177C274.092 61.8177 274.296 61.7217 274.448 61.5297C274.608 61.3377 274.728 61.0817 274.808 60.7617C274.888 60.4417 274.944 60.0817 274.976 59.6817C275.008 59.2737 275.036 58.8657 275.06 58.4577L275.168 56.2137H279.788V62.5137H278.936V56.7057L279.152 56.9577H275.72L275.924 56.6937L275.828 58.5177C275.804 59.0617 275.76 59.5817 275.696 60.0777C275.64 60.5737 275.548 61.0097 275.42 61.3857C275.3 61.7617 275.132 62.0577 274.916 62.2737C274.7 62.4817 274.424 62.5857 274.088 62.5857C273.992 62.5857 273.892 62.5777 273.788 62.5617C273.692 62.5457 273.588 62.5257 273.476 62.5017ZM284.922 58.4337C285.714 58.4417 286.314 58.6177 286.722 58.9617C287.138 59.3057 287.346 59.8017 287.346 60.4497C287.346 61.1217 287.122 61.6377 286.674 61.9977C286.234 62.3577 285.594 62.5337 284.754 62.5257L282.21 62.5137V56.2137H283.062V58.4097L284.922 58.4337ZM284.706 61.8777C285.29 61.8857 285.73 61.7697 286.026 61.5297C286.33 61.2817 286.482 60.9217 286.482 60.4497C286.482 59.9777 286.334 59.6337 286.038 59.4177C285.742 59.1937 285.298 59.0777 284.706 59.0697L283.062 59.0457V61.8537L284.706 61.8777ZM291.612 62.5737C290.988 62.5737 290.428 62.4377 289.932 62.1657C289.444 61.8857 289.06 61.5057 288.78 61.0257C288.5 60.5377 288.36 59.9817 288.36 59.3577C288.36 58.7257 288.5 58.1697 288.78 57.6897C289.06 57.2097 289.444 56.8337 289.932 56.5617C290.428 56.2897 290.988 56.1537 291.612 56.1537C292.148 56.1537 292.632 56.2577 293.064 56.4657C293.496 56.6737 293.836 56.9857 294.084 57.4017L293.448 57.8337C293.232 57.5137 292.964 57.2777 292.644 57.1257C292.324 56.9737 291.976 56.8977 291.6 56.8977C291.152 56.8977 290.748 57.0017 290.388 57.2097C290.028 57.4097 289.744 57.6937 289.536 58.0617C289.328 58.4297 289.224 58.8617 289.224 59.3577C289.224 59.8537 289.328 60.2857 289.536 60.6537C289.744 61.0217 290.028 61.3097 290.388 61.5177C290.748 61.7177 291.152 61.8177 291.6 61.8177C291.976 61.8177 292.324 61.7417 292.644 61.5897C292.964 61.4377 293.232 61.2057 293.448 60.8937L294.084 61.3257C293.836 61.7337 293.496 62.0457 293.064 62.2617C292.632 62.4697 292.148 62.5737 291.612 62.5737ZM296.816 62.5137V56.7297L297.032 56.9577H294.428V56.2137H300.056V56.9577H297.452L297.668 56.7297V62.5137H296.816ZM301.288 62.5137V56.2137H304.072C304.784 56.2137 305.344 56.3497 305.752 56.6217C306.168 56.8937 306.376 57.2937 306.376 57.8217C306.376 58.3337 306.18 58.7297 305.788 59.0097C305.396 59.2817 304.88 59.4177 304.24 59.4177L304.408 59.1657C305.16 59.1657 305.712 59.3057 306.064 59.5857C306.416 59.8657 306.592 60.2697 306.592 60.7977C306.592 61.3417 306.392 61.7657 305.992 62.0697C305.6 62.3657 304.988 62.5137 304.156 62.5137H301.288ZM302.116 61.8417H304.12C304.656 61.8417 305.06 61.7577 305.332 61.5897C305.612 61.4137 305.752 61.1337 305.752 60.7497C305.752 60.3657 305.628 60.0857 305.38 59.9097C305.132 59.7337 304.74 59.6457 304.204 59.6457H302.116V61.8417ZM302.116 59.0097H304.012C304.5 59.0097 304.872 58.9177 305.128 58.7337C305.392 58.5497 305.524 58.2817 305.524 57.9297C305.524 57.5777 305.392 57.3137 305.128 57.1377C304.872 56.9617 304.5 56.8737 304.012 56.8737H302.116V59.0097ZM312.501 62.5137V61.1217L312.465 60.8937V58.5657C312.465 58.0297 312.313 57.6177 312.009 57.3297C311.713 57.0417 311.269 56.8977 310.677 56.8977C310.269 56.8977 309.881 56.9657 309.513 57.1017C309.145 57.2377 308.833 57.4177 308.577 57.6417L308.193 57.0057C308.513 56.7337 308.897 56.5257 309.345 56.3817C309.793 56.2297 310.265 56.1537 310.761 56.1537C311.577 56.1537 312.205 56.3577 312.645 56.7657C313.093 57.1657 313.317 57.7777 313.317 58.6017V62.5137H312.501ZM310.329 62.5737C309.857 62.5737 309.445 62.4977 309.093 62.3457C308.749 62.1857 308.485 61.9697 308.301 61.6977C308.117 61.4177 308.025 61.0977 308.025 60.7377C308.025 60.4097 308.101 60.1137 308.253 59.8497C308.413 59.5777 308.669 59.3617 309.021 59.2017C309.381 59.0337 309.861 58.9497 310.461 58.9497H312.633V59.5857H310.485C309.877 59.5857 309.453 59.6937 309.213 59.9097C308.981 60.1257 308.865 60.3937 308.865 60.7137C308.865 61.0737 309.005 61.3617 309.285 61.5777C309.565 61.7937 309.957 61.9017 310.461 61.9017C310.941 61.9017 311.353 61.7937 311.697 61.5777C312.049 61.3537 312.305 61.0337 312.465 60.6177L312.657 61.2057C312.497 61.6217 312.217 61.9537 311.817 62.2017C311.425 62.4497 310.929 62.5737 310.329 62.5737ZM101.217 77.5737C100.593 77.5737 100.033 77.4377 99.5371 77.1657C99.0491 76.8857 98.6651 76.5057 98.3851 76.0257C98.1051 75.5377 97.9651 74.9817 97.9651 74.3577C97.9651 73.7257 98.1051 73.1697 98.3851 72.6897C98.6651 72.2097 99.0491 71.8337 99.5371 71.5617C100.033 71.2897 100.593 71.1537 101.217 71.1537C101.753 71.1537 102.237 71.2577 102.669 71.4657C103.101 71.6737 103.441 71.9857 103.689 72.4017L103.053 72.8337C102.837 72.5137 102.569 72.2777 102.249 72.1257C101.929 71.9737 101.581 71.8977 101.205 71.8977C100.757 71.8977 100.353 72.0017 99.9931 72.2097C99.6331 72.4097 99.3491 72.6937 99.1411 73.0617C98.9331 73.4297 98.8291 73.8617 98.8291 74.3577C98.8291 74.8537 98.9331 75.2857 99.1411 75.6537C99.3491 76.0217 99.6331 76.3097 99.9931 76.5177C100.353 76.7177 100.757 76.8177 101.205 76.8177C101.581 76.8177 101.929 76.7417 102.249 76.5897C102.569 76.4377 102.837 76.2057 103.053 75.8937L103.689 76.3257C103.441 76.7337 103.101 77.0457 102.669 77.2617C102.237 77.4697 101.753 77.5737 101.217 77.5737ZM111.071 77.5737C110.463 77.5737 109.915 77.4377 109.427 77.1657C108.947 76.8857 108.567 76.5057 108.287 76.0257C108.007 75.5377 107.867 74.9817 107.867 74.3577C107.867 73.7257 108.007 73.1697 108.287 72.6897C108.567 72.2097 108.947 71.8337 109.427 71.5617C109.907 71.2897 110.455 71.1537 111.071 71.1537C111.695 71.1537 112.247 71.2897 112.727 71.5617C113.215 71.8337 113.595 72.2097 113.867 72.6897C114.147 73.1697 114.287 73.7257 114.287 74.3577C114.287 74.9817 114.147 75.5377 113.867 76.0257C113.595 76.5057 113.215 76.8857 112.727 77.1657C112.239 77.4377 111.687 77.5737 111.071 77.5737ZM111.071 76.8177C111.527 76.8177 111.931 76.7177 112.283 76.5177C112.635 76.3097 112.911 76.0217 113.111 75.6537C113.319 75.2777 113.423 74.8457 113.423 74.3577C113.423 73.8617 113.319 73.4297 113.111 73.0617C112.911 72.6937 112.635 72.4097 112.283 72.2097C111.931 72.0017 111.531 71.8977 111.083 71.8977C110.635 71.8977 110.235 72.0017 109.883 72.2097C109.531 72.4097 109.251 72.6937 109.043 73.0617C108.835 73.4297 108.731 73.8617 108.731 74.3577C108.731 74.8457 108.835 75.2777 109.043 75.6537C109.251 76.0217 109.531 76.3097 109.883 76.5177C110.235 76.7177 110.631 76.8177 111.071 76.8177ZM119.648 77.5857C119.648 77.5857 119.632 77.5857 119.6 77.5857C119.568 77.5857 119.536 77.5857 119.504 77.5857C119.48 77.5857 119.46 77.5857 119.444 77.5857C118.196 77.5777 117.224 77.2937 116.528 76.7337C115.832 76.1737 115.484 75.3777 115.484 74.3457C115.484 73.3297 115.832 72.5457 116.528 71.9937C117.232 71.4337 118.22 71.1497 119.492 71.1417C119.5 71.1417 119.516 71.1417 119.54 71.1417C119.572 71.1417 119.6 71.1417 119.624 71.1417C119.648 71.1417 119.664 71.1417 119.672 71.1417C120.952 71.1497 121.948 71.4337 122.66 71.9937C123.372 72.5457 123.728 73.3297 123.728 74.3457C123.728 75.3857 123.368 76.1857 122.648 76.7457C121.936 77.3057 120.936 77.5857 119.648 77.5857ZM119.636 76.8417C120.348 76.8417 120.944 76.7457 121.424 76.5537C121.904 76.3537 122.268 76.0697 122.516 75.7017C122.764 75.3337 122.888 74.8817 122.888 74.3457C122.888 73.8257 122.764 73.3857 122.516 73.0257C122.268 72.6577 121.904 72.3777 121.424 72.1857C120.944 71.9937 120.348 71.8977 119.636 71.8977C119.628 71.8977 119.604 71.8977 119.564 71.8977C119.532 71.8977 119.512 71.8977 119.504 71.8977C118.808 71.8977 118.224 71.9977 117.752 72.1977C117.28 72.3897 116.924 72.6657 116.684 73.0257C116.444 73.3857 116.324 73.8257 116.324 74.3457C116.324 74.8737 116.444 75.3217 116.684 75.6897C116.932 76.0577 117.292 76.3417 117.764 76.5417C118.236 76.7337 118.816 76.8337 119.504 76.8417C119.52 76.8417 119.544 76.8417 119.576 76.8417C119.608 76.8417 119.628 76.8417 119.636 76.8417ZM119.18 79.8417V68.6097H120.008V79.8417H119.18ZM125.53 77.5137V71.2137H126.382V76.2177L130.594 71.2137H131.35V77.5137H130.498V72.4977L126.298 77.5137H125.53ZM133.792 77.5137V71.2137H134.644V76.7697H138.496V71.2137H139.348V77.5137H133.792ZM139.564 79.0377V77.4417L139.78 77.5137H138.496V76.7697H140.368V79.0377H139.564ZM141.995 77.5137V71.2137H142.847V76.2177L147.059 71.2137H147.815V77.5137H146.963V72.4977L142.763 77.5137H141.995ZM154.169 77.5137V76.1217L154.133 75.8937V73.5657C154.133 73.0297 153.981 72.6177 153.677 72.3297C153.381 72.0417 152.937 71.8977 152.345 71.8977C151.937 71.8977 151.549 71.9657 151.181 72.1017C150.813 72.2377 150.501 72.4177 150.245 72.6417L149.861 72.0057C150.181 71.7337 150.565 71.5257 151.013 71.3817C151.461 71.2297 151.933 71.1537 152.429 71.1537C153.245 71.1537 153.873 71.3577 154.313 71.7657C154.761 72.1657 154.985 72.7777 154.985 73.6017V77.5137H154.169ZM151.997 77.5737C151.525 77.5737 151.113 77.4977 150.761 77.3457C150.417 77.1857 150.153 76.9697 149.969 76.6977C149.785 76.4177 149.693 76.0977 149.693 75.7377C149.693 75.4097 149.769 75.1137 149.921 74.8497C150.081 74.5777 150.337 74.3617 150.689 74.2017C151.049 74.0337 151.529 73.9497 152.129 73.9497H154.301V74.5857H152.153C151.545 74.5857 151.121 74.6937 150.881 74.9097C150.649 75.1257 150.533 75.3937 150.533 75.7137C150.533 76.0737 150.673 76.3617 150.953 76.5777C151.233 76.7937 151.625 76.9017 152.129 76.9017C152.609 76.9017 153.021 76.7937 153.365 76.5777C153.717 76.3537 153.973 76.0337 154.133 75.6177L154.325 76.2057C154.165 76.6217 153.885 76.9537 153.485 77.2017C153.093 77.4497 152.597 77.5737 151.997 77.5737ZM156.101 77.5017L156.161 76.7697C156.217 76.7777 156.269 76.7897 156.317 76.8057C156.373 76.8137 156.421 76.8177 156.461 76.8177C156.717 76.8177 156.921 76.7217 157.073 76.5297C157.233 76.3377 157.353 76.0817 157.433 75.7617C157.513 75.4417 157.569 75.0817 157.601 74.6817C157.633 74.2737 157.661 73.8657 157.685 73.4577L157.793 71.2137H162.413V77.5137H161.561V71.7057L161.777 71.9577H158.345L158.549 71.6937L158.453 73.5177C158.429 74.0617 158.385 74.5817 158.321 75.0777C158.265 75.5737 158.173 76.0097 158.045 76.3857C157.925 76.7617 157.757 77.0577 157.541 77.2737C157.325 77.4817 157.049 77.5857 156.713 77.5857C156.617 77.5857 156.517 77.5777 156.413 77.5617C156.317 77.5457 156.213 77.5257 156.101 77.5017ZM167.547 73.4337C168.339 73.4417 168.939 73.6177 169.347 73.9617C169.763 74.3057 169.971 74.8017 169.971 75.4497C169.971 76.1217 169.747 76.6377 169.299 76.9977C168.859 77.3577 168.219 77.5337 167.379 77.5257L164.835 77.5137V71.2137H165.687V73.4097L167.547 73.4337ZM167.331 76.8777C167.915 76.8857 168.355 76.7697 168.651 76.5297C168.955 76.2817 169.107 75.9217 169.107 75.4497C169.107 74.9777 168.959 74.6337 168.663 74.4177C168.367 74.1937 167.923 74.0777 167.331 74.0697L165.687 74.0457V76.8537L167.331 76.8777ZM171.597 77.5137V71.2137H172.449V73.9977H176.421V71.2137H177.273V77.5137H176.421V74.7297H172.449V77.5137H171.597ZM185.838 77.5137V71.2137H186.69V77.5137H185.838ZM182.346 73.4337C183.138 73.4417 183.742 73.6177 184.158 73.9617C184.574 74.3057 184.782 74.8017 184.782 75.4497C184.782 76.1217 184.558 76.6377 184.11 76.9977C183.662 77.3577 183.022 77.5337 182.19 77.5257L179.694 77.5137V71.2137H180.546V73.4097L182.346 73.4337ZM182.13 76.8777C182.722 76.8857 183.166 76.7697 183.462 76.5297C183.766 76.2817 183.918 75.9217 183.918 75.4497C183.918 74.9777 183.77 74.6337 183.474 74.4177C183.178 74.1937 182.73 74.0777 182.13 74.0697L180.546 74.0457V76.8537L182.13 76.8777ZM189.116 77.5137V71.2137H189.98L192.836 76.0497H192.476L195.38 71.2137H196.172V77.5137H195.392V72.1857L195.548 72.2577L192.836 76.7457H192.452L189.716 72.2097L189.896 72.1737V77.5137H189.116ZM198.597 77.5137V71.2137H199.449V76.2177L203.661 71.2137H204.417V77.5137H203.565V72.4977L199.365 77.5137H198.597ZM212.591 77.5737C211.983 77.5737 211.435 77.4377 210.947 77.1657C210.467 76.8857 210.087 76.5057 209.807 76.0257C209.527 75.5377 209.387 74.9817 209.387 74.3577C209.387 73.7257 209.527 73.1697 209.807 72.6897C210.087 72.2097 210.467 71.8337 210.947 71.5617C211.427 71.2897 211.975 71.1537 212.591 71.1537C213.215 71.1537 213.767 71.2897 214.247 71.5617C214.735 71.8337 215.115 72.2097 215.387 72.6897C215.667 73.1697 215.807 73.7257 215.807 74.3577C215.807 74.9817 215.667 75.5377 215.387 76.0257C215.115 76.5057 214.735 76.8857 214.247 77.1657C213.759 77.4377 213.207 77.5737 212.591 77.5737ZM212.591 76.8177C213.047 76.8177 213.451 76.7177 213.803 76.5177C214.155 76.3097 214.431 76.0217 214.631 75.6537C214.839 75.2777 214.943 74.8457 214.943 74.3577C214.943 73.8617 214.839 73.4297 214.631 73.0617C214.431 72.6937 214.155 72.4097 213.803 72.2097C213.451 72.0017 213.051 71.8977 212.603 71.8977C212.155 71.8977 211.755 72.0017 211.403 72.2097C211.051 72.4097 210.771 72.6937 210.563 73.0617C210.355 73.4297 210.251 73.8617 210.251 74.3577C210.251 74.8457 210.355 75.2777 210.563 75.6537C210.771 76.0217 211.051 76.3097 211.403 76.5177C211.755 76.7177 212.151 76.8177 212.591 76.8177ZM220.46 77.5857C219.948 77.5857 219.492 77.5017 219.092 77.3337C218.7 77.1657 218.364 76.9097 218.084 76.5657C217.804 76.2217 217.592 75.7977 217.448 75.2937C217.304 74.7817 217.232 74.1897 217.232 73.5177C217.232 72.9177 217.288 72.3937 217.4 71.9457C217.512 71.4897 217.668 71.0977 217.868 70.7697C218.068 70.4417 218.3 70.1657 218.564 69.9417C218.836 69.7097 219.128 69.5257 219.44 69.3897C219.76 69.2457 220.088 69.1377 220.424 69.0657L223.256 68.4057L223.4 69.1977L220.736 69.7977C220.568 69.8377 220.364 69.8937 220.124 69.9657C219.892 70.0377 219.652 70.1457 219.404 70.2897C219.164 70.4337 218.94 70.6337 218.732 70.8897C218.524 71.1457 218.356 71.4777 218.228 71.8857C218.108 72.2857 218.048 72.7857 218.048 73.3857C218.048 73.5137 218.052 73.6177 218.06 73.6977C218.068 73.7697 218.076 73.8497 218.084 73.9377C218.1 74.0177 218.112 74.1377 218.12 74.2977L217.748 73.9857C217.836 73.4977 218.016 73.0737 218.288 72.7137C218.56 72.3457 218.9 72.0617 219.308 71.8617C219.724 71.6537 220.184 71.5497 220.688 71.5497C221.272 71.5497 221.792 71.6777 222.248 71.9337C222.704 72.1817 223.06 72.5297 223.316 72.9777C223.58 73.4257 223.712 73.9457 223.712 74.5377C223.712 75.1217 223.576 75.6457 223.304 76.1097C223.04 76.5737 222.664 76.9377 222.176 77.2017C221.688 77.4577 221.116 77.5857 220.46 77.5857ZM220.556 76.8777C221.004 76.8777 221.4 76.7777 221.744 76.5777C222.088 76.3697 222.356 76.0897 222.548 75.7377C222.748 75.3857 222.848 74.9897 222.848 74.5497C222.848 74.1177 222.748 73.7337 222.548 73.3977C222.356 73.0617 222.088 72.7977 221.744 72.6057C221.4 72.4057 221 72.3057 220.544 72.3057C220.096 72.3057 219.7 72.4017 219.356 72.5937C219.012 72.7777 218.74 73.0377 218.54 73.3737C218.348 73.7097 218.252 74.0977 218.252 74.5377C218.252 74.9777 218.348 75.3737 218.54 75.7257C218.74 76.0777 219.012 76.3577 219.356 76.5657C219.708 76.7737 220.108 76.8777 220.556 76.8777ZM229.383 77.5137V75.2457L229.539 75.4257H227.403C226.595 75.4257 225.963 75.2497 225.507 74.8977C225.051 74.5457 224.823 74.0337 224.823 73.3617C224.823 72.6417 225.067 72.1057 225.555 71.7537C226.043 71.3937 226.695 71.2137 227.511 71.2137H230.163V77.5137H229.383ZM224.775 77.5137L226.503 75.0897H227.391L225.699 77.5137H224.775ZM229.383 74.9937V71.7057L229.539 71.9577H227.535C226.951 71.9577 226.495 72.0697 226.167 72.2937C225.847 72.5177 225.687 72.8817 225.687 73.3857C225.687 74.3217 226.283 74.7897 227.475 74.7897H229.539L229.383 74.9937ZM234.156 77.5857C233.7 77.5857 233.248 77.5217 232.8 77.3937C232.352 77.2657 231.956 77.0697 231.612 76.8057L231.888 76.1697C232.192 76.3937 232.544 76.5657 232.944 76.6857C233.344 76.7977 233.74 76.8537 234.132 76.8537C234.524 76.8457 234.864 76.7897 235.152 76.6857C235.44 76.5817 235.664 76.4377 235.824 76.2537C235.984 76.0697 236.064 75.8617 236.064 75.6297C236.064 75.2937 235.912 75.0337 235.608 74.8497C235.304 74.6577 234.888 74.5617 234.36 74.5617H233.28V73.9377H234.3C234.612 73.9377 234.888 73.8977 235.128 73.8177C235.368 73.7377 235.552 73.6217 235.68 73.4697C235.816 73.3177 235.884 73.1377 235.884 72.9297C235.884 72.7057 235.804 72.5137 235.644 72.3537C235.492 72.1937 235.28 72.0737 235.008 71.9937C234.736 71.9137 234.428 71.8737 234.084 71.8737C233.772 71.8817 233.448 71.9297 233.112 72.0177C232.776 72.0977 232.444 72.2217 232.116 72.3897L231.876 71.7297C232.244 71.5377 232.608 71.3937 232.968 71.2977C233.336 71.1937 233.704 71.1417 234.072 71.1417C234.576 71.1257 235.028 71.1857 235.428 71.3217C235.836 71.4577 236.16 71.6537 236.4 71.9097C236.64 72.1577 236.76 72.4577 236.76 72.8097C236.76 73.1217 236.664 73.3937 236.472 73.6257C236.28 73.8577 236.024 74.0377 235.704 74.1657C235.384 74.2937 235.02 74.3577 234.612 74.3577L234.648 74.1297C235.368 74.1297 235.928 74.2697 236.328 74.5497C236.736 74.8297 236.94 75.2097 236.94 75.6897C236.94 76.0657 236.816 76.3977 236.568 76.6857C236.32 76.9657 235.984 77.1857 235.56 77.3457C235.144 77.5057 234.676 77.5857 234.156 77.5857ZM242.786 77.5137V76.1217L242.75 75.8937V73.5657C242.75 73.0297 242.598 72.6177 242.294 72.3297C241.998 72.0417 241.554 71.8977 240.962 71.8977C240.554 71.8977 240.166 71.9657 239.798 72.1017C239.43 72.2377 239.118 72.4177 238.862 72.6417L238.478 72.0057C238.798 71.7337 239.182 71.5257 239.63 71.3817C240.078 71.2297 240.55 71.1537 241.046 71.1537C241.862 71.1537 242.49 71.3577 242.93 71.7657C243.378 72.1657 243.602 72.7777 243.602 73.6017V77.5137H242.786ZM240.614 77.5737C240.142 77.5737 239.73 77.4977 239.378 77.3457C239.034 77.1857 238.77 76.9697 238.586 76.6977C238.402 76.4177 238.31 76.0977 238.31 75.7377C238.31 75.4097 238.386 75.1137 238.538 74.8497C238.698 74.5777 238.954 74.3617 239.306 74.2017C239.666 74.0337 240.146 73.9497 240.746 73.9497H242.918V74.5857H240.77C240.162 74.5857 239.738 74.6937 239.498 74.9097C239.266 75.1257 239.15 75.3937 239.15 75.7137C239.15 76.0737 239.29 76.3617 239.57 76.5777C239.85 76.7937 240.242 76.9017 240.746 76.9017C241.226 76.9017 241.638 76.7937 241.982 76.5777C242.334 76.3537 242.59 76.0337 242.75 75.6177L242.942 76.2057C242.782 76.6217 242.502 76.9537 242.102 77.2017C241.71 77.4497 241.214 77.5737 240.614 77.5737ZM247.07 77.5137V71.7297L247.286 71.9577H244.682V71.2137H250.31V71.9577H247.706L247.922 71.7297V77.5137H247.07ZM253.949 77.5737C253.293 77.5737 252.717 77.4377 252.221 77.1657C251.725 76.8857 251.337 76.5057 251.057 76.0257C250.777 75.5377 250.637 74.9817 250.637 74.3577C250.637 73.7337 250.769 73.1817 251.033 72.7017C251.305 72.2217 251.673 71.8457 252.137 71.5737C252.609 71.2937 253.137 71.1537 253.721 71.1537C254.313 71.1537 254.837 71.2897 255.293 71.5617C255.757 71.8257 256.121 72.2017 256.385 72.6897C256.649 73.1697 256.781 73.7257 256.781 74.3577C256.781 74.3977 256.777 74.4417 256.769 74.4897C256.769 74.5297 256.769 74.5737 256.769 74.6217H251.285V73.9857H256.313L255.977 74.2377C255.977 73.7817 255.877 73.3777 255.677 73.0257C255.485 72.6657 255.221 72.3857 254.885 72.1857C254.549 71.9857 254.161 71.8857 253.721 71.8857C253.289 71.8857 252.901 71.9857 252.557 72.1857C252.213 72.3857 251.945 72.6657 251.753 73.0257C251.561 73.3857 251.465 73.7977 251.465 74.2617V74.3937C251.465 74.8737 251.569 75.2977 251.777 75.6657C251.993 76.0257 252.289 76.3097 252.665 76.5177C253.049 76.7177 253.485 76.8177 253.973 76.8177C254.357 76.8177 254.713 76.7497 255.041 76.6137C255.377 76.4777 255.665 76.2697 255.905 75.9897L256.385 76.5417C256.105 76.8777 255.753 77.1337 255.329 77.3097C254.913 77.4857 254.453 77.5737 253.949 77.5737ZM257.386 77.5017L257.446 76.7697C257.502 76.7777 257.554 76.7897 257.602 76.8057C257.658 76.8137 257.706 76.8177 257.746 76.8177C258.002 76.8177 258.206 76.7217 258.358 76.5297C258.518 76.3377 258.638 76.0817 258.718 75.7617C258.798 75.4417 258.854 75.0817 258.886 74.6817C258.918 74.2737 258.946 73.8657 258.97 73.4577L259.078 71.2137H263.698V77.5137H262.846V71.7057L263.062 71.9577H259.63L259.834 71.6937L259.738 73.5177C259.714 74.0617 259.67 74.5817 259.606 75.0777C259.55 75.5737 259.458 76.0097 259.33 76.3857C259.21 76.7617 259.042 77.0577 258.826 77.2737C258.61 77.4817 258.334 77.5857 257.998 77.5857C257.902 77.5857 257.802 77.5777 257.698 77.5617C257.602 77.5457 257.498 77.5257 257.386 77.5017ZM268.832 73.4337C269.624 73.4417 270.224 73.6177 270.632 73.9617C271.048 74.3057 271.256 74.8017 271.256 75.4497C271.256 76.1217 271.032 76.6377 270.584 76.9977C270.144 77.3577 269.504 77.5337 268.664 77.5257L266.12 77.5137V71.2137H266.972V73.4097L268.832 73.4337ZM268.616 76.8777C269.2 76.8857 269.64 76.7697 269.936 76.5297C270.24 76.2817 270.392 75.9217 270.392 75.4497C270.392 74.9777 270.244 74.6337 269.948 74.4177C269.652 74.1937 269.208 74.0777 268.616 74.0697L266.972 74.0457V76.8537L268.616 76.8777ZM275.522 77.5737C274.898 77.5737 274.338 77.4377 273.842 77.1657C273.354 76.8857 272.97 76.5057 272.69 76.0257C272.41 75.5377 272.27 74.9817 272.27 74.3577C272.27 73.7257 272.41 73.1697 272.69 72.6897C272.97 72.2097 273.354 71.8337 273.842 71.5617C274.338 71.2897 274.898 71.1537 275.522 71.1537C276.058 71.1537 276.542 71.2577 276.974 71.4657C277.406 71.6737 277.746 71.9857 277.994 72.4017L277.358 72.8337C277.142 72.5137 276.874 72.2777 276.554 72.1257C276.234 71.9737 275.886 71.8977 275.51 71.8977C275.062 71.8977 274.658 72.0017 274.298 72.2097C273.938 72.4097 273.654 72.6937 273.446 73.0617C273.238 73.4297 273.134 73.8617 273.134 74.3577C273.134 74.8537 273.238 75.2857 273.446 75.6537C273.654 76.0217 273.938 76.3097 274.298 76.5177C274.658 76.7177 275.062 76.8177 275.51 76.8177C275.886 76.8177 276.234 76.7417 276.554 76.5897C276.874 76.4377 277.142 76.2057 277.358 75.8937L277.994 76.3257C277.746 76.7337 277.406 77.0457 276.974 77.2617C276.542 77.4697 276.058 77.5737 275.522 77.5737ZM280.726 77.5137V71.7297L280.942 71.9577H278.338V71.2137H283.966V71.9577H281.362L281.578 71.7297V77.5137H280.726ZM285.198 77.5137V71.2137H287.982C288.694 71.2137 289.254 71.3497 289.662 71.6217C290.078 71.8937 290.286 72.2937 290.286 72.8217C290.286 73.3337 290.09 73.7297 289.698 74.0097C289.306 74.2817 288.79 74.4177 288.15 74.4177L288.318 74.1657C289.07 74.1657 289.622 74.3057 289.974 74.5857C290.326 74.8657 290.502 75.2697 290.502 75.7977C290.502 76.3417 290.302 76.7657 289.902 77.0697C289.51 77.3657 288.898 77.5137 288.066 77.5137H285.198ZM286.026 76.8417H288.03C288.566 76.8417 288.97 76.7577 289.242 76.5897C289.522 76.4137 289.662 76.1337 289.662 75.7497C289.662 75.3657 289.538 75.0857 289.29 74.9097C289.042 74.7337 288.65 74.6457 288.114 74.6457H286.026V76.8417ZM286.026 74.0097H287.922C288.41 74.0097 288.782 73.9177 289.038 73.7337C289.302 73.5497 289.434 73.2817 289.434 72.9297C289.434 72.5777 289.302 72.3137 289.038 72.1377C288.782 71.9617 288.41 71.8737 287.922 71.8737H286.026V74.0097ZM296.411 77.5137V76.1217L296.375 75.8937V73.5657C296.375 73.0297 296.223 72.6177 295.919 72.3297C295.623 72.0417 295.179 71.8977 294.587 71.8977C294.179 71.8977 293.791 71.9657 293.423 72.1017C293.055 72.2377 292.743 72.4177 292.487 72.6417L292.103 72.0057C292.423 71.7337 292.807 71.5257 293.255 71.3817C293.703 71.2297 294.175 71.1537 294.671 71.1537C295.487 71.1537 296.115 71.3577 296.555 71.7657C297.003 72.1657 297.227 72.7777 297.227 73.6017V77.5137H296.411ZM294.239 77.5737C293.767 77.5737 293.355 77.4977 293.003 77.3457C292.659 77.1857 292.395 76.9697 292.211 76.6977C292.027 76.4177 291.935 76.0977 291.935 75.7377C291.935 75.4097 292.011 75.1137 292.163 74.8497C292.323 74.5777 292.579 74.3617 292.931 74.2017C293.291 74.0337 293.771 73.9497 294.371 73.9497H296.543V74.5857H294.395C293.787 74.5857 293.363 74.6937 293.123 74.9097C292.891 75.1257 292.775 75.3937 292.775 75.7137C292.775 76.0737 292.915 76.3617 293.195 76.5777C293.475 76.7937 293.867 76.9017 294.371 76.9017C294.851 76.9017 295.263 76.7937 295.607 76.5777C295.959 76.3537 296.215 76.0337 296.375 75.6177L296.567 76.2057C296.407 76.6217 296.127 76.9537 295.727 77.2017C295.335 77.4497 294.839 77.5737 294.239 77.5737ZM299.495 77.5137V71.2137H300.359L303.215 76.0497H302.855L305.759 71.2137H306.551V77.5137H305.771V72.1857L305.927 72.2577L303.215 76.7457H302.831L300.095 72.2097L300.275 72.1737V77.5137H299.495ZM308.976 77.5137V71.2137H309.828V76.2177L314.04 71.2137H314.796V77.5137H313.944V72.4977L309.744 77.5137H308.976ZM98.5771 92.5137V86.2137H99.4291V88.9977H103.401V86.2137H104.253V92.5137H103.401V89.7297H99.4291V92.5137H98.5771ZM110.587 92.5137V91.1217L110.551 90.8937V88.5657C110.551 88.0297 110.399 87.6177 110.095 87.3297C109.799 87.0417 109.355 86.8977 108.763 86.8977C108.355 86.8977 107.967 86.9657 107.599 87.1017C107.231 87.2377 106.919 87.4177 106.663 87.6417L106.279 87.0057C106.599 86.7337 106.983 86.5257 107.431 86.3817C107.879 86.2297 108.351 86.1537 108.847 86.1537C109.663 86.1537 110.291 86.3577 110.731 86.7657C111.179 87.1657 111.403 87.7777 111.403 88.6017V92.5137H110.587ZM108.415 92.5737C107.943 92.5737 107.531 92.4977 107.179 92.3457C106.835 92.1857 106.571 91.9697 106.387 91.6977C106.203 91.4177 106.111 91.0977 106.111 90.7377C106.111 90.4097 106.187 90.1137 106.339 89.8497C106.499 89.5777 106.755 89.3617 107.107 89.2017C107.467 89.0337 107.947 88.9497 108.547 88.9497H110.719V89.5857H108.571C107.963 89.5857 107.539 89.6937 107.299 89.9097C107.067 90.1257 106.951 90.3937 106.951 90.7137C106.951 91.0737 107.091 91.3617 107.371 91.5777C107.651 91.7937 108.043 91.9017 108.547 91.9017C109.027 91.9017 109.439 91.7937 109.783 91.5777C110.135 91.3537 110.391 91.0337 110.551 90.6177L110.743 91.2057C110.583 91.6217 110.303 91.9537 109.903 92.2017C109.511 92.4497 109.015 92.5737 108.415 92.5737ZM121.131 92.1057V86.9577H118.095L118.023 88.3617C118.007 88.7857 117.979 89.2017 117.939 89.6097C117.907 90.0177 117.847 90.3937 117.759 90.7377C117.679 91.0737 117.563 91.3497 117.411 91.5657C117.259 91.7737 117.063 91.8937 116.823 91.9257L115.971 91.7697C116.219 91.7777 116.423 91.6897 116.583 91.5057C116.743 91.3137 116.867 91.0537 116.955 90.7257C117.043 90.3977 117.107 90.0257 117.147 89.6097C117.187 89.1857 117.219 88.7537 117.243 88.3137L117.327 86.2137H121.983V92.1057H121.131ZM115.707 94.0377V91.7697H122.967V94.0377H122.163V92.5137H116.511V94.0377H115.707ZM127.22 92.5737C126.612 92.5737 126.064 92.4377 125.576 92.1657C125.096 91.8857 124.716 91.5057 124.436 91.0257C124.156 90.5377 124.016 89.9817 124.016 89.3577C124.016 88.7257 124.156 88.1697 124.436 87.6897C124.716 87.2097 125.096 86.8337 125.576 86.5617C126.056 86.2897 126.604 86.1537 127.22 86.1537C127.844 86.1537 128.396 86.2897 128.876 86.5617C129.364 86.8337 129.744 87.2097 130.016 87.6897C130.296 88.1697 130.436 88.7257 130.436 89.3577C130.436 89.9817 130.296 90.5377 130.016 91.0257C129.744 91.5057 129.364 91.8857 128.876 92.1657C128.388 92.4377 127.836 92.5737 127.22 92.5737ZM127.22 91.8177C127.676 91.8177 128.08 91.7177 128.432 91.5177C128.784 91.3097 129.06 91.0217 129.26 90.6537C129.468 90.2777 129.572 89.8457 129.572 89.3577C129.572 88.8617 129.468 88.4297 129.26 88.0617C129.06 87.6937 128.784 87.4097 128.432 87.2097C128.08 87.0017 127.68 86.8977 127.232 86.8977C126.784 86.8977 126.384 87.0017 126.032 87.2097C125.68 87.4097 125.4 87.6937 125.192 88.0617C124.984 88.4297 124.88 88.8617 124.88 89.3577C124.88 89.8457 124.984 90.2777 125.192 90.6537C125.4 91.0217 125.68 91.3097 126.032 91.5177C126.384 91.7177 126.78 91.8177 127.22 91.8177ZM131.07 92.5017L131.13 91.7697C131.186 91.7777 131.238 91.7897 131.286 91.8057C131.342 91.8137 131.39 91.8177 131.43 91.8177C131.686 91.8177 131.89 91.7217 132.042 91.5297C132.202 91.3377 132.322 91.0817 132.402 90.7617C132.482 90.4417 132.538 90.0817 132.57 89.6817C132.602 89.2737 132.63 88.8657 132.654 88.4577L132.762 86.2137H137.382V92.5137H136.53V86.7057L136.746 86.9577H133.314L133.518 86.6937L133.422 88.5177C133.398 89.0617 133.354 89.5817 133.29 90.0777C133.234 90.5737 133.142 91.0097 133.014 91.3857C132.894 91.7617 132.726 92.0577 132.51 92.2737C132.294 92.4817 132.018 92.5857 131.682 92.5857C131.586 92.5857 131.486 92.5777 131.382 92.5617C131.286 92.5457 131.182 92.5257 131.07 92.5017ZM139.804 92.5137V86.2137H144.268V86.9577H140.44L140.656 86.7417V92.5137H139.804ZM145.499 92.5137V86.2137H146.351V91.2177L150.563 86.2137H151.319V92.5137H150.467V87.4977L146.267 92.5137H145.499ZM156.461 92.5737C155.805 92.5737 155.229 92.4377 154.733 92.1657C154.237 91.8857 153.849 91.5057 153.569 91.0257C153.289 90.5377 153.149 89.9817 153.149 89.3577C153.149 88.7337 153.281 88.1817 153.545 87.7017C153.817 87.2217 154.185 86.8457 154.649 86.5737C155.121 86.2937 155.649 86.1537 156.233 86.1537C156.825 86.1537 157.349 86.2897 157.805 86.5617C158.269 86.8257 158.633 87.2017 158.897 87.6897C159.161 88.1697 159.293 88.7257 159.293 89.3577C159.293 89.3977 159.289 89.4417 159.281 89.4897C159.281 89.5297 159.281 89.5737 159.281 89.6217H153.797V88.9857H158.825L158.489 89.2377C158.489 88.7817 158.389 88.3777 158.189 88.0257C157.997 87.6657 157.733 87.3857 157.397 87.1857C157.061 86.9857 156.673 86.8857 156.233 86.8857C155.801 86.8857 155.413 86.9857 155.069 87.1857C154.725 87.3857 154.457 87.6657 154.265 88.0257C154.073 88.3857 153.977 88.7977 153.977 89.2617V89.3937C153.977 89.8737 154.081 90.2977 154.289 90.6657C154.505 91.0257 154.801 91.3097 155.177 91.5177C155.561 91.7177 155.997 91.8177 156.485 91.8177C156.869 91.8177 157.225 91.7497 157.553 91.6137C157.889 91.4777 158.177 91.2697 158.417 90.9897L158.897 91.5417C158.617 91.8777 158.265 92.1337 157.841 92.3097C157.425 92.4857 156.965 92.5737 156.461 92.5737ZM164.319 92.5137V86.2137H168.783V86.9577H164.955L165.171 86.7417V92.5137H164.319ZM172.314 92.5737C171.706 92.5737 171.158 92.4377 170.67 92.1657C170.19 91.8857 169.81 91.5057 169.53 91.0257C169.25 90.5377 169.11 89.9817 169.11 89.3577C169.11 88.7257 169.25 88.1697 169.53 87.6897C169.81 87.2097 170.19 86.8337 170.67 86.5617C171.15 86.2897 171.698 86.1537 172.314 86.1537C172.938 86.1537 173.49 86.2897 173.97 86.5617C174.458 86.8337 174.838 87.2097 175.11 87.6897C175.39 88.1697 175.53 88.7257 175.53 89.3577C175.53 89.9817 175.39 90.5377 175.11 91.0257C174.838 91.5057 174.458 91.8857 173.97 92.1657C173.482 92.4377 172.93 92.5737 172.314 92.5737ZM172.314 91.8177C172.77 91.8177 173.174 91.7177 173.526 91.5177C173.878 91.3097 174.154 91.0217 174.354 90.6537C174.562 90.2777 174.666 89.8457 174.666 89.3577C174.666 88.8617 174.562 88.4297 174.354 88.0617C174.154 87.6937 173.878 87.4097 173.526 87.2097C173.174 87.0017 172.774 86.8977 172.326 86.8977C171.878 86.8977 171.478 87.0017 171.126 87.2097C170.774 87.4097 170.494 87.6937 170.286 88.0617C170.078 88.4297 169.974 88.8617 169.974 89.3577C169.974 89.8457 170.078 90.2777 170.286 90.6537C170.494 91.0217 170.774 91.3097 171.126 91.5177C171.478 91.7177 171.874 91.8177 172.314 91.8177ZM181.635 92.1057V86.9577H178.599L178.527 88.3617C178.511 88.7857 178.483 89.2017 178.443 89.6097C178.411 90.0177 178.351 90.3937 178.263 90.7377C178.183 91.0737 178.067 91.3497 177.915 91.5657C177.763 91.7737 177.567 91.8937 177.327 91.9257L176.475 91.7697C176.723 91.7777 176.927 91.6897 177.087 91.5057C177.247 91.3137 177.371 91.0537 177.459 90.7257C177.547 90.3977 177.611 90.0257 177.651 89.6097C177.691 89.1857 177.723 88.7537 177.747 88.3137L177.831 86.2137H182.487V92.1057H181.635ZM176.211 94.0377V91.7697H183.471V94.0377H182.667V92.5137H177.015V94.0377H176.211ZM191.276 92.5137V86.2137H192.128V92.5137H191.276ZM187.784 88.4337C188.576 88.4417 189.18 88.6177 189.596 88.9617C190.012 89.3057 190.22 89.8017 190.22 90.4497C190.22 91.1217 189.996 91.6377 189.548 91.9977C189.1 92.3577 188.46 92.5337 187.628 92.5257L185.132 92.5137V86.2137H185.984V88.4097L187.784 88.4337ZM187.568 91.8777C188.16 91.8857 188.604 91.7697 188.9 91.5297C189.204 91.2817 189.356 90.9217 189.356 90.4497C189.356 89.9777 189.208 89.6337 188.912 89.4177C188.616 89.1937 188.168 89.0777 187.568 89.0697L185.984 89.0457V91.8537L187.568 91.8777Z" fill="#666666"/>
<g clip-path="url(#clip0_0_646)">
<path d="M68.4899 26.267C68.4402 25.8428 68.1355 25.4925 67.7224 25.3847C50.8556 20.9686 44.5017 15.1755 44.441 15.1194C44.0421 14.7437 43.4185 14.7437 43.0196 15.1194C42.9578 15.1771 36.6879 20.9468 19.7381 25.3847C19.3251 25.4925 19.0203 25.8428 18.9707 26.267C18.9383 26.5449 16.0287 54.2025 43.3638 64.5327C43.4822 64.5772 43.6058 64.5995 43.7303 64.5995C43.8548 64.5995 43.9783 64.5772 44.0968 64.5327C71.4319 54.2025 68.5223 26.5449 68.4899 26.267ZM43.7303 62.4527C20.3577 53.3926 20.6726 31.482 20.9692 27.203C34.9436 23.4515 41.664 18.8546 43.7303 17.2272C45.7956 18.8546 52.513 23.45 66.4832 27.201C66.7222 31.3984 66.8265 53.4928 43.7303 62.4527Z" fill="white"/>
<path d="M49.6946 34.5205L41.4951 42.719L37.7623 38.9863L36.2963 40.4523L41.4951 45.6511L51.1606 35.9865L49.6946 34.5205Z" fill="white"/>
<path d="M43.7307 26.2441C36.2996 26.2441 30.2535 32.2898 30.2535 39.7214C30.2535 47.153 36.2996 53.1986 43.7307 53.1986C51.1618 53.1986 57.208 47.153 57.208 39.7214C57.208 32.2898 51.1618 26.2441 43.7307 26.2441ZM43.7307 51.1252C37.4426 51.1252 32.3269 46.0095 32.3269 39.7214C32.3269 33.4333 37.4426 28.3176 43.7307 28.3176C50.0188 28.3176 55.1346 33.4333 55.1346 39.7214C55.1346 46.0096 50.0188 51.1252 43.7307 51.1252Z" fill="white"/>
</g>
<defs>
<clipPath id="clip0_0_646">
<rect width="49.7619" height="49.7619" fill="white" transform="translate(18.8496 14.8398)"/>
</clipPath>
</defs>
</svg>
